<?xml version="1.0" encoding="utf-8"?>
<!-- Generator: Adobe Illustrator 26.3.1, SVG Export Plug-In . SVG Version: 6.00 Build 0)  -->
<svg version="1.1" xmlns="http://www.w3.org/2000/svg" xmlns:xlink="http://www.w3.org/1999/xlink" x="0px" y="0px"
	 viewBox="0 0 735.4 500" style="enable-background:new 0 0 735.4 500;" xml:space="preserve">
<style type="text/css">
	.st0{fill:#FFFFFF;}
	.st1{fill:#B1B4C4;}
	.st2{fill:#E4E7F2;}
	.st3{fill:#D6D8E5;}
	.st4{opacity:0.5;fill:url(#SVGID_1_);enable-background:new    ;}
	.st5{opacity:0.4;fill:#D6D8E5;enable-background:new    ;}
	.st6{fill:#2B303F;}
	.st7{fill:#C3C6D1;}
	.st8{fill:#E9EAF2;}
	.st9{fill:#FF8F00;}
	.st10{fill:#F5F6FF;}
	.st11{fill:none;stroke:#E9EAF2;stroke-width:0.22;stroke-miterlimit:10;}
	.st12{fill:none;stroke:#E9EAF2;stroke-width:1.09;stroke-miterlimit:10;}
	.st13{fill:#FAFBFF;}
	.st14{opacity:0.3;fill:#D6D8E5;enable-background:new    ;}
	.st15{opacity:0.1;enable-background:new    ;}
	.st16{opacity:0.15;enable-background:new    ;}
	.st17{fill:#2B2A30;}
	.st18{fill:#FFCEA9;}
	.st19{fill:#F4F4F4;}
	.st20{fill:#BF4B4B;}
	.st21{fill:#E26161;}
	.st22{fill:#EDEDED;}
	.st23{fill:#3A2C6D;}
	.st24{fill:#BFBFBF;}
	.st25{fill:#E5E5E5;}
	.st26{fill:#38226D;}
	.st27{fill:#9C73FF;}
	.st28{fill:#A1A5B5;}
	.st29{opacity:0.1;fill:#3E7EFF;enable-background:new    ;}
</style>
<g id="Ebene_2">
	<path class="st0" d="M661.7,82h-565c-6.6,0-12-5.4-12-12v-9.7c0-6.6,5.4-12,12-12h565c6.6,0,12,5.4,12,12V70
		C673.7,76.6,668.3,82,661.7,82z"/>
	<path class="st0" d="M496.5,144.6H39.7c-6.6,0-12-5.4-12-12v-9.2c0-6.6,5.4-12,12-12h456.8c6.6,0,12,5.4,12,12v9.2
		C508.5,139.2,503.1,144.6,496.5,144.6z"/>
	<path class="st0" d="M700.6,211h-455c-6.6,0-12-5.4-12-12v-12.3c0-6.6,5.4-12,12-12h455c6.6,0,12,5.4,12,12V199
		C712.6,205.6,707.2,211,700.6,211z"/>
	<path class="st0" d="M472.8,431H39.7c-6.6,0-12-5.4-12-12v-11.2c0-6.6,5.4-12,12-12h433.1c6.6,0,12,5.4,12,12V419
		C484.8,425.6,479.4,431,472.8,431z"/>
</g>
<g id="Ebene_1">
	<g id="Слой_2">
		<g id="Слой_1-2">
			<g id="Laptop">
				<path class="st1" d="M474.3,323.5L267.6,204.2c-2.9-1.7-5.2-6.2-5.2-10V34.2c0-3.9,2.4-5.6,5.2-4l206.7,119.4
					c2.9,1.7,5.2,6.2,5.2,10v159.9C479.5,323.4,477.2,325.2,474.3,323.5z"/>
				<polygon class="st1" points="475.4,325.2 477.7,323.9 476.7,317.1 				"/>
				<path class="st1" d="M262,31.3l2.2-1.3l3.2,1.9c0,0-3.4,0.5-3.5,0.5C263.8,32.3,262,31.3,262,31.3z"/>
				<path class="st2" d="M472.4,324.6L265.7,205.3c-2.9-1.7-5.2-6.2-5.2-10V35.3c0-3.9,2.4-5.6,5.2-4l206.7,119.4
					c2.9,1.7,5.2,6.2,5.2,10v159.9C477.7,324.5,475.3,326.3,472.4,324.6z"/>
				<path class="st3" d="M472,324.9L265.3,205.5c-2.9-1.7-5.2-6.2-5.2-10V35.6c0-3.9,2.4-5.6,5.2-4L472,150.9
					c2.9,1.7,5.2,6.2,5.2,10v159.9C477.3,324.7,474.9,326.5,472,324.9z"/>
				<path class="st0" d="M474.4,315.1L262.7,192.9l0.1-156.7c0-1.6,1.1-2.3,2.5-1.5L472,154.1c1.5,1,2.4,2.6,2.5,4.4L474.4,315.1z"
					/>
				
					<linearGradient id="SVGID_1_" gradientUnits="userSpaceOnUse" x1="-170.9857" y1="-1784.0984" x2="-170.9857" y2="-1645.8484" gradientTransform="matrix(0.87 0.5 0 -1.15 517.3546 -1722.6426)">
					<stop  offset="0.21" style="stop-color:#FFFFFF;stop-opacity:0"/>
					<stop  offset="1" style="stop-color:#FFFFFF;stop-opacity:0.2"/>
				</linearGradient>
				<path class="st4" d="M474.4,315L262.7,192.7l0.1-156.7c0-1.6,1.1-2.2,2.5-1.5L472,154c1.5,1,2.4,2.6,2.5,4.4L474.4,315z"/>
				<path class="st5" d="M316.1,417.8L109.4,298.4c-2.9-1.7-2.5-4.6,0.8-6.5l138.5-80c3.4-1.9,8.4-2.1,11.3-0.5l206.7,119.4
					c2.9,1.7,2.5,4.6-0.8,6.5l-138.5,80C324.1,419.2,319,419.4,316.1,417.8z"/>
				<path class="st1" d="M320.6,415.1L113.9,295.7c-2.9-1.7-2.5-4.6,0.8-6.5l138.5-80c3.3-1.9,8.4-2.1,11.3-0.5l206.7,119.4
					c2.9,1.7,2.5,4.6-0.8,6.5l-138.5,80C328.6,416.5,323.5,416.7,320.6,415.1z"/>
				<polygon class="st1" points="112,293 112,289.1 116.3,290.9 				"/>
				<polygon class="st1" points="473.2,331 473.2,327.2 470,328.3 472.1,331.5 				"/>
				<path class="st2" d="M320.6,411.8L113.9,292.4c-2.9-1.7-2.5-4.6,0.8-6.5l138.5-80c3.3-1.9,8.4-2.1,11.3-0.5l206.7,119.4
					c2.9,1.7,2.5,4.6-0.8,6.5L332,411.3C328.6,413.2,323.5,413.5,320.6,411.8z"/>
				<path class="st3" d="M320.6,411.3L113.9,291.9c-2.9-1.7-2.5-4.6,0.8-6.5l138.5-80c3.3-1.9,8.4-2.1,11.3-0.5l206.7,119.4
					c2.9,1.7,2.5,4.6-0.8,6.5l-138.5,80C328.6,412.7,323.5,412.9,320.6,411.3z"/>
				<path class="st6" d="M249.4,232.4l-9.6-5.6c-0.8-0.4-0.7-1.2,0.2-1.8l9.2-5.3c0.9-0.5,2.1-0.6,3.1-0.1l9.6,5.6
					c0.8,0.4,0.7,1.2-0.2,1.8l-9.2,5.3C251.5,232.8,250.4,232.8,249.4,232.4z"/>
				<path class="st6" d="M263,240.3l-9.6-5.6c-0.8-0.4-0.7-1.2,0.2-1.8l9.2-5.3c0.9-0.5,2.1-0.6,3.1-0.1l9.6,5.6
					c0.8,0.4,0.7,1.2-0.2,1.8l-9.2,5.3C265.1,240.7,264,240.7,263,240.3z"/>
				<path class="st6" d="M276.8,248.2l-9.7-5.6c-0.8-0.5-0.7-1.2,0.2-1.8l9.2-5.3c0.9-0.5,2.1-0.6,3.1-0.1l9.6,5.6
					c0.8,0.5,0.7,1.2-0.2,1.8l-9.2,5.3C278.9,248.6,277.8,248.7,276.8,248.2z"/>
				<path class="st6" d="M290.3,256l-9.6-5.6c-0.8-0.4-0.7-1.2,0.2-1.8l9.2-5.3c0.9-0.5,2.1-0.6,3.1-0.1l9.6,5.6
					c0.8,0.4,0.7,1.2-0.2,1.8l-9.2,5.3C292.4,256.4,291.2,256.4,290.3,256z"/>
				<path class="st6" d="M303.9,263.9l-9.6-5.6c-0.8-0.5-0.7-1.2,0.2-1.8l9.2-5.3c0.9-0.5,2.1-0.6,3.1-0.1l9.6,5.6
					c0.8,0.5,0.7,1.2-0.2,1.8l-9.2,5.3C306,264.3,304.9,264.3,303.9,263.9z"/>
				<path class="st6" d="M317.5,271.7l-9.6-5.5c-0.8-0.5-0.7-1.2,0.2-1.8l9.2-5.3c0.9-0.5,2.1-0.6,3.1-0.1l9.6,5.5
					c0.8,0.5,0.7,1.2-0.2,1.8l-9.2,5.3C319.6,272.1,318.5,272.2,317.5,271.7z"/>
				<path class="st6" d="M331.1,279.6l-9.6-5.6c-0.8-0.5-0.7-1.2,0.2-1.8l9.2-5.3c0.9-0.5,2.1-0.6,3.1-0.1l9.6,5.6
					c0.8,0.5,0.7,1.2-0.2,1.8l-9.2,5.3C333.3,280,332.1,280,331.1,279.6z"/>
				<path class="st6" d="M344.8,287.5l-9.6-5.6c-0.8-0.5-0.7-1.2,0.2-1.8l9.2-5.3c0.9-0.5,2.1-0.6,3.1-0.1l9.6,5.6
					c0.8,0.5,0.7,1.2-0.2,1.8l-9.2,5.3C346.9,287.9,345.7,287.9,344.8,287.5z"/>
				<path class="st6" d="M358.4,295.3l-9.6-5.5c-0.8-0.5-0.7-1.2,0.2-1.8l9.2-5.3c0.9-0.5,2.1-0.6,3.1-0.1l9.6,5.6
					c0.8,0.5,0.7,1.2-0.2,1.8l-9.2,5.3C360.5,295.7,359.4,295.8,358.4,295.3z"/>
				<path class="st6" d="M372,303.2l-9.6-5.6c-0.8-0.5-0.7-1.2,0.2-1.8l9.2-5.3c0.9-0.5,2.1-0.6,3.1-0.1l9.6,5.5
					c0.8,0.5,0.7,1.2-0.2,1.8l-9.2,5.3C374.1,303.6,373,303.6,372,303.2z"/>
				<path class="st6" d="M385.6,311.1l-9.6-5.6c-0.8-0.5-0.7-1.2,0.2-1.8l9.2-5.3c0.9-0.5,2.1-0.6,3.1-0.1l9.6,5.6
					c0.8,0.5,0.7,1.2-0.2,1.8l-9.2,5.3C387.7,311.5,386.6,311.5,385.6,311.1z"/>
				<path class="st6" d="M399.3,318.9l-9.6-5.5c-0.8-0.5-0.7-1.2,0.2-1.8l9.2-5.3c0.9-0.5,2.1-0.6,3.1-0.1l9.6,5.6
					c0.8,0.5,0.7,1.2-0.2,1.8l-9.2,5.3C401.4,319.3,400.2,319.4,399.3,318.9z"/>
				<path class="st6" d="M412.9,326.8l-9.6-5.6c-0.8-0.5-0.7-1.2,0.2-1.8l9.2-5.3c0.9-0.5,2.1-0.6,3.1-0.1l9.6,5.5
					c0.8,0.5,0.7,1.2-0.2,1.8l-9.2,5.3C415,327.2,413.9,327.3,412.9,326.8z"/>
				<path class="st6" d="M433.1,338.5l-16.2-9.4c-0.8-0.5-0.7-1.2,0.2-1.8l9.2-5.3c0.9-0.5,2.1-0.6,3.1-0.1l16.2,9.4
					c0.8,0.5,0.7,1.2-0.2,1.8l-9.2,5.3C435.2,338.9,434.1,338.9,433.1,338.5z"/>
				<path class="st6" d="M256.4,251.7l-9.6-5.6c-0.8-0.5-0.7-1.2,0.2-1.8l9.2-5.3c0.9-0.5,2.1-0.6,3.1-0.1l9.6,5.6
					c0.8,0.5,0.7,1.2-0.2,1.8l-9.2,5.3C258.5,252.1,257.4,252.1,256.4,251.7z"/>
				<path class="st6" d="M270,259.6l-9.6-5.6c-0.8-0.5-0.7-1.2,0.2-1.8l9.2-5.3c0.9-0.5,2.1-0.6,3.1-0.1l9.6,5.6
					c0.8,0.5,0.7,1.2-0.2,1.8l-9.2,5.3C272.2,260,271,260,270,259.6z"/>
				<path class="st6" d="M283.7,267.5l-9.6-5.5c-0.8-0.5-0.7-1.2,0.2-1.8l9.2-5.3c0.9-0.5,2.1-0.6,3.1-0.1l9.6,5.6
					c0.8,0.5,0.7,1.2-0.2,1.8l-9.2,5.3C285.8,267.9,284.7,267.9,283.7,267.5z"/>
				<path class="st6" d="M297.3,275.3l-9.6-5.5c-0.8-0.5-0.7-1.2,0.2-1.8l9.2-5.3c0.9-0.5,2.1-0.6,3.1-0.1l9.6,5.6
					c0.8,0.5,0.7,1.2-0.2,1.8l-9.2,5.3C299.4,275.7,298.3,275.8,297.3,275.3z"/>
				<path class="st6" d="M310.9,283.1l-9.6-5.6c-0.8-0.5-0.7-1.2,0.2-1.8l9.2-5.3c0.9-0.5,2.1-0.6,3.1-0.1l9.6,5.5
					c0.8,0.5,0.7,1.2-0.2,1.8l-9.2,5.3C313,283.6,311.8,283.6,310.9,283.1z"/>
				<path class="st6" d="M324.5,291l-9.6-5.5c-0.8-0.5-0.7-1.2,0.2-1.8l9.2-5.3c0.9-0.5,2.1-0.6,3.1-0.1l9.6,5.5
					c0.8,0.5,0.7,1.2-0.2,1.8l-9.2,5.3C326.6,291.4,325.5,291.4,324.5,291z"/>
				<path class="st6" d="M338.2,298.9l-9.6-5.5c-0.8-0.5-0.7-1.2,0.2-1.8l9.2-5.3c0.9-0.5,2.1-0.6,3.1-0.1l9.6,5.5
					c0.8,0.5,0.7,1.2-0.2,1.8l-9.2,5.3C340.3,299.3,339.1,299.4,338.2,298.9z"/>
				<path class="st6" d="M351.8,306.8l-9.6-5.5c-0.8-0.5-0.7-1.2,0.2-1.8l9.2-5.3c0.9-0.5,2.1-0.6,3.1-0.1l9.6,5.5
					c0.8,0.5,0.7,1.2-0.2,1.8l-9.2,5.3C353.9,307.2,352.8,307.2,351.8,306.8z"/>
				<path class="st6" d="M365.5,314.7l-9.6-5.5c-0.8-0.5-0.7-1.2,0.2-1.8l9.2-5.3c0.9-0.5,2.1-0.6,3.1-0.1l9.6,5.6
					c0.8,0.5,0.7,1.2-0.2,1.8l-9.2,5.3C367.6,315.1,366.4,315.1,365.5,314.7z"/>
				<path class="st6" d="M379.1,322.5l-9.6-5.5c-0.8-0.5-0.7-1.2,0.2-1.8l9.2-5.3c0.9-0.5,2.1-0.6,3.1-0.1l9.6,5.6
					c0.8,0.5,0.7,1.2-0.2,1.8l-9.2,5.3C381.2,323,380.1,323,379.1,322.5z"/>
				<path class="st6" d="M392.8,330.4l-9.6-5.5c-0.8-0.5-0.7-1.2,0.2-1.8l9.2-5.3c0.9-0.5,2.1-0.6,3.1-0.1l9.6,5.6
					c0.8,0.5,0.7,1.2-0.2,1.8l-9.2,5.3C394.9,330.8,393.7,330.9,392.8,330.4z"/>
				<path class="st6" d="M406.4,338.3l-9.6-5.6c-0.8-0.5-0.7-1.2,0.2-1.8l9.2-5.3c0.9-0.5,2.1-0.6,3.1-0.1l9.6,5.6
					c0.8,0.5,0.7,1.2-0.2,1.8l-9.2,5.3C408.5,338.7,407.4,338.8,406.4,338.3z"/>
				<path class="st6" d="M242.7,243.8l-16.2-9.3c-0.8-0.5-0.7-1.2,0.2-1.8l9.2-5.3c0.9-0.5,2.1-0.6,3.1-0.1l16.2,9.3
					c0.8,0.5,0.7,1.2-0.2,1.8l-9.2,5.3C244.8,244.2,243.7,244.3,242.7,243.8z"/>
				<path class="st6" d="M432.4,339l-9.6-5.5c-0.9-0.5-2-0.5-2.9,0l-9.7,5.5c-0.5,0.2-0.7,0.6-0.5,1.1c0.1,0.3,0.3,0.5,0.5,0.5
					l0.8,0.4c0.4,0.1,0.6,0.6,0.5,1c-0.1,0.2-0.3,0.4-0.5,0.5l-10.3,5.9c-0.8,0.5-0.8,1.2,0,1.6l6.1,3.5c0.9,0.5,2,0.5,2.9,0
					l9.6-5.5l2-1.1l1.4-0.8l1.4-0.8l8.3-4.8C433.2,340.1,433.2,339.4,432.4,339z"/>
				<path class="st6" d="M196.6,262.9l-9.6-5.6c-0.8-0.5-0.7-1.2,0.2-1.8l9.2-5.3c0.9-0.5,2.1-0.6,3.1-0.1l9.6,5.6
					c0.8,0.5,0.7,1.3-0.2,1.8l-9.2,5.3C198.7,263.3,197.6,263.4,196.6,262.9z"/>
				<path class="st6" d="M210.2,270.8l-9.6-5.6c-0.8-0.5-0.7-1.2,0.2-1.8l9.2-5.3c0.9-0.5,2.1-0.6,3.1-0.1l9.6,5.6
					c0.8,0.5,0.7,1.2-0.2,1.8l-9.2,5.3C212.3,271.2,211.2,271.2,210.2,270.8z"/>
				<path class="st6" d="M223.8,278.6l-9.7-5.6c-0.8-0.5-0.7-1.2,0.2-1.8l9.2-5.3c0.9-0.5,2.1-0.6,3.1-0.1l9.6,5.6
					c0.8,0.5,0.7,1.2-0.2,1.8l-9.2,5.3C225.9,279,224.7,279.1,223.8,278.6z"/>
				<path class="st6" d="M339.5,345.4l-9.6-5.5c-0.8-0.5-0.7-1.2,0.2-1.8l9.2-5.3c0.9-0.5,2.1-0.6,3.1-0.1l9.6,5.6
					c0.8,0.5,0.7,1.2-0.2,1.8l-9.2,5.3C341.6,345.8,340.5,345.9,339.5,345.4z"/>
				<path class="st6" d="M353.1,353.3l-9.6-5.6c-0.8-0.5-0.7-1.2,0.2-1.8l9.2-5.3c0.9-0.5,2.1-0.6,3.1-0.1l9.6,5.6
					c0.8,0.5,0.7,1.2-0.2,1.8l-9.2,5.3C355.2,353.7,354.1,353.7,353.1,353.3z"/>
				<path class="st6" d="M366.7,361.1l-9.6-5.5c-0.8-0.5-0.7-1.2,0.2-1.8l9.2-5.3c0.9-0.5,2.1-0.6,3.1-0.1l9.6,5.5
					c0.8,0.5,0.7,1.2-0.2,1.8l-9.2,5.3C368.8,361.5,367.6,361.6,366.7,361.1z"/>
				<path class="st6" d="M380.2,369l-9.6-5.6c-0.8-0.5-0.7-1.2,0.2-1.8l9.2-5.3c0.9-0.5,2.1-0.6,3.1-0.1l9.6,5.6
					c0.8,0.5,0.7,1.2-0.2,1.8l-9.2,5.3C382.4,369.4,381.2,369.4,380.2,369z"/>
				<path class="st6" d="M240.9,288.5l-13.1-7.6c-0.8-0.5-0.7-1.2,0.2-1.8l9.2-5.3c0.9-0.5,2.1-0.6,3.1-0.1l13.1,7.6
					c0.8,0.5,0.7,1.2-0.2,1.8l-9.2,5.3C243,288.9,241.8,288.9,240.9,288.5z"/>
				<path class="st6" d="M325.9,337.6l-13.1-7.6c-0.8-0.5-0.7-1.2,0.2-1.8l9.2-5.3c0.9-0.5,2.1-0.6,3.1-0.1l13.1,7.6
					c0.8,0.5,0.7,1.2-0.2,1.8l-9.2,5.3C328,338,326.9,338,325.9,337.6z"/>
				<path class="st6" d="M308.8,327.7l-64-36.9c-0.8-0.5-0.7-1.2,0.2-1.8l9.2-5.3c0.9-0.5,2.1-0.6,3.1-0.1l64,37
					c0.8,0.5,0.7,1.2-0.2,1.8l-9.2,5.3C310.9,328.1,309.8,328.2,308.8,327.7z"/>
				<path class="st6" d="M246.9,261.5l-9.6-5.6c-0.8-0.4-0.7-1.2,0.2-1.8l9.2-5.3c0.9-0.5,2.1-0.6,3.1-0.1l9.6,5.6
					c0.8,0.4,0.7,1.2-0.2,1.8l-9.2,5.3C249,261.9,247.9,261.9,246.9,261.5z"/>
				<path class="st6" d="M260.5,269.3l-9.6-5.6c-0.8-0.5-0.7-1.2,0.2-1.8l9.2-5.3c0.9-0.5,2.1-0.6,3.1-0.1l9.6,5.6
					c0.8,0.5,0.7,1.2-0.2,1.8l-9.2,5.3C262.6,269.7,261.5,269.8,260.5,269.3z"/>
				<path class="st6" d="M274.1,277.2l-9.6-5.5c-0.8-0.5-0.7-1.2,0.2-1.8l9.2-5.3c0.9-0.5,2.1-0.6,3.1-0.1l9.6,5.6
					c0.8,0.5,0.7,1.2-0.2,1.8l-9.2,5.3C276.2,277.6,275.1,277.6,274.1,277.2z"/>
				<path class="st6" d="M287.7,285l-9.6-5.5c-0.8-0.5-0.7-1.2,0.2-1.8l9.2-5.3c0.9-0.5,2.1-0.6,3.1-0.1l9.6,5.5
					c0.8,0.5,0.7,1.2-0.2,1.8l-9.2,5.3C289.8,285.4,288.7,285.5,287.7,285z"/>
				<path class="st6" d="M301.3,292.9l-9.6-5.6c-0.8-0.5-0.7-1.2,0.2-1.8l9.2-5.3c0.9-0.5,2.1-0.6,3.1-0.1l9.6,5.5
					c0.8,0.5,0.7,1.2-0.2,1.8l-9.2,5.3C303.4,293.3,302.3,293.3,301.3,292.9z"/>
				<path class="st6" d="M314.9,300.8l-9.6-5.6c-0.8-0.5-0.7-1.2,0.2-1.8l9.2-5.3c0.9-0.5,2.1-0.6,3.1-0.1l9.6,5.6
					c0.8,0.5,0.7,1.2-0.2,1.8l-9.2,5.3C317.1,301.1,315.9,301.2,314.9,300.8z"/>
				<path class="st6" d="M328.5,308.6l-9.6-5.6c-0.8-0.5-0.7-1.2,0.2-1.8l9.2-5.3c0.9-0.5,2.1-0.6,3.1-0.1l9.6,5.6
					c0.8,0.5,0.7,1.2-0.2,1.8l-9.2,5.3C330.7,309,329.5,309.1,328.5,308.6z"/>
				<path class="st6" d="M342.1,316.5l-9.6-5.6c-0.8-0.5-0.7-1.2,0.2-1.8l9.2-5.3c0.9-0.5,2.1-0.6,3.1-0.1l9.6,5.6
					c0.8,0.5,0.7,1.2-0.2,1.8l-9.2,5.3C344.2,316.9,343.1,316.9,342.1,316.5z"/>
				<path class="st6" d="M355.8,324.3l-9.6-5.6c-0.8-0.5-0.7-1.2,0.2-1.8l9.2-5.3c0.9-0.5,2.1-0.6,3.1-0.1l9.6,5.5
					c0.8,0.5,0.7,1.2-0.2,1.8l-9.2,5.3C357.9,324.7,356.7,324.8,355.8,324.3z"/>
				<path class="st6" d="M369.4,332.2l-9.6-5.6c-0.8-0.5-0.7-1.2,0.2-1.8l9.2-5.3c0.9-0.5,2.1-0.6,3.1-0.1l9.6,5.5
					c0.8,0.5,0.7,1.2-0.2,1.8l-9.2,5.3C371.5,332.6,370.4,332.6,369.4,332.2z"/>
				<path class="st6" d="M383,340l-9.6-5.6c-0.8-0.5-0.7-1.2,0.2-1.8l9.2-5.3c0.9-0.5,2.1-0.6,3.1-0.1l9.6,5.6
					c0.8,0.5,0.7,1.2-0.2,1.8l-9.2,5.3C385.1,340.4,384,340.4,383,340z"/>
				<path class="st6" d="M396.6,347.9l-9.6-5.6c-0.8-0.5-0.7-1.2,0.2-1.8l9.2-5.3c0.9-0.5,2.1-0.6,3.1-0.1l9.7,5.6
					c0.8,0.5,0.7,1.2-0.2,1.8l-9.2,5.3C398.8,348.3,397.6,348.4,396.6,347.9z"/>
				<path class="st6" d="M233.3,253.6l-19.9-11.5c-0.8-0.5-0.7-1.2,0.2-1.8l9.2-5.3c0.9-0.5,2.1-0.6,3.1-0.1l19.9,11.5
					c0.8,0.5,0.7,1.2-0.2,1.8l-9.2,5.3C235.4,254,234.3,254,233.3,253.6z"/>
				<path class="st6" d="M226.9,265.2l-9.6-5.5c-0.8-0.5-0.7-1.2,0.2-1.8l9.2-5.3c0.9-0.5,2.1-0.6,3.1-0.1l9.6,5.6
					c0.8,0.5,0.7,1.2-0.2,1.8l-9.2,5.3C229,265.6,227.9,265.6,226.9,265.2z"/>
				<path class="st6" d="M240.5,273l-9.6-5.6c-0.8-0.5-0.7-1.2,0.2-1.8l9.2-5.3c0.9-0.5,2.1-0.6,3.1-0.1l9.6,5.6
					c0.8,0.5,0.7,1.2-0.2,1.8l-9.2,5.3C242.6,273.4,241.5,273.4,240.5,273z"/>
				<path class="st6" d="M254.1,280.9l-9.6-5.6c-0.8-0.5-0.7-1.2,0.2-1.8l9.2-5.3c0.9-0.5,2.1-0.6,3.1-0.1l9.6,5.6
					c0.8,0.5,0.7,1.2-0.2,1.8l-9.2,5.3C256.2,281.3,255.1,281.3,254.1,280.9z"/>
				<path class="st6" d="M267.7,288.8l-9.6-5.5c-0.8-0.5-0.7-1.2,0.2-1.8l9.2-5.3c0.9-0.5,2.1-0.6,3.1-0.1l9.6,5.5
					c0.8,0.5,0.7,1.2-0.2,1.8l-9.2,5.3C269.9,289.2,268.7,289.2,267.7,288.8z"/>
				<path class="st6" d="M281.4,296.6l-9.6-5.6c-0.8-0.5-0.7-1.2,0.2-1.8l9.2-5.3c0.9-0.5,2.1-0.6,3.1-0.1l9.6,5.6
					c0.8,0.5,0.7,1.2-0.2,1.8l-9.2,5.3C283.5,297,282.3,297.1,281.4,296.6z"/>
				<path class="st6" d="M295,304.5l-9.6-5.6c-0.8-0.5-0.7-1.2,0.2-1.8l9.2-5.3c0.9-0.5,2.1-0.6,3.1-0.1l9.6,5.6
					c0.8,0.5,0.7,1.2-0.2,1.8l-9.2,5.3C297.1,304.9,295.9,304.9,295,304.5z"/>
				<path class="st6" d="M308.6,312.3l-9.6-5.5c-0.8-0.5-0.7-1.2,0.2-1.8l9.2-5.3c0.9-0.5,2.1-0.6,3.1-0.1l9.6,5.5
					c0.8,0.5,0.7,1.2-0.2,1.8l-9.2,5.3C310.7,312.7,309.5,312.8,308.6,312.3z"/>
				<path class="st6" d="M322.2,320.2l-9.6-5.6c-0.8-0.5-0.7-1.2,0.2-1.8l9.2-5.3c0.9-0.5,2.1-0.6,3.1-0.1l9.6,5.6
					c0.8,0.5,0.7,1.2-0.2,1.8l-9.2,5.3C324.3,320.6,323.2,320.6,322.2,320.2z"/>
				<path class="st6" d="M335.8,328l-9.7-5.5c-0.8-0.5-0.7-1.2,0.2-1.8l9.2-5.3c0.9-0.5,2.1-0.6,3.1-0.1l9.6,5.6
					c0.8,0.5,0.7,1.2-0.2,1.8l-9.2,5.3C337.9,328.4,336.7,328.4,335.8,328z"/>
				<path class="st6" d="M349.4,335.9l-9.6-5.5c-0.8-0.5-0.7-1.2,0.2-1.8l9.2-5.3c0.9-0.5,2.1-0.6,3.1-0.1l9.6,5.6
					c0.8,0.5,0.7,1.2-0.2,1.8l-9.2,5.3C351.5,336.3,350.4,336.3,349.4,335.9z"/>
				<path class="st6" d="M363,343.8l-9.6-5.6c-0.8-0.5-0.7-1.2,0.2-1.8l9.2-5.3c0.9-0.5,2.1-0.6,3.1-0.1l9.6,5.6
					c0.8,0.5,0.7,1.2-0.2,1.8l-9.2,5.3C365.1,344.1,364,344.2,363,343.8z"/>
				<path class="st6" d="M393.5,361.3L367,346c-0.8-0.5-0.7-1.2,0.2-1.8l9.2-5.3c0.9-0.5,2.1-0.6,3.1-0.1l26.5,15.3
					c0.8,0.5,0.7,1.2-0.2,1.8l-9.2,5.3C395.6,361.7,394.4,361.8,393.5,361.3z"/>
				<path class="st6" d="M213.3,257.3l-13.1-7.6c-0.8-0.4-0.7-1.2,0.2-1.8l9.2-5.3c0.9-0.5,2.1-0.6,3.1-0.1l13.1,7.6
					c0.8,0.4,0.7,1.2-0.2,1.8l-9.2,5.3C215.4,257.7,214.3,257.8,213.3,257.3z"/>
				<path class="st6" d="M446.7,330.6L253.5,219c-0.8-0.4-0.7-1.2,0.2-1.8l4.6-2.6c0.9-0.5,2.1-0.6,3.1-0.1L454.6,326
					c0.8,0.5,0.7,1.2-0.2,1.8l-4.6,2.6C448.9,331,447.7,331,446.7,330.6z"/>
				<path class="st1" d="M327,343.2c-0.3,0.6-0.7,1.1-1.3,1.4l-53.2,30.7c-1.8,1-4,1.1-5.9,0.2l-90.9-52.5c-0.4-0.2-0.7-0.6-0.9-1
					c-0.3-0.8,0.1-1.7,1.3-2.4l53.2-30.7c1.8-1,4-1.1,5.9-0.2l90.9,52.5C326.9,341.6,327.3,342.4,327,343.2z"/>
				<path class="st7" d="M327,343.2c-0.3,0.6-0.7,1.1-1.3,1.4l-53.2,30.7c-1.8,1-4,1.1-5.9,0.2l-90.9-52.5c-0.4-0.2-0.7-0.6-0.9-1
					c0.3-0.6,0.7-1.1,1.3-1.3l53.2-30.7c1.8-1,4-1.1,5.9-0.2l90.9,52.5C326.5,342.5,326.8,342.8,327,343.2z"/>
				<path class="st6" d="M461.5,322.1L268.2,210.5c-0.9-0.6-1.4-1.6-1.4-2.7v-2.3c0-1.1,0.6-1.5,1.4-1.1L461.5,316
					c0.9,0.6,1.4,1.6,1.4,2.7v2.3C462.9,322.1,462.2,322.5,461.5,322.1z"/>
				<path class="st8" d="M345.7,103.8l-67-38.7c-0.6-0.5-1-1.2-1-1.9v-4.7c0-0.8,0.5-1.1,1-0.8l67,38.7c0.6,0.5,1,1.2,1,1.9v4.7
					C346.7,103.7,346.3,104.1,345.7,103.8z"/>
				<path class="st8" d="M328.5,104.9L279,76.3c-0.6-0.5-1-1.2-1-2v-2.3c0-0.8,0.4-1.1,1-0.8l49.4,28.5c0.6,0.5,1,1.2,1,2v2.3
					C329.5,104.9,329.1,105.2,328.5,104.9z"/>
				<path class="st8" d="M328.5,113.7L279,85.1c-0.6-0.5-1-1.2-1-2v-2.3c0-0.8,0.4-1.1,1-0.8l49.4,28.6c0.6,0.4,1,1.2,1,1.9v2.3
					C329.5,113.7,329.1,114,328.5,113.7z"/>
				<path class="st9" d="M319.2,117.1L279,94c-0.6-0.4-1-1.2-1-1.9v-2.4c0-0.8,0.4-1.1,1-0.8l40.1,23.2c0.6,0.5,1,1.2,1,2v2.3
					C320.2,117.1,319.7,117.4,319.2,117.1z"/>
				<path class="st8" d="M345.7,196.3l-67-38.7c-0.6-0.5-1-1.2-1-2V151c0-0.8,0.5-1.1,1-0.8l67,38.7c0.6,0.5,1,1.2,1,2v4.7
					C346.7,196.3,346.3,196.6,345.7,196.3z"/>
				<path class="st8" d="M328.5,197.4L279,168.8c-0.6-0.4-1-1.2-1-1.9v-2.3c0-0.8,0.5-1.1,1-0.8l49.5,28.6c0.6,0.5,1,1.2,1,1.9v2.3
					C329.5,197.4,329.1,197.7,328.5,197.4z"/>
				<path class="st8" d="M328.5,206.2L279,177.7c-0.6-0.5-1-1.2-1-1.9v-2.3c0-0.8,0.5-1.1,1-0.8l49.5,28.6c0.6,0.5,1,1.2,1,2v2.3
					C329.5,206.2,329.1,206.5,328.5,206.2z"/>
				<path class="st9" d="M319.2,209.6L279,186.5c-0.6-0.5-1-1.2-1-1.9v-2.3c0-0.8,0.4-1.1,1-0.8l40.1,23.2c0.6,0.5,1,1.2,1,1.9v2.3
					C320.2,209.6,319.7,210,319.2,209.6z"/>
				<path class="st10" d="M363.6,207.8c0,0,7.4,6.2,18-2.3c7.6-6.2,14.4-2.7,18.2-0.5s9.3,3.4,19.7,22.3c2.2,3.7,5.3,6.8,9,9.1
					c5.6,3.2,8.3,1.7,12.7-5s7.3-14,15.4-9.2V289l-93.8-54.2v-27.5L363.6,207.8z"/>
				<path class="st8" d="M343.2,179.4L279,142.4c-0.6-0.5-1-1.2-1-1.9v-37c0-0.8,0.4-1.1,1-0.8l64.2,37.1c0.6,0.5,1,1.2,1,1.9v37
					C344.2,179.4,343.8,179.8,343.2,179.4z"/>
				<polyline class="st11" points="362.9,206.2 362.9,234.9 456.7,289 456.7,222.2 				"/>
				<line class="st11" x1="399.8" y1="205.3" x2="399.8" y2="256.1"/>
				<line class="st11" x1="428.4" y1="237.4" x2="428.4" y2="272.7"/>
				<path class="st12" d="M362.9,207.3c16.6,10.3,19-13,37.1-2.5s15.6,24.1,29,31.8s13.7-22.5,27.7-14.4"/>
				<ellipse transform="matrix(0.866 -0.5 0.5 0.866 -49.0909 227.383)" class="st9" cx="399.8" cy="205.3" rx="1.8" ry="3.1"/>
				
					<ellipse transform="matrix(0.867 -0.4983 0.4983 0.867 -50.2533 257.9391)" class="st9" cx="458.1" cy="223.1" rx="1.8" ry="3.1"/>
				
					<ellipse transform="matrix(0.867 -0.4983 0.4983 0.867 -61.3105 245.7609)" class="st9" cx="429.8" cy="237.7" rx="1.8" ry="3.1"/>
				
					<ellipse transform="matrix(0.867 -0.4983 0.4983 0.867 -55.3203 209.0279)" class="st9" cx="363.9" cy="208.2" rx="1.8" ry="3.1"/>
				<path class="st8" d="M365.5,158l-3.8-2.2c-0.6-0.5-1-1.2-1-1.9v-18.6c0-0.8,0.5-1.1,1-0.8l3.8,2.2c0.6,0.5,1,1.2,1,1.9v18.6
					C366.6,158,366.1,158.4,365.5,158z"/>
				<path class="st9" d="M374.4,163.2l-3.9-2.2c-0.6-0.5-1-1.2-1-1.9v-37.8c0-0.8,0.5-1.1,1-0.8l3.9,2.2c0.6,0.5,1,1.2,1,2v37.7
					C375.4,163.1,375,163.5,374.4,163.2z"/>
				<path class="st8" d="M392.1,173.4l-3.8-2.2c-0.6-0.5-1-1.2-1-1.9v-34.1c0-0.8,0.5-1.1,1-0.8l3.8,2.2c0.6,0.5,1,1.2,1,1.9v34.1
					C393.1,173.4,392.7,173.7,392.1,173.4z"/>
				<path class="st9" d="M400.9,178.5l-3.8-2.2c-0.6-0.5-1-1.2-1-1.9v-28.3c0-0.8,0.5-1.1,1-0.8l3.8,2.2c0.6,0.5,1,1.2,1,1.9v28.3
					C402,178.5,401.5,178.8,400.9,178.5z"/>
				<path class="st8" d="M418.6,188.7l-3.8-2.2c-0.6-0.5-1-1.2-1-2v-14c0-0.8,0.5-1.1,1-0.8l3.8,2.2c0.6,0.5,1,1.2,1,1.9v14
					C419.6,188.7,419.1,189,418.6,188.7z"/>
				<path class="st9" d="M427.4,193.8l-3.9-2.2c-0.6-0.5-1-1.2-1-1.9v-47.5c0-0.8,0.5-1.1,1-0.8l3.9,2.2c0.6,0.5,1,1.2,1,1.9V193
					C428.4,193.8,428,194.1,427.4,193.8z"/>
				<path class="st8" d="M449,206.3l-3.9-2.3c-0.6-0.5-1-1.2-1-1.9v-14c0-0.8,0.5-1.1,1-0.8l3.9,2.2c0.6,0.5,1,1.2,1,1.9v14
					C450,206.2,449.6,206.6,449,206.3z"/>
				<path class="st9" d="M457.9,211.4l-3.9-2.2c-0.6-0.5-1-1.2-1-1.9v-18.6c0-0.8,0.5-1.1,1-0.8l3.9,2.2c0.6,0.5,1,1.2,1,1.9v18.6
					C458.9,211.3,458.4,211.7,457.9,211.4z"/>
			</g>
			<polygon class="st5" points="448.4,486.9 349.4,429.8 485.4,351.2 584.4,408.4 			"/>
			<polygon class="st1" points="584.7,404.5 489,349.2 356.3,425.9 353,424 353,427.7 452,484.9 588,406.4 588,402.6 			"/>
			<polygon class="st13" points="452,481.1 353,424 489,345.5 588,402.6 			"/>
			<polygon class="st8" points="558.7,408.7 479.4,362.9 487.2,358.3 566.6,404.1 			"/>
			<polygon class="st8" points="550.4,413.5 471,367.7 474.9,365.4 554.3,411.2 			"/>
			<polygon class="st8" points="543.9,417.3 464.5,371.4 468.5,369.2 547.8,415 			"/>
			<polygon class="st8" points="537.4,421 458,375.2 462,372.9 541.3,418.7 			"/>
			<polygon class="st8" points="489.8,448.5 410.5,402.6 418.3,398.1 497.7,443.9 			"/>
			<polygon class="st8" points="476,450.2 402.1,407.5 406,405.2 480,447.9 			"/>
			<polygon class="st8" points="468.1,453.1 395.6,411.2 399.5,409 472,450.8 			"/>
			<polygon class="st8" points="450.4,450.3 389.1,415 393.1,412.7 454.3,448.1 			"/>
			<polygon class="st8" points="449.8,405.5 427.6,392.8 449.8,380 471.9,392.8 			"/>
			<polygon class="st8" points="478.4,422 456.2,409.3 478.4,396.5 500.5,409.3 			"/>
			<polygon class="st8" points="507,438.6 484.8,425.8 507,413 529.1,425.8 			"/>
			<polygon class="st14" points="139.1,245 120.4,234.2 139.1,223.3 157.9,234.2 			"/>
			<polygon class="st14" points="168.9,227.6 150.1,216.8 168.9,206 187.7,216.8 			"/>
			<polygon class="st9" points="180,123.8 161.3,113 180,102.2 198.8,113 			"/>
			<polygon class="st9" points="180,221.4 161.3,210.5 161.3,113 180,123.8 			"/>
			<polygon class="st15" points="180,221.4 161.3,210.5 161.3,113 180,123.8 			"/>
			<polygon class="st9" points="198.8,210.5 180,221.4 180,123.8 198.8,113 			"/>
			<polygon class="st16" points="198.8,210.5 180,221.4 180,123.8 198.8,113 			"/>
			<polygon class="st8" points="151.9,172.6 133.1,161.7 151.9,150.9 170.6,161.7 			"/>
			<polygon class="st8" points="151.9,237.5 133.1,226.7 133.1,161.7 151.9,172.6 			"/>
			<polygon class="st15" points="151.9,237.5 133.1,226.7 133.1,161.7 151.9,172.6 			"/>
			<polygon class="st8" points="170.6,226.7 151.9,237.5 151.9,172.6 170.6,161.7 			"/>
			<polygon class="st16" points="170.6,226.7 151.9,237.5 151.9,172.6 170.6,161.7 			"/>
			<polygon class="st14" points="115.1,259.2 96.3,248.4 115.1,237.5 133.9,248.4 			"/>
			<polygon class="st9" points="121.9,224.1 103.1,213.2 121.9,202.4 140.7,213.2 			"/>
			<polygon class="st9" points="121.9,255.1 103.1,244.3 103.1,213.2 121.9,224.1 			"/>
			<polygon class="st15" points="121.9,255.1 103.1,244.3 103.1,213.2 121.9,224.1 			"/>
			<polygon class="st9" points="140.7,244.3 121.9,255.1 121.9,224.1 140.7,213.2 			"/>
			<polygon class="st16" points="140.7,244.3 121.9,255.1 121.9,224.1 140.7,213.2 			"/>
			<g id="Girl_12">
				<path id="_Контур_" class="st17" d="M317.8,1.3c0.9-1.4,7.4-2.3,9.5,3.3c0.8,2.1,0.7,7.5,1.4,10.9s2.3,5.3,2.9,8
					c0.6,2.7-0.4,7.3-7,8.1c-6.6,0.8-11.6-1.5-13.2-3.6s-1.6-6.6,0-9s2.9-4.3,2.8-7.5L317.8,1.3z"/>
				<path id="_Контур_2" class="st17" d="M322.1,0.4c0,0-5-1.4-8,1.2c-2,1.8-2.8,4.7-2.1,7.3c0.4,1.6,1.2,3.7,2.4,3.8
					S322.1,0.4,322.1,0.4z"/>
				<path id="_Контур_3" class="st18" d="M324,13.8c0,0-0.3,5.5-0.2,5.9s2.1,0.8,2.7,1.3c0.6,0.5-3,6.1-4.8,6.9
					c-1.8,0.8-7.4-1.3-7.8-4.1c-0.4-2.6,1.6-4.6,2.4-5.3c0.5,0,1,0,1.5,0l0.2-2.7C320.4,15,324,13.8,324,13.8z"/>
				<path id="_Контур_4" class="st18" d="M307.8,43.1c-1.6,2.1-3.4,4-5.5,5.7c-0.7,0.7-1.3,1.4-1.9,2.2c-1,1.1-2.3,2-3.7,2.4
					c-1.2,0.3-1.8,0.2-2,0c-0.2-0.2-0.1-0.6,0.4-0.8c0.9-0.3,1.7-0.7,2.4-1.3c0,0-1.1,0.5-1.9,0.8c-0.6,0.2-1.3,0.4-2,0.4
					c-0.7,0-1.4-0.8-0.9-1c0.5-0.2,1-0.3,2.1-0.7c0.6-0.2,1.1-0.5,1.6-0.8c-0.7,0.2-1.5,0.4-2.3,0.5c-0.6,0.1-1.3,0-1.9-0.2
					c-0.3-0.1-0.6-0.7,0.1-0.9c0.9-0.1,1.8-0.3,2.7-0.6c0.8-0.4,1.4-0.8,1.2-0.9s-0.7,0.2-1.5,0.1s-1.6-0.6-1.6-1s0.2-0.2,1-0.3
					c0.9-0.2,1.8-0.4,2.6-0.5c0.9,0,1.8-0.1,2.6-0.3c0.9-0.3,2.9-2.7,4.4-4.9c1.7-2.5,3-5.2,3.9-8c0.9-3,2-8.7,2.8-10.7
					s2.1-2.9,3.4-2.9c1.5,0,2.2,1.9,1.8,3.7C315.3,26.1,311.9,37.7,307.8,43.1z"/>
				<path id="_Контур_5" class="st19" d="M324.7,20.2c1.5,0.2,3.3,1.1,3.5,1.9c0.6,3,0.5,6.2-0.4,9.2
					c-1.3,3.5-2.9,9.9-3.6,11.4c-4,0.6-8-0.2-11.5-2.2c0,0-0.3-6.1-0.3-8.2c-5-4.3-0.7-9.7,3.5-13.8c0.5,0,1,0,1.5,0
					c0,0-3.8,4.4-1.1,7C321.8,23.7,322.9,21.2,324.7,20.2z"/>
				<path id="_Контур_6" class="st18" d="M313.7,7L313.7,7c0.6-3.5,3.1-6.2,6.8-6c3.9,0.2,6.8,3.5,6.6,7.4c0,0,0,0,0,0
					c-0.1,2.2-1.3,4.1-3.1,5.4c-0.1,0.5-0.3,1.1-0.6,1.6c-1.3,1.5-4.7,2.4-5.8,2.5c-1,0-1.8-0.9-2.7-2.4
					C312.9,12.2,313.4,8.7,313.7,7z"/>
				<path class="st17" d="M321.6,1.1c2.6,0.5,4.6,1.2,5.3,3.7c0.5,1.7,1.1,5,0.5,6.4l-0.4,1l-3.1,1.6c0,0-1.4-1.2-1-4.7
					c0-0.5-0.2-0.9-0.4-1.3c-0.2-0.3-0.3-0.7-0.4-1.1c-0.4-0.9-1.1-1.7-2-2.2c-2-0.9-4.3-0.8-6.1,0.3C315.3,1.9,318.5,0.4,321.6,1.1
					z"/>
				<path class="st17" d="M307.5,85.5c-1.3,1-3.3,0.3-3.4,0.4c-1.5,1.3-3.1,2.5-4.7,3.6c-0.8,0.6-2.1,1.5-1.8,2.7
					c0.4,2.2,3.9,1.5,5.2,0.8s2.4-1.8,3.6-2.5c0.9-0.6,1.8-0.8,1.9-2C308.4,87.9,307.8,85.5,307.5,85.5z"/>
				<path class="st20" d="M308.3,88.2c-0.2,1.1-1,1.4-1.9,1.9c-1.3,0.8-2.4,1.9-3.7,2.6c-1.3,0.7-4.2,1.2-5.1-0.3
					c0.5,2.1,3.9,1.4,5.2,0.8s2.4-1.8,3.6-2.5c0.9-0.6,1.8-0.8,1.9-2C308.3,88.4,308.3,88.3,308.3,88.2z"/>
				<path class="st17" d="M301.2,82c-1.2,1-3,0.4-3.1,0.5c-1.4,1.2-2.8,2.3-4.3,3.3c-0.7,0.6-1.9,1.4-1.7,2.5c0.4,2,3.6,1.4,4.8,0.8
					c1.2-0.6,2.2-1.6,3.3-2.3c0.8-0.5,1.6-0.8,1.7-1.8C302,83.9,301.7,82.9,301.2,82z"/>
				<path class="st20" d="M302,84.5c-0.2,1-1,1.2-1.8,1.8c-1.1,0.7-2.1,1.7-3.4,2.4c-1.3,0.6-3.9,1.1-4.7-0.3
					c0.4,1.9,3.6,1.3,4.8,0.7c1.2-0.6,2.2-1.6,3.3-2.3c0.8-0.5,1.6-0.8,1.7-1.8C302,84.8,302,84.7,302,84.5z"/>
				<path class="st18" d="M319.1,44.1c-3.5,0.5-7.1,0-10.3-1.5c0.1,1.1,0.1,2.1,0.1,2.1c-4.2,3-12.6,7.9-13.1,11.4
					c0.5,10.9,2.2,26.4,2.7,26.6c1.3,0.6,2.2,0.5,2.9-0.1c0,0,2.6-9.2,1.9-22.7c0,0,14.6-6.5,15.6-10c0.4-1.4,0.6-2.9,0.4-4.4
					C319.2,45,319.2,44.5,319.1,44.1z"/>
				<path class="st18" d="M324,42.7c-2.8,1.2-5.9,1.7-8.9,1.2c0,1.5,0.2,4.2,0.2,4.2c-4.2,2.9-12.6,7.9-13.1,11.4
					c0.5,10.9,1.6,26.6,2,26.8c1.1,0.5,2.5,0.3,3.5-0.4c0,0,2.6-9.1,1.9-22.6c0-0.2,12.6-6.4,14.1-8.1s1.9-4.1,1.9-6.4
					C325.5,46.7,324.9,44.6,324,42.7z"/>
				<path class="st21" d="M327.1,45c0,0,4.6,8.2-3.1,12.5c-8.2,4.5-13.1,5.5-13.1,5.5l-1.2,0.3c0.4,2.8,0.4,5.7,0,8.6
					c0,0-5.8,2-13.3-4.5l-2.5-7.9l-0.3-2.1c-0.3-1.5,0.2-3,1.2-4c1.8-1.6,7.4-5.8,10.9-8.1s6.3-4.6,6.3-4.6l0.6-0.6
					c0,0,4.2,3.3,11.8,2.2C325.5,42.9,326.4,43.9,327.1,45z"/>
				<path id="_Контур_7" class="st18" d="M322.5,57.2c0.7-0.6,1.5-1.2,2.2-1.8c0.8-0.4,1.6-1,2.3-1.6c0.7-0.7,1.8-3.7,2.3-6.6
					c0.5-3.3,0.5-6.6-0.2-9.8c-1-3.9-2.3-7.7-3.9-11.3c-1-2.2-0.4-3.5,0.5-4.5c1.1-1.1,2.3-1.1,3.6,1.9c1.9,4.3,3.2,8.7,4.1,13.3
					c0.5,3.3,0.5,6.7-0.1,10c-0.5,2.9-1.4,5.7-2.7,8.4c-0.3,0.8-0.4,1.5-0.9,3c-0.4,1.6-1.3,3-2.4,4.2c-1,0.9-1.5,1.1-1.8,1
					s-0.3-0.5,0.1-1c0.7-0.7,1.3-1.5,1.7-2.5c0,0-0.9,1.1-1.4,1.7c-0.5,0.6-1.1,1-1.7,1.4c-0.6,0.4-1.6-0.1-1.2-0.6
					c0.4-0.5,0.9-0.8,1.7-1.7c0.4-0.5,0.8-1,1.1-1.6c-0.6,0.6-1.2,1.1-1.9,1.6c-0.5,0.4-1.1,0.7-1.8,0.8c-0.3,0-0.8-0.4-0.2-1
					c0.8-0.6,1.6-1.2,2.2-2c0.6-0.8,0.9-1.4,0.7-1.4c-0.2,0-0.5,0.5-1.3,0.9s-1.7,0.2-1.9-0.2S321.7,57.7,322.5,57.2z"/>
				<path class="st22" d="M331.3,27.7c0,0-2.8,2.5-5.9,2l-1.3-5.2c0,0-0.8-2.8,1.5-3.8C328,19.6,330.3,22.3,331.3,27.7z"/>
				<path class="st22" d="M315.9,18.5c0,0-3-0.9-6.3,5.8l1.2,0.7C312.3,22.7,314,20.5,315.9,18.5z"/>
				<g id="_Группа_">
					<g id="_Группа_2">
						<path id="_Контур_8" class="st19" d="M294.8,47.6l10.9-6.3c0.2-0.1,0.4-0.1,0.6,0l19,11l-11.2,6.5L294.8,47.6z"/>
						<path class="st23" d="M314.5,56.3l0.8,0.5c0.1,0,0.1,0.1,0,0.2l-0.8,0.5c-0.1,0-0.2,0-0.3,0l-0.8-0.5c-0.1,0-0.1-0.1,0-0.2
							l0.8-0.5C314.3,56.3,314.4,56.3,314.5,56.3z"/>
						<path class="st23" d="M313.3,55.6l0.8,0.5c0.1,0,0.1,0.1,0,0.2l-0.8,0.5c-0.1,0-0.2,0-0.3,0l-0.8-0.5c-0.1,0-0.1-0.1,0-0.2
							l0.8-0.5C313.1,55.6,313.2,55.6,313.3,55.6z"/>
						<path class="st23" d="M312.1,55l0.8,0.5c0.1,0,0.1,0.1,0,0.2l-0.8,0.5c-0.1,0-0.2,0-0.3,0l-0.8-0.5c-0.1,0-0.1-0.1,0-0.2
							l0.8-0.5C311.9,55,312,55,312.1,55z"/>
						<path class="st23" d="M310.9,54.3l0.8,0.5c0.1,0,0,0.1,0,0.2l-0.8,0.5c-0.1,0-0.2,0-0.3,0l-0.8-0.5c-0.1,0-0.1-0.1,0-0.2
							l0.8-0.5C310.7,54.2,310.8,54.2,310.9,54.3z"/>
						<path class="st23" d="M309.8,53.6l0.8,0.5c0.1,0,0.1,0.1,0,0.2l-0.8,0.5c-0.1,0-0.2,0-0.3,0l-0.8-0.5c-0.1,0-0.1-0.1,0-0.2
							l0.8-0.5C309.6,53.6,309.7,53.6,309.8,53.6z"/>
						<path class="st23" d="M308.6,52.9l0.8,0.5c0.1,0,0.1,0.1,0,0.2l-0.8,0.5c-0.1,0-0.2,0-0.3,0l-0.8-0.5c-0.1,0-0.1-0.1,0-0.2
							l0.8-0.5C308.4,52.9,308.5,52.9,308.6,52.9z"/>
						<path class="st23" d="M307.4,52.2l0.8,0.5c0.1,0,0.1,0.1,0,0.2l-0.8,0.5c-0.1,0-0.2,0-0.3,0l-0.8-0.5c-0.1,0-0.1-0.1,0-0.2
							l0.8-0.5C307.2,52.2,307.3,52.2,307.4,52.2z"/>
						<path class="st23" d="M306.2,51.6l0.8,0.5c0.1,0,0.1,0.1,0,0.2l-0.8,0.5c-0.1,0-0.2,0-0.3,0l-0.9-0.5c-0.1,0-0.1-0.1,0-0.2
							l0.8-0.5C306,51.5,306.1,51.5,306.2,51.6z"/>
						<path class="st23" d="M305.1,50.9l0.8,0.5c0.1,0,0.1,0.1,0,0.2l-0.8,0.5c-0.1,0-0.2,0-0.3,0l-0.8-0.5c-0.1,0-0.1-0.1,0-0.2
							l0.8-0.5C304.9,50.9,305,50.9,305.1,50.9z"/>
						<path class="st23" d="M303.9,50.2l0.8,0.5c0.1,0,0.1,0.1,0,0.2l-0.8,0.5c-0.1,0-0.2,0-0.3,0l-0.8-0.5c-0.1,0-0.1-0.1,0-0.2
							l0.8-0.5C303.7,50.2,303.8,50.2,303.9,50.2z"/>
						<path class="st23" d="M302.7,49.5l0.8,0.5c0.1,0,0.1,0.1,0,0.2l-0.8,0.5c-0.1,0-0.2,0-0.3,0l-0.8-0.5c-0.1,0-0.1-0.1,0-0.2
							l0.8-0.5C302.5,49.5,302.6,49.5,302.7,49.5z"/>
						<path class="st23" d="M301.5,48.9l0.8,0.5c0.1,0,0.1,0.1,0,0.2l-0.8,0.5c-0.1,0-0.2,0-0.3,0l-0.8-0.5c-0.1,0,0-0.1,0-0.2
							l0.8-0.5C301.3,48.8,301.4,48.8,301.5,48.9z"/>
						<path class="st23" d="M300.4,48.2l0.8,0.5c0.1,0,0,0.1,0,0.2l-0.8,0.5c-0.1,0-0.2,0-0.3,0l-0.8-0.5c-0.1,0-0.1-0.1,0-0.2
							l0.8-0.5C300.2,48.1,300.3,48.1,300.4,48.2z"/>
						<path class="st23" d="M298.6,47.2L300,48c0.1,0,0.1,0.1,0,0.2l-0.8,0.5c-0.1,0-0.2,0-0.3,0l-1.4-0.8c-0.1,0-0.1-0.1,0-0.2
							l0.8-0.5C298.4,47.1,298.5,47.1,298.6,47.2z"/>
						<path class="st23" d="M313.9,54.7l0.8,0.5c0.1,0,0.1,0.1,0,0.2l-0.8,0.5c-0.1,0-0.2,0-0.3,0l-0.8-0.5c-0.1,0-0.1-0.1,0-0.2
							l0.8-0.5C313.7,54.6,313.8,54.6,313.9,54.7z"/>
						<path class="st23" d="M312.7,54l0.8,0.5c0.1,0,0.1,0.1,0,0.2l-0.8,0.5c-0.1,0-0.2,0-0.3,0l-0.8-0.5c-0.1,0-0.1-0.1,0-0.2
							l0.8-0.5C312.5,54,312.6,54,312.7,54z"/>
						<path class="st23" d="M311.5,53.3l0.8,0.5c0.1,0,0.1,0.1,0,0.2l-0.8,0.5c-0.1,0-0.2,0-0.3,0l-0.8-0.5c-0.1,0-0.1-0.1,0-0.2
							l0.8-0.5C311.3,53.3,311.4,53.3,311.5,53.3z"/>
						<path class="st23" d="M310.3,52.6l0.8,0.5c0.1,0,0.1,0.1,0,0.2l-0.8,0.5c-0.1,0-0.2,0-0.3,0l-0.8-0.5c-0.1,0-0.1-0.1,0-0.2
							l0.8-0.5C310.1,52.6,310.2,52.6,310.3,52.6z"/>
						<path class="st23" d="M309.1,52l0.8,0.5c0.1,0,0.1,0.1,0,0.2l-0.8,0.5c-0.1,0-0.2,0-0.3,0l-0.8-0.5c-0.1,0-0.1-0.1,0-0.2
							l0.8-0.5C308.9,52,309,52,309.1,52z"/>
						<path class="st23" d="M308,51.3l0.8,0.5c0.1,0,0.1,0.1,0,0.2l-0.8,0.5c-0.1,0-0.2,0-0.3,0l-0.8-0.5c-0.1,0-0.1-0.1,0-0.2
							l0.8-0.5C307.8,51.2,307.9,51.2,308,51.3z"/>
						<path class="st23" d="M306.8,50.6l0.8,0.5c0.1,0,0.1,0.1,0,0.2l-0.8,0.5c-0.1,0-0.2,0-0.3,0l-0.8-0.5c-0.1,0-0.1-0.1,0-0.2
							l0.8-0.5C306.6,50.5,306.7,50.5,306.8,50.6z"/>
						<path class="st23" d="M305.6,49.9l0.8,0.5c0.1,0,0.1,0.1,0,0.2l-0.8,0.5c-0.1,0-0.2,0-0.3,0l-0.8-0.5c-0.1,0-0.1-0.1,0-0.2
							l0.8-0.5C305.4,49.9,305.5,49.9,305.6,49.9z"/>
						<path class="st23" d="M304.4,49.2l0.8,0.5c0.1,0,0.1,0.1,0,0.2l-0.8,0.5c-0.1,0-0.2,0-0.3,0l-0.8-0.5c-0.1,0-0.1-0.1,0-0.2
							l0.8-0.5C304.3,49.2,304.4,49.2,304.4,49.2z"/>
						<path class="st23" d="M303.3,48.5l0.9,0.5c0.1,0,0.1,0.1,0,0.2l-0.8,0.5c-0.1,0-0.2,0-0.3,0l-0.8-0.5c-0.1,0-0.1-0.1,0-0.2
							l0.8-0.5C303.1,48.5,303.2,48.5,303.3,48.5z"/>
						<path class="st23" d="M302.1,47.9l0.8,0.5c0.1,0,0.1,0.1,0,0.2l-0.8,0.5c-0.1,0-0.2,0-0.3,0l-0.8-0.5c-0.1,0-0.1-0.1,0-0.2
							l0.8-0.5C301.9,47.8,302,47.8,302.1,47.9z"/>
						<path class="st23" d="M300.9,47.2l0.8,0.5c0.1,0,0.1,0.1,0,0.2l-0.8,0.5c-0.1,0-0.2,0-0.3,0l-0.8-0.5c-0.1,0-0.1-0.1,0-0.2
							l0.8-0.5C300.7,47.1,300.8,47.1,300.9,47.2z"/>
						<path class="st23" d="M315,55.3l1.4,0.8c0.1,0,0.1,0.1,0,0.2l-0.8,0.5c-0.1,0-0.2,0-0.3,0l-1.4-0.8c-0.1,0-0.1-0.1,0-0.2
							l0.8-0.5C314.8,55.3,314.9,55.3,315,55.3z"/>
						<path class="st23" d="M298.7,47.1l0.8,0.5c0.1,0,0.2,0,0.2,0l0.8-0.5c0,0,0.1-0.1,0-0.1c0,0,0,0,0,0h-0.1c0,0-0.1-0.1,0-0.1
							c0,0,0,0,0,0l0.9-0.5c0,0,0.1-0.1,0-0.1c0,0,0,0,0,0l-0.5-0.3c-0.1,0-0.2,0-0.2,0l-0.8,0.5l-0.2,0.1l-0.1,0.1l-0.1,0.1
							l-0.7,0.4C298.6,47,298.6,47.1,298.7,47.1z"/>
						<path class="st23" d="M319,53.7l0.8,0.5c0.1,0,0.1,0.1,0,0.2l-0.8,0.5c-0.1,0-0.2,0-0.3,0l-0.8-0.5c-0.1,0-0.1-0.1,0-0.2
							l0.8-0.5C318.8,53.7,318.9,53.7,319,53.7z"/>
						<path class="st23" d="M317.8,53l0.8,0.5c0.1,0,0.1,0.1,0,0.2l-0.8,0.5c-0.1,0-0.2,0-0.3,0l-0.8-0.5c-0.1,0-0.1-0.1,0-0.2
							l0.8-0.5C317.7,53,317.7,53,317.8,53z"/>
						<path class="st23" d="M316.7,52.3l0.8,0.5c0.1,0,0.1,0.1,0,0.2l-0.8,0.5c-0.1,0-0.2,0-0.3,0l-0.8-0.5c-0.1,0,0-0.1,0-0.2
							l0.8-0.5C316.5,52.3,316.6,52.3,316.7,52.3z"/>
						<path class="st23" d="M306.7,46.6l0.8,0.5c0.1,0,0.1,0.1,0,0.2l-0.8,0.5c-0.1,0-0.2,0-0.3,0l-0.8-0.5c-0.1,0-0.1-0.1,0-0.2
							l0.8-0.5C306.5,46.5,306.6,46.5,306.7,46.6z"/>
						<path class="st23" d="M305.5,45.9l0.8,0.5c0.1,0,0.1,0.1,0,0.2l-0.8,0.5c-0.1,0-0.2,0-0.3,0l-0.8-0.5c-0.1,0-0.1-0.1,0-0.2
							l0.8-0.5C305.3,45.9,305.4,45.9,305.5,45.9z"/>
						<path class="st23" d="M304.3,45.2l0.8,0.5c0.1,0,0.1,0.1,0,0.2l-0.8,0.5c-0.1,0-0.2,0-0.3,0l-0.8-0.5c-0.1,0-0.1-0.1,0-0.2
							l0.8-0.5C304.2,45.2,304.2,45.2,304.3,45.2z"/>
						<path class="st23" d="M303.2,44.5L304,45c0.1,0,0.1,0.1,0,0.2l-0.8,0.5c-0.1,0-0.2,0-0.3,0l-0.8-0.5c-0.1,0-0.1-0.1,0-0.2
							l0.8-0.5C303,44.5,303.1,44.5,303.2,44.5z"/>
						<path class="st23" d="M315.2,51.5l1.1,0.7c0.1,0,0.1,0.1,0,0.2l-0.8,0.5c-0.1,0-0.2,0-0.3,0l-1.1-0.6c-0.1,0-0.1-0.1,0-0.2
							l0.8-0.5C315,51.4,315.1,51.4,315.2,51.5z"/>
						<path class="st23" d="M307.9,47.2l1.1,0.7c0.1,0,0.1,0.1,0,0.2l-0.8,0.5c-0.1,0-0.2,0-0.3,0l-1.1-0.7c-0.1,0-0.1-0.1,0-0.2
							l0.8-0.5C307.7,47.2,307.8,47.2,307.9,47.2z"/>
						<path class="st23" d="M309.3,48.1l5.5,3.2c0.1,0,0.1,0.1,0,0.2l-0.8,0.5c-0.1,0-0.2,0-0.3,0l-5.5-3.2c-0.1,0-0.1-0.1,0-0.2
							l0.8-0.5C309.1,48.1,309.2,48.1,309.3,48.1z"/>
						<path class="st23" d="M314.7,53.8l0.8,0.5c0.1,0,0.1,0.1,0,0.2l-0.8,0.5c-0.1,0-0.2,0-0.3,0l-0.8-0.5c-0.1,0-0.1-0.1,0-0.2
							l0.8-0.5C314.5,53.8,314.6,53.8,314.7,53.8z"/>
						<path class="st23" d="M313.5,53.1l0.8,0.5c0.1,0,0.1,0.1,0,0.2l-0.8,0.5c-0.1,0-0.2,0-0.3,0l-0.8-0.5c-0.1,0-0.1-0.1,0-0.2
							l0.8-0.5C313.3,53.1,313.4,53.1,313.5,53.1z"/>
						<path class="st23" d="M312.3,52.5l0.8,0.5c0.1,0,0.1,0.1,0,0.2l-0.8,0.5c-0.1,0-0.2,0-0.3,0l-0.8-0.5c-0.1,0-0.1-0.1,0-0.2
							l0.8-0.5C312.1,52.4,312.2,52.4,312.3,52.5z"/>
						<path class="st23" d="M311.1,51.8l0.8,0.5c0.1,0,0.1,0.1,0,0.2l-0.8,0.5c-0.1,0-0.2,0-0.3,0l-0.8-0.5c-0.1,0-0.1-0.1,0-0.2
							l0.8-0.5C310.9,51.7,311,51.7,311.1,51.8z"/>
						<path class="st23" d="M310,51.1l0.8,0.5c0.1,0,0.1,0.1,0,0.2l-0.8,0.5c-0.1,0-0.2,0-0.3,0l-0.8-0.5c-0.1,0-0.1-0.1,0-0.2
							l0.8-0.5C309.8,51.1,309.9,51.1,310,51.1z"/>
						<path class="st23" d="M308.8,50.4l0.8,0.5c0.1,0,0.1,0.1,0,0.2l-0.8,0.5c-0.1,0-0.2,0-0.3,0l-0.8-0.5c-0.1,0-0.1-0.1,0-0.2
							l0.8-0.5C308.6,50.4,308.7,50.4,308.8,50.4z"/>
						<path class="st23" d="M307.6,49.7l0.8,0.5c0.1,0,0.1,0.1,0,0.2l-0.8,0.5c-0.1,0-0.2,0-0.3,0l-0.8-0.5c-0.1,0-0.1-0.1,0-0.2
							l0.8-0.5C307.5,49.7,307.5,49.7,307.6,49.7z"/>
						<path class="st23" d="M306.5,49.1l0.8,0.5c0.1,0,0.1,0.1,0,0.2l-0.8,0.5c-0.1,0-0.2,0-0.3,0l-0.8-0.5c-0.1,0-0.1-0.1,0-0.2
							l0.8-0.5C306.3,49,306.4,49,306.5,49.1z"/>
						<path class="st23" d="M305.3,48.4l0.8,0.5c0.1,0,0.1,0.1,0,0.2l-0.8,0.5c-0.1,0-0.2,0-0.3,0l-0.8-0.5c-0.1,0-0.1-0.1,0-0.2
							l0.8-0.5C305.1,48.4,305.2,48.4,305.3,48.4z"/>
						<path class="st23" d="M304.1,47.7l0.8,0.5c0.1,0,0.1,0.1,0,0.2l-0.8,0.5c-0.1,0-0.2,0-0.3,0l-0.8-0.5c-0.1,0-0.1-0.1,0-0.2
							l0.8-0.5C303.9,47.7,304,47.7,304.1,47.7z"/>
						<path class="st23" d="M302.9,47l0.8,0.5c0.1,0,0.1,0.1,0,0.2l-0.8,0.5c-0.1,0-0.2,0-0.3,0l-0.8-0.5c-0.1,0-0.1-0.1,0-0.2
							l0.8-0.5C302.7,47,302.8,47,302.9,47z"/>
						<path class="st23" d="M301.8,46.4l0.8,0.5c0.1,0,0.1,0.1,0,0.2l-0.8,0.5c-0.1,0-0.2,0-0.3,0l-0.8-0.5c-0.1,0,0-0.1,0-0.2
							l0.8-0.5C301.6,46.3,301.7,46.3,301.8,46.4z"/>
						<path class="st23" d="M315.8,54.5l1.7,1c0.1,0,0.1,0.1,0,0.2l-0.8,0.5c-0.1,0-0.2,0-0.3,0l-1.7-1c-0.1,0-0.1-0.1,0-0.2
							l0.8-0.5C315.7,54.5,315.8,54.5,315.8,54.5z"/>
						<path class="st23" d="M316.4,53.5l0.8,0.5c0.1,0,0.1,0.1,0,0.2l-0.8,0.5c-0.1,0-0.2,0-0.3,0l-0.8-0.5c-0.1,0-0.1-0.1,0-0.2
							l0.8-0.5C316.2,53.5,316.3,53.5,316.4,53.5z"/>
						<path class="st23" d="M315.2,52.8l0.8,0.5c0.1,0,0,0.1,0,0.2l-0.8,0.5c-0.1,0-0.2,0-0.3,0l-0.8-0.5c-0.1,0-0.1-0.1,0-0.2
							l0.8-0.5C315,52.8,315.1,52.8,315.2,52.8z"/>
						<path class="st23" d="M314,52.1l0.8,0.5c0.1,0,0.1,0.1,0,0.2l-0.8,0.5c-0.1,0-0.2,0-0.3,0l-0.8-0.5c-0.1,0-0.1-0.1,0-0.2
							l0.8-0.5C313.9,52.1,314,52.1,314,52.1z"/>
						<path class="st23" d="M312.9,51.5l0.8,0.5c0.1,0,0.1,0.1,0,0.2l-0.8,0.5c-0.1,0-0.2,0-0.3,0l-0.8-0.5c-0.1,0-0.1-0.1,0-0.2
							l0.8-0.5C312.7,51.4,312.8,51.4,312.9,51.5z"/>
						<path class="st23" d="M311.7,50.8l0.8,0.5c0.1,0,0.1,0.1,0,0.2l-0.8,0.5c-0.1,0-0.2,0-0.3,0l-0.8-0.5c-0.1,0-0.1-0.1,0-0.2
							l0.8-0.5C311.5,50.7,311.6,50.7,311.7,50.8z"/>
						<path class="st23" d="M310.5,50.1l0.8,0.5c0.1,0,0.1,0.1,0,0.2l-0.8,0.5c-0.1,0-0.2,0-0.3,0l-0.8-0.5c-0.1,0-0.1-0.1,0-0.2
							l0.8-0.5C310.3,50.1,310.4,50.1,310.5,50.1z"/>
						<path class="st23" d="M309.3,49.4l0.8,0.5c0.1,0,0.1,0.1,0,0.2l-0.8,0.5c-0.1,0-0.2,0-0.3,0l-0.8-0.5c-0.1,0-0.1-0.1,0-0.2
							l0.8-0.5C309.2,49.4,309.3,49.4,309.3,49.4z"/>
						<path class="st23" d="M308.2,48.7l0.8,0.5c0.1,0,0.1,0.1,0,0.2l-0.8,0.5c-0.1,0-0.2,0-0.3,0l-0.8-0.5c-0.1,0-0.1-0.1,0-0.2
							l0.8-0.5C308,48.7,308.1,48.7,308.2,48.7z"/>
						<path class="st23" d="M307,48.1l0.8,0.5c0.1,0,0.1,0.1,0,0.2l-0.8,0.5c-0.1,0-0.2,0-0.3,0l-0.8-0.5c-0.1,0-0.1-0.1,0-0.2
							l0.8-0.5C306.8,48,306.9,48,307,48.1z"/>
						<path class="st23" d="M305.8,47.4l0.8,0.5c0.1,0,0.1,0.1,0,0.2l-0.8,0.5c-0.1,0-0.2,0-0.3,0l-0.8-0.5c-0.1,0-0.1-0.1,0-0.2
							l0.8-0.5C305.6,47.4,305.7,47.4,305.8,47.4z"/>
						<path class="st23" d="M304.7,46.7l0.8,0.5c0.1,0,0.1,0.1,0,0.2l-0.8,0.5c-0.1,0-0.2,0-0.3,0l-0.8-0.5c-0.1,0-0.1-0.1,0-0.2
							l0.8-0.5C304.5,46.7,304.6,46.7,304.7,46.7z"/>
						<path class="st23" d="M302,45.2l2.3,1.3c0.1,0,0.1,0.1,0,0.2l-0.8,0.5c-0.1,0-0.2,0-0.3,0l-2.3-1.3c-0.1,0-0.1-0.1,0-0.2
							l0.8-0.5C301.9,45.2,301.9,45.2,302,45.2z"/>
						<path class="st23" d="M317.6,54.2l1.1,0.7c0.1,0,0,0.1,0,0.2l-0.8,0.5c-0.1,0-0.2,0-0.3,0l-1.1-0.7c-0.1,0-0.1-0.1,0-0.2
							l0.8-0.5C317.4,54.1,317.5,54.1,317.6,54.2z"/>
						<path class="st23" d="M297.4,47.9l16.7,9.6c0.1,0,0.1,0.1,0,0.2l-0.4,0.2c-0.1,0-0.2,0-0.3,0l-16.7-9.6c-0.1,0,0-0.1,0-0.2
							l0.4-0.2C297.3,47.8,297.3,47.8,297.4,47.9z"/>
						<polygon id="_Контур_9" class="st24" points="317.2,48.5 317,48.5 314.2,50.2 309.1,47.3 309,47.2 311.9,45.5 						"/>
						<polygon id="_Контур_10" class="st25" points="317,48.5 314.2,50.2 309.1,47.3 311.9,45.6 						"/>
						<path id="_Контур_11" class="st25" d="M325.3,52.4v0.2c0,0.4-0.2,0.7-0.5,0.9l-10.1,5.8c-0.3,0.2-0.7,0.2-1,0
							l-18.4-10.6c-0.3-0.2-0.5-0.5-0.5-0.9v-0.2l19.4,11.2L325.3,52.4z"/>
						<path id="_Контур_12" class="st25" d="M314.2,58.8v0.7c-0.2,0-0.4,0-0.5-0.1l-18.3-10.6c-0.3-0.2-0.5-0.5-0.5-0.9v-0.2
							L314.2,58.8z"/>
						<path id="_Контур_13" class="st19" d="M313.9,59c-0.4,0.1-0.7,0.1-1.1-0.1l-18.2-10.6c-0.3-0.2-0.5-0.5-0.6-0.9l-2-11.9
							c0-0.1,0-0.1,0-0.2c0-0.3,0.1-0.6,0.4-0.9l18.9,10.9c0.2,0.1,0.4,0.4,0.5,0.6L313.9,59z"/>
						<path id="_Контур_14" class="st25" d="M314.2,58.8l-0.1,0.1l-0.2,0.1l-2.2-12.9c0-0.3-0.2-0.5-0.4-0.6l-18.9-10.9
							c0.1-0.1,0.2-0.1,0.2-0.2l19,11c0.2,0.1,0.4,0.4,0.4,0.7L314.2,58.8z"/>
					</g>
				</g>
			</g>
			<g id="Men_11">
				<path id="_Контур_15" class="st18" d="M153.7,145.1c1.4,2.6,3.2,4.9,5.2,7.1c0.6,0.6,4.9-1,4-1.5s-3.7-4.4-5.1-7
					c-1.2-3.1-2.2-6.4-3-9.6c-0.9-3.2-1.6-7.9-2.3-10.2c-0.3-1.7-1.6-3-3.3-3.4c-1.6-0.4-2.6,0.1-2.3,1.9
					C147.3,125.8,149.8,138.7,153.7,145.1z"/>
				<path class="st26" d="M151.2,195.3c1.3,1.1,3.3,0.1,3.4,0.2c1.6,1.5,3.2,2.8,4.9,4.1c0.8,0.6,2.1,1.5,1.9,2.8
					c-0.4,2.3-4,1.6-5.4,0.9c-1.4-0.7-2.5-1.8-3.8-2.6c-0.9-0.6-1.8-0.9-2-2C150.2,198,150.9,195.3,151.2,195.3z"/>
				<path class="st27" d="M150.3,198.2c0.2,1.1,1.1,1.4,2,2c1.3,0.8,2.5,2,3.8,2.7c1.4,0.7,4.4,1.3,5.3-0.3c-0.5,2.2-4,1.5-5.4,0.8
					s-2.5-1.8-3.8-2.6c-0.9-0.6-1.8-0.9-2-2C150.3,198.5,150.3,198.4,150.3,198.2z"/>
				<path class="st26" d="M164.8,187.5c1.3,1.1,3.7-0.1,3.8,0c1.4,1.4,2.9,2.8,4.4,4c0.8,0.7,2.1,1.5,1.9,2.8
					c-0.4,2.3-4,1.6-5.4,0.9s-2.5-1.8-3.8-2.6c-0.9-0.6-1.8-0.9-2-2C163.8,189.5,164.1,188.4,164.8,187.5z"/>
				<path class="st27" d="M163.8,190.2c0.2,1.1,1.1,1.4,2,2c1.3,0.8,2.5,2,3.8,2.7s4.4,1.3,5.3-0.3c-0.5,2.2-4,1.5-5.4,0.8
					c-1.4-0.7-2.5-1.8-3.8-2.6c-0.9-0.6-1.8-0.9-2-2C163.7,190.5,163.7,190.4,163.8,190.2z"/>
				<path id="_Контур_16" class="st9" d="M133.3,152.4c-1.5,9.3,2.6,12.7,8,14.7c3.8,1.4,9.4,3.6,9.4,3.6s-0.1,2-0.1,6.6
					c0,4,0.5,18.7,0.5,18.7c1.3,0.7,2.8,0.7,4.1,0c0,0,2.2-11.2,2.6-16.3c0.6-6.9,1.7-11.4,1.3-12.9c-0.3-1.3-7.8-5-10.2-7l15.8,5.3
					c-0.3,1.7-0.5,3.4-0.5,5.2c0.1,5.4,0.4,17.3,0.4,17.3s2.2,1.6,4,0c0,0,4-23.4,3.5-26.5c-0.5-2.9-14.3-8.9-16.8-11
					c-0.9-0.7-2-1-3.1-0.8L133.3,152.4z"/>
				<g id="_Группа_3">
					<g id="_Группа_4">
						<path id="_Контур_17" class="st19" d="M171,156.3l-10.6-6.1c-0.2-0.1-0.4-0.1-0.6,0l-18.6,10.7l10.9,6.3L171,156.3z"/>
						<path class="st23" d="M151.7,165l-0.8,0.5c-0.1,0-0.1,0.1,0,0.1l0.8,0.4c0.1,0,0.2,0,0.3,0l0.8-0.5c0.1,0,0.1-0.1,0-0.1
							l-0.8-0.4C151.9,165,151.8,165,151.7,165z"/>
						<path class="st23" d="M152.8,164.3l-0.8,0.5c-0.1,0,0,0.1,0,0.1l0.8,0.4c0.1,0,0.2,0,0.3,0l0.8-0.5c0.1,0,0.1-0.1,0-0.1
							l-0.8-0.4C153,164.3,152.9,164.3,152.8,164.3z"/>
						<path class="st23" d="M154,163.6l-0.8,0.5c-0.1,0-0.1,0.1,0,0.1l0.8,0.4c0.1,0,0.2,0,0.2,0l0.8-0.5c0.1,0,0.1-0.1,0-0.1
							l-0.8-0.4C154.1,163.6,154.1,163.6,154,163.6z"/>
						<path class="st23" d="M155.1,163l-0.8,0.5c-0.1,0-0.1,0.1,0,0.1l0.8,0.4c0.1,0,0.2,0,0.3,0l0.8-0.5c0.1,0,0-0.1,0-0.1
							l-0.8-0.4C155.3,162.9,155.2,162.9,155.1,163z"/>
						<path class="st23" d="M156.2,162.3l-0.8,0.5c-0.1,0-0.1,0.1,0,0.1l0.8,0.4c0.1,0,0.2,0,0.2,0l0.8-0.5c0.1,0,0.1-0.1,0-0.1
							l-0.8-0.4C156.4,162.3,156.3,162.3,156.2,162.3z"/>
						<path class="st23" d="M157.4,161.7l-0.8,0.5c-0.1,0-0.1,0.1,0,0.1l0.8,0.4c0.1,0,0.2,0,0.2,0l0.8-0.5c0.1,0,0.1-0.1,0-0.1
							l-0.8-0.4C157.6,161.6,157.5,161.6,157.4,161.7z"/>
						<path class="st23" d="M158.5,161l-0.8,0.5c-0.1,0-0.1,0.1,0,0.1l0.8,0.4c0.1,0,0.2,0,0.3,0l0.8-0.5c0.1,0,0.1-0.1,0-0.1
							l-0.8-0.4C158.7,161,158.6,161,158.5,161z"/>
						<path class="st23" d="M159.7,160.3l-0.8,0.5c-0.1,0-0.1,0.1,0,0.1l0.8,0.4c0.1,0,0.2,0,0.3,0l0.8-0.5c0.1,0,0.1-0.1,0-0.1
							l-0.8-0.4C159.8,160.3,159.8,160.3,159.7,160.3z"/>
						<path class="st23" d="M160.8,159.7l-0.8,0.5c-0.1,0,0,0.1,0,0.1l0.8,0.4c0.1,0,0.2,0,0.3,0l0.8-0.5c0.1,0,0-0.1,0-0.1
							l-0.8-0.4C161,159.6,160.9,159.6,160.8,159.7z"/>
						<path class="st23" d="M162,159l-0.8,0.5c-0.1,0-0.1,0.1,0,0.1l0.8,0.4c0.1,0,0.2,0,0.3,0l0.8-0.5c0.1,0,0-0.1,0-0.1l-0.8-0.4
							C162.1,159,162,159,162,159z"/>
						<path class="st23" d="M163.1,158.4l-0.8,0.5c-0.1,0-0.1,0.1,0,0.1l0.8,0.4c0.1,0,0.2,0,0.2,0l0.8-0.4c0.1,0,0.1-0.1,0-0.1
							l-0.8-0.4C163.3,158.4,163.2,158.3,163.1,158.4z"/>
						<path class="st23" d="M164.2,157.7l-0.8,0.5c-0.1,0-0.1,0.1,0,0.1l0.8,0.4c0.1,0,0.2,0,0.2,0l0.8-0.5c0.1,0,0.1-0.1,0-0.1
							l-0.8-0.4C164.4,157.7,164.3,157.7,164.2,157.7z"/>
						<path class="st23" d="M165.4,157l-0.8,0.5c-0.1,0-0.1,0.1,0,0.1l0.8,0.4c0.1,0,0.2,0,0.2,0l0.8-0.5c0.1,0,0.1-0.1,0-0.1
							l-0.8-0.4C165.6,157,165.5,157,165.4,157z"/>
						<path class="st23" d="M167.1,156.1l-1.4,0.8c-0.1,0-0.1,0.1,0,0.1l0.8,0.4c0.1,0,0.2,0,0.3,0l1.4-0.8c0.1,0,0.1-0.1,0-0.1
							l-0.8-0.4C167.3,156,167.2,156,167.1,156.1z"/>
						<path class="st23" d="M152.3,163.3l-0.8,0.5c-0.1,0-0.1,0.1,0,0.1l0.8,0.4c0.1,0,0.2,0,0.2,0l0.8-0.5c0.1,0,0.1-0.1,0-0.1
							l-0.8-0.4C152.4,163.3,152.3,163.3,152.3,163.3z"/>
						<path class="st23" d="M153.4,162.7l-0.8,0.5c-0.1,0-0.1,0.1,0,0.1l0.8,0.4c0.1,0,0.2,0,0.3,0l0.8-0.5c0.1,0,0.1-0.1,0-0.1
							l-0.8-0.4C153.6,162.6,153.5,162.6,153.4,162.7z"/>
						<path class="st23" d="M154.6,162l-0.8,0.5c-0.1,0-0.1,0.1,0,0.1l0.8,0.4c0.1,0,0.2,0,0.3,0l0.8-0.5c0.1,0,0-0.1,0-0.1
							l-0.8-0.4C154.7,162,154.6,162,154.6,162z"/>
						<path class="st23" d="M155.7,161.4l-0.8,0.5c-0.1,0-0.1,0.1,0,0.1l0.8,0.4c0.1,0,0.2,0,0.2,0l0.8-0.5c0.1,0,0.1-0.1,0-0.1
							l-0.8-0.4C155.9,161.3,155.8,161.3,155.7,161.4z"/>
						<path class="st23" d="M156.8,160.7l-0.8,0.5c-0.1,0,0,0.1,0,0.1l0.8,0.4c0.1,0,0.2,0,0.3,0l0.8-0.5c0.1,0,0.1-0.1,0-0.1
							l-0.8-0.4C157,160.7,156.9,160.7,156.8,160.7z"/>
						<path class="st23" d="M158,160l-0.8,0.5c-0.1,0-0.1,0.1,0,0.1l0.8,0.4c0.1,0,0.2,0,0.3,0l0.8-0.5c0.1,0,0.1-0.1,0-0.1
							l-0.8-0.4C158.1,160,158.1,160,158,160z"/>
						<path class="st23" d="M159.1,159.4l-0.8,0.5c-0.1,0-0.1,0.1,0,0.1l0.8,0.4c0.1,0,0.2,0,0.2,0l0.8-0.5c0.1,0,0.1-0.1,0-0.1
							l-0.8-0.4C159.3,159.3,159.2,159.3,159.1,159.4z"/>
						<path class="st23" d="M160.3,158.7l-0.8,0.5c-0.1,0,0,0.1,0,0.1l0.8,0.4c0.1,0,0.2,0,0.3,0l0.8-0.5c0.1,0,0.1-0.1,0-0.1
							l-0.8-0.4C160.4,158.7,160.3,158.7,160.3,158.7z"/>
						<path class="st23" d="M161.4,158.1l-0.8,0.5c-0.1,0-0.1,0.1,0,0.1l0.8,0.4c0.1,0,0.2,0,0.2,0l0.8-0.5c0.1,0,0.1-0.1,0-0.1
							l-0.8-0.4C161.6,158,161.5,158,161.4,158.1z"/>
						<path class="st23" d="M162.6,157.4l-0.8,0.5c-0.1,0-0.1,0.1,0,0.1l0.8,0.4c0.1,0,0.2,0,0.3,0l0.8-0.5c0.1,0,0.1-0.1,0-0.1
							l-0.8-0.4C162.7,157.4,162.6,157.4,162.6,157.4z"/>
						<path class="st23" d="M163.7,156.7l-0.8,0.5c-0.1,0,0,0.1,0,0.1l0.8,0.4c0.1,0,0.2,0,0.3,0l0.8-0.5c0.1,0,0.1-0.1,0-0.1
							l-0.8-0.4C163.9,156.7,163.8,156.7,163.7,156.7z"/>
						<path class="st23" d="M164.8,156.1l-0.8,0.5c-0.1,0-0.1,0.1,0,0.1l0.8,0.4c0.1,0,0.2,0,0.2,0l0.8-0.5c0.1,0,0.1-0.1,0-0.1
							l-0.8-0.4C165,156,164.9,156,164.8,156.1z"/>
						<path class="st23" d="M151.1,164l-1.4,0.8c-0.1,0,0,0.1,0,0.1l0.8,0.4c0.1,0,0.2,0,0.3,0l1.4-0.8c0.1,0,0-0.1,0-0.1l-0.8-0.4
							C151.3,164,151.2,164,151.1,164z"/>
						<path class="st23" d="M167,156l-0.8,0.5c-0.1,0-0.2,0-0.2,0l-0.9-0.5c0,0-0.1-0.1,0-0.1c0,0,0,0,0,0h0.1c0.1,0,0.1-0.1,0-0.1
							l-0.9-0.5c-0.1,0-0.1-0.1,0-0.1l0.5-0.3c0.1,0,0.2,0,0.2,0l0.8,0.5l0.2,0.1l0.1,0.1l0.1,0.1L167,156
							C167.1,155.9,167.1,156,167,156z"/>
						<path class="st23" d="M147.3,162.4l-0.8,0.5c-0.1,0-0.1,0.1,0,0.1l0.8,0.4c0.1,0,0.2,0,0.2,0l0.8-0.5c0.1,0,0.1-0.1,0-0.1
							l-0.8-0.4C147.4,162.3,147.3,162.4,147.3,162.4z"/>
						<path class="st23" d="M148.4,161.7l-0.8,0.5c-0.1,0-0.1,0.1,0,0.1l0.8,0.4c0.1,0,0.2,0,0.2,0l0.8-0.5c0.1,0,0.1-0.1,0-0.1
							l-0.8-0.4C148.6,161.7,148.5,161.7,148.4,161.7z"/>
						<path class="st23" d="M149.5,161.1l-0.8,0.5c-0.1,0-0.1,0.1,0,0.1l0.8,0.4c0.1,0,0.2,0,0.3,0l0.8-0.5c0.1,0,0.1-0.1,0-0.1
							l-0.8-0.4C149.7,161,149.6,161,149.5,161.1z"/>
						<path class="st23" d="M159.2,155.5l-0.8,0.5c-0.1,0-0.1,0.1,0,0.1l0.8,0.4c0.1,0,0.2,0,0.3,0l0.8-0.5c0.1,0,0.1-0.1,0-0.1
							l-0.8-0.4C159.4,155.4,159.3,155.4,159.2,155.5z"/>
						<path class="st23" d="M160.4,154.8l-0.8,0.5c-0.1,0-0.1,0.1,0,0.1l0.8,0.4c0.1,0,0.2,0,0.2,0l0.8-0.5c0.1,0,0.1-0.1,0-0.1
							l-0.8-0.4C160.5,154.8,160.4,154.8,160.4,154.8z"/>
						<path class="st23" d="M161.5,154.2l-0.8,0.5c-0.1,0-0.1,0.1,0,0.1l0.8,0.4c0.1,0,0.2,0,0.2,0l0.8-0.5c0.1,0,0.1-0.1,0-0.1
							l-0.8-0.4C161.7,154.1,161.6,154.1,161.5,154.2z"/>
						<path class="st23" d="M162.6,153.5l-0.8,0.5c-0.1,0-0.1,0.1,0,0.1l0.8,0.4c0.1,0,0.2,0,0.3,0l0.8-0.5c0.1,0,0-0.1,0-0.1
							l-0.8-0.4C162.8,153.5,162.7,153.5,162.6,153.5z"/>
						<path class="st23" d="M151,160.3l-1.1,0.6c-0.1,0,0,0.1,0,0.1l0.8,0.4c0.1,0,0.2,0,0.3,0l1.1-0.6c0.1,0,0.1-0.1,0-0.1
							l-0.8-0.4C151.1,160.2,151,160.2,151,160.3z"/>
						<path class="st23" d="M158.1,156.1l-1.1,0.6c-0.1,0-0.1,0.1,0,0.1l0.8,0.4c0.1,0,0.2,0,0.2,0l1.1-0.6c0.1,0,0.1-0.1,0-0.1
							l-0.8-0.4C158.3,156.1,158.2,156.1,158.1,156.1z"/>
						<path class="st23" d="M156.7,157l-5.4,3.1c-0.1,0-0.1,0.1,0,0.1l0.8,0.4c0.1,0,0.2,0,0.3,0l5.4-3.1c0.1,0,0.1-0.1,0-0.1
							l-0.8-0.4C156.8,157,156.7,157,156.7,157z"/>
						<path class="st23" d="M151.5,162.5l-0.8,0.5c-0.1,0-0.1,0.1,0,0.1l0.8,0.4c0.1,0,0.2,0,0.3,0l0.8-0.5c0.1,0,0.1-0.1,0-0.1
							l-0.8-0.4C151.6,162.5,151.6,162.5,151.5,162.5z"/>
						<path class="st23" d="M152.6,161.9l-0.8,0.5c-0.1,0-0.1,0.1,0,0.1l0.8,0.4c0.1,0,0.2,0,0.3,0l0.8-0.5c0.1,0,0.1-0.1,0-0.1
							l-0.8-0.4C152.8,161.8,152.7,161.8,152.6,161.9z"/>
						<path class="st23" d="M153.8,161.2l-0.8,0.5c-0.1,0,0,0.1,0,0.1l0.8,0.4c0.1,0,0.2,0,0.3,0l0.8-0.5c0.1,0,0.1-0.1,0-0.1
							l-0.8-0.4C153.9,161.2,153.8,161.2,153.8,161.2z"/>
						<path class="st23" d="M154.9,160.5l-0.8,0.5c-0.1,0,0,0.1,0,0.1l0.8,0.4c0.1,0,0.2,0,0.3,0l0.8-0.5c0.1,0,0.1-0.1,0-0.1
							l-0.8-0.4C155.1,160.5,155,160.5,154.9,160.5z"/>
						<path class="st23" d="M156,159.9l-0.8,0.5c-0.1,0,0,0.1,0,0.1l0.8,0.4c0.1,0,0.2,0,0.3,0l0.8-0.5c0.1,0,0.1-0.1,0-0.1
							l-0.8-0.4C156.2,159.8,156.1,159.8,156,159.9z"/>
						<path class="st23" d="M157.2,159.2l-0.8,0.5c-0.1,0,0,0.1,0,0.1l0.8,0.4c0.1,0,0.2,0,0.3,0l0.8-0.5c0.1,0,0.1-0.1,0-0.1
							l-0.8-0.4C157.3,159.2,157.3,159.2,157.2,159.2z"/>
						<path class="st23" d="M158.3,158.6l-0.8,0.5c-0.1,0,0,0.1,0,0.1l0.8,0.4c0.1,0,0.2,0,0.3,0l0.8-0.5c0.1,0,0-0.1,0-0.1
							l-0.8-0.4C158.5,158.5,158.4,158.5,158.3,158.6z"/>
						<path class="st23" d="M159.5,157.9l-0.8,0.5c-0.1,0-0.1,0.1,0,0.1l0.8,0.4c0.1,0,0.2,0,0.3,0l0.8-0.5c0.1,0,0-0.1,0-0.1
							l-0.8-0.4C159.6,157.9,159.5,157.9,159.5,157.9z"/>
						<path class="st23" d="M160.6,157.2l-0.8,0.5c-0.1,0,0,0.1,0,0.1l0.8,0.4c0.1,0,0.2,0,0.3,0l0.8-0.5c0.1,0,0-0.1,0-0.1
							l-0.8-0.4C160.8,157.2,160.7,157.2,160.6,157.2z"/>
						<path class="st23" d="M161.7,156.6l-0.8,0.5c-0.1,0-0.1,0.1,0,0.1l0.8,0.4c0.1,0,0.2,0,0.3,0l0.8-0.5c0.1,0,0-0.1,0-0.1
							l-0.8-0.4C161.9,156.6,161.8,156.6,161.7,156.6z"/>
						<path class="st23" d="M162.9,155.9l-0.8,0.5c-0.1,0-0.1,0.1,0,0.1l0.8,0.4c0.1,0,0.2,0,0.3,0l0.8-0.5c0.1,0,0-0.1,0-0.1
							l-0.8-0.4C163,155.9,163,155.9,162.9,155.9z"/>
						<path class="st23" d="M164,155.3l-0.8,0.5c-0.1,0-0.1,0.1,0,0.1l0.8,0.4c0.1,0,0.2,0,0.3,0l0.8-0.5c0.1,0,0-0.1,0-0.1
							l-0.8-0.4C164.2,155.2,164.1,155.2,164,155.3z"/>
						<path class="st23" d="M150.3,163.2l-1.7,1c-0.1,0-0.1,0.1,0,0.1l0.8,0.4c0.1,0,0.2,0,0.3,0l1.7-1c0.1,0,0.1-0.1,0-0.1
							l-0.8-0.4C150.5,163.1,150.4,163.1,150.3,163.2z"/>
						<path class="st23" d="M149.8,162.2l-0.8,0.5c-0.1,0-0.1,0.1,0,0.1l0.8,0.4c0.1,0,0.2,0,0.2,0l0.8-0.5c0.1,0,0.1-0.1,0-0.1
							l-0.8-0.4C150,162.2,149.9,162.2,149.8,162.2z"/>
						<path class="st23" d="M150.9,161.5l-0.8,0.4c-0.1,0-0.1,0.1,0,0.1l0.8,0.4c0.1,0,0.2,0,0.2,0l0.8-0.5c0.1,0,0.1-0.1,0-0.1
							l-0.8-0.4C151.1,161.5,151,161.5,150.9,161.5z"/>
						<path class="st23" d="M152.1,160.9l-0.8,0.5c-0.1,0-0.1,0.1,0,0.1l0.8,0.5c0.1,0,0.2,0,0.2,0l0.8-0.5c0.1,0,0.1-0.1,0-0.1
							l-0.8-0.4C152.3,160.9,152.2,160.9,152.1,160.9z"/>
						<path class="st23" d="M153.2,160.2l-0.8,0.5c-0.1,0-0.1,0.1,0,0.1l0.8,0.4c0.1,0,0.2,0,0.2,0l0.8-0.5c0.1,0,0.1-0.1,0-0.1
							l-0.8-0.4C153.4,160.2,153.3,160.2,153.2,160.2z"/>
						<path class="st23" d="M154.4,159.6l-0.8,0.5c-0.1,0-0.1,0.1,0,0.1l0.8,0.4c0.1,0,0.2,0,0.2,0l0.8-0.5c0.1,0,0.1-0.1,0-0.1
							l-0.8-0.4C154.5,159.5,154.4,159.5,154.4,159.6z"/>
						<path class="st23" d="M155.5,158.9l-0.8,0.5c-0.1,0-0.1,0.1,0,0.1l0.8,0.4c0.1,0,0.2,0,0.2,0l0.8-0.5c0.1,0,0.1-0.1,0-0.1
							l-0.8-0.4C155.7,158.9,155.6,158.9,155.5,158.9z"/>
						<path class="st23" d="M156.6,158.3l-0.8,0.5c-0.1,0-0.1,0.1,0,0.1l0.8,0.4c0.1,0,0.2,0,0.3,0l0.8-0.5c0.1,0,0.1-0.1,0-0.1
							l-0.8-0.4C156.8,158.2,156.7,158.2,156.6,158.3z"/>
						<path class="st23" d="M157.8,157.6l-0.8,0.5c-0.1,0-0.1,0.1,0,0.1l0.8,0.4c0.1,0,0.2,0,0.3,0l0.8-0.5c0.1,0,0.1-0.1,0-0.1
							l-0.8-0.4C158,157.6,157.9,157.6,157.8,157.6z"/>
						<path class="st23" d="M158.9,156.9l-0.8,0.5c-0.1,0-0.1,0.1,0,0.1l0.8,0.4c0.1,0,0.2,0,0.3,0l0.8-0.5c0.1,0,0.1-0.1,0-0.1
							l-0.8-0.4C159.1,156.9,159,156.9,158.9,156.9z"/>
						<path class="st23" d="M160.1,156.3l-0.8,0.5c-0.1,0-0.1,0.1,0,0.1l0.8,0.4c0.1,0,0.2,0,0.3,0l0.8-0.5c0.1,0,0.1-0.1,0-0.1
							l-0.8-0.4C160.3,156.2,160.2,156.2,160.1,156.3z"/>
						<path class="st23" d="M161.2,155.6l-0.8,0.5c-0.1,0-0.1,0.1,0,0.1l0.8,0.4c0.1,0,0.2,0,0.3,0l0.8-0.5c0.1,0,0.1-0.1,0-0.1
							l-0.8-0.4C161.4,155.6,161.3,155.6,161.2,155.6z"/>
						<path class="st23" d="M163.8,154.1l-2.2,1.3c-0.1,0-0.1,0.1,0,0.1l0.8,0.4c0.1,0,0.2,0,0.3,0l2.2-1.3c0.1,0,0.1-0.1,0-0.1
							l-0.8-0.4C163.9,154.1,163.8,154.1,163.8,154.1z"/>
						<path class="st23" d="M148.7,162.9l-1.1,0.6c-0.1,0-0.1,0.1,0,0.1l0.8,0.4c0.1,0,0.2,0,0.3,0l1.1-0.6c0.1,0,0.1-0.1,0-0.1
							l-0.8-0.4C148.8,162.8,148.7,162.8,148.7,162.9z"/>
						<path class="st23" d="M168.2,156.7l-16.2,9.4c-0.1,0-0.1,0.1,0,0.1l0.4,0.2c0.1,0,0.2,0,0.3,0l16.2-9.4c0.1,0,0.1-0.1,0-0.1
							l-0.4-0.2C168.4,156.7,168.3,156.7,168.2,156.7z"/>
						<polygon id="_Контур_18" class="st24" points="149.3,157.1 149.4,157.2 152.2,158.8 157.1,155.9 157.3,155.9 
							154.3,154.2 						"/>
						<polygon id="_Контур_19" class="st25" points="149.4,157.2 152.2,158.8 157.1,155.9 154.3,154.3 						"/>
						<path id="_Контур_20" class="st25" d="M141.3,160.9v0.2c0,0.4,0.2,0.7,0.5,0.9l9.9,5.7c0.2,0.1,0.3,0.1,0.5,0.1
							c0.2,0,0.4,0,0.5-0.1l17.8-10.3c0.3-0.2,0.5-0.5,0.5-0.9v-0.2l-18.9,10.9L141.3,160.9z"/>
						<path id="_Контур_21" class="st19" d="M152.5,167.3c0.3,0.1,0.7,0.1,1-0.1l17.8-10.3c0.3-0.2,0.5-0.5,0.6-0.8l2-11.6
							c0-0.1,0-0.1,0-0.2c0-0.3-0.1-0.6-0.4-0.9L155,154.2c-0.2,0.1-0.4,0.4-0.4,0.6L152.5,167.3z"/>
						<path id="_Контур_22" class="st25" d="M152.2,167.2l0.1,0.1l0.2,0.1l2.1-12.6c0-0.3,0.2-0.5,0.4-0.6l18.5-10.7
							c-0.1-0.1-0.2-0.1-0.2-0.2L154.7,154c-0.2,0.1-0.4,0.4-0.4,0.6L152.2,167.2z"/>
					</g>
				</g>
				<path id="_Контур_23" class="st18" d="M138.8,117.6c0,0,0.2,4.4,0.1,4.8c-0.1,0.4-2,1.7-2.6,2.2s3.1,4,4.8,4.8
					c1.8,0.8,7.3-1.3,7.4-4c0.1-2.7-1-5-1.8-5.2C145.9,120,138.8,117.6,138.8,117.6z"/>
				<path id="_Контур_24" class="st19" d="M138.3,123.1c0,0,3.2,4.8,7.7,5.2c1.4-1.4,1.5-6.3-0.4-7.9c0,0,1.8-1.4,3-1.2
					c1.3,0.8,2.3,2,2.8,3.5c1.1,3.3,1.7,6.7,1.6,10.2c-0.1,4.7,0,16.5,0,16.5c-0.5,2.8-2.2,5.3-4.7,6.8c-3.2,1.8-7,2.3-10.6,1.5
					c-1.8-0.4-3.3-1.7-3.9-3.4c0.2-3.3,1.5-10,1-14.2c-0.5-4.2-1.4-7.2-1.7-10.5c-0.2-3.3,0.4-3.3,2.1-4.5
					C136.1,124.4,137.2,123.7,138.3,123.1z"/>
				<path id="_Контур_25" class="st18" d="M143.4,161.2c-0.8-0.5-1.6-1-2.5-1.4c-0.8-0.3-1.5-0.7-2.1-1.3
					c-0.8-0.8-2.1-3.7-3-6.5c-0.9-3.2-1.3-6.5-1.1-9.9c0.4-4,1.8-9.6,2.2-11.8s-0.4-3.2-1.4-4c-1.2-1-3-0.6-3.9,2.7
					c-1.2,4.4-1.8,9-2,13.6c0,3.4,0.5,6.8,1.5,10c1,2.8,2.2,5.4,3.8,7.9c0.4,0.7,0.6,1.4,1.2,2.9c0.6,1.5,1.7,2.9,2.9,3.9
					c1.1,0.8,1.7,0.9,1.9,0.8c0.3-0.1,0.3-0.6-0.2-1c-0.8-0.6-1.5-1.4-2-2.2c0,0,1,1,1.6,1.5c0.6,0.5,1.2,0.9,1.9,1.2
					c0.7,0.3,1.6-0.3,1.1-0.7s-0.9-0.7-1.9-1.5c-0.5-0.4-1-0.9-1.4-1.4c0.7,0.5,1.4,1,2.1,1.4c0.6,0.3,1.2,0.5,1.9,0.5
					c0.4,0,0.8-0.5,0.1-1c-0.9-0.5-1.7-1-2.4-1.7c-0.7-0.7-1.1-1.3-0.9-1.3s0.6,0.4,1.4,0.7c0.8,0.3,1.7,0,1.8-0.4
					S144.2,161.6,143.4,161.2z"/>
				<path id="_Контур_26" class="st18" d="M148.8,111L148.8,111c-0.5-3.4-3-6-6.5-5.8c-3.8,0.2-6.6,3.4-6.4,7.2c0,0,0,0,0,0
					c0.1,2.1,1.2,4,3,5.2c0.1,0.5,0.3,1,0.5,1.5c1.2,1.5,5,2.4,6.1,2.2c1.3-0.1,2.4-1,2.8-2.3C149.4,116.3,149,112.7,148.8,111z"/>
				<path class="st23" d="M138.8,117.6L138.8,117.6l0.3-3c0,0-2.4-6.3,3.3-5.1c3.8,0.8,4.8,1.1,5.9-1.4c1.2-2.6-2.9-4.9-7.8-4.2
					c-3.5,0.4-6.1,3.3-6,6.8C134.7,112.5,135.2,116.3,138.8,117.6z"/>
				<path class="st22" d="M128.9,134.7c0,0,3.1,3.1,6.9,2.2c0.5-0.4,1.8-7.7,1.8-7.7s0-4.1-3.1-4S128.9,134.7,128.9,134.7z"/>
				<path class="st22" d="M152.7,128.6c0.9,0,1.7-0.4,2.3-1c-0.1-1.6-2.2-7.9-6.5-8.3c1.2,0.8,2.1,1.9,2.6,3.2
					C151.8,124.5,152.3,126.6,152.7,128.6z"/>
			</g>
			<g id="Girl_8">
				<ellipse class="st5" cx="552" cy="360.2" rx="22.7" ry="13.1"/>
				<path id="_Контур_27" class="st23" d="M551,237.7c0.9-1.5,7.9-2.4,10.2,3.5c0.9,2.2,0.7,7.9,1.5,11.5
					c0.7,3.6,2.4,5.6,3,8.5s-0.4,7.8-7.4,8.6s-12.4-1.6-14.1-3.8c-1.7-2.2-1.7-7,0-9.5c1.7-2.5,3-4.6,3-8L551,237.7z"/>
				<path class="st18" d="M542.6,262.3c0,0-1.6,11.7,1.5,19.9s2.2-2.1,2.2-2.1l-0.8-2.5c0,0-0.6-9.5-0.4-11.8s0.2-4.3,0.4-4.5
					s-0.6-0.6-0.9-0.6S542.6,262.3,542.6,262.3z"/>
				<path id="_Контур_28" class="st23" d="M555.6,236.7c0,0-5.2-1.5-8.4,1.3c-2.1,2-3,5-2.2,7.8c0.4,1.6,1.3,3.9,2.6,4
					S555.6,236.7,555.6,236.7z"/>
				<path id="_Контур_29" class="st18" d="M557.6,251c0,0-0.3,5.8-0.2,6.3s2.3,0.8,2.9,1.4s-3.2,6.4-5.1,7.3s-7.9-1.4-8.3-4.3
					c-0.4-2.7,1.7-4.8,2.5-5.6c0.5,0,1.1,0,1.6,0l0.2-2.8C553.8,252.2,557.6,251,557.6,251z"/>
				<path id="_Контур_30" class="st19" d="M558.4,257.8c1.6,0.3,3.5,1.1,3.8,2c0.7,3.2,0.5,6.6-0.5,9.7
					c-1.4,3.8-2.4,6.1-3.2,7.8c0,0-7.1,3-12.8-0.5c0,0-0.4-4-0.4-6.2c-5.3-4.6-0.8-10.3,3.7-14.7c0.5,0,1.1,0,1.6,0
					c0,0-4,4.7-1.2,7.4C555.3,261.5,556.5,258.8,558.4,257.8z"/>
				<path id="_Контур_31" class="st18" d="M546.7,243.7L546.7,243.7c0.6-3.8,3.3-6.6,7.2-6.4c4.1,0.2,7.3,3.7,7.1,7.8
					c-0.1,2.4-1.4,4.6-3.3,5.9c-0.1,0.6-0.3,1.1-0.6,1.6c-1.4,1.6-5,2.6-6.2,2.6c-1,0-1.9-0.9-2.9-2.6
					C545.8,249.3,546.3,245.6,546.7,243.7z"/>
				<path class="st23" d="M555,237.4c2.7,0.5,4.9,1.3,5.7,3.9c0.5,1.8,1.2,5.3,0.5,6.8l-0.4,1.1l-3.3,1.7c0,0-1.5-1.3-1-5
					c0-0.5-0.2-1-0.5-1.4c-0.2-0.4-0.4-0.7-0.5-1.1c-0.4-1-1.1-1.8-2.1-2.3c-2.5-1.4-6-0.2-6.5,0.3
					C548.3,238.4,551.7,236.7,555,237.4z"/>
				<path id="_Контур_32" class="st18" d="M562.3,285c0.6-3.8,1.8-6.3,1.2-8.4c-1.2-4.2-2.7-8.3-4.6-12.3
					c-1.2-2.4-0.8-4,0.4-4.9c1.4-1,2.7-0.6,4,2c1.6,3.3,3.4,6.7,4.2,11.6c0.6,3.2,0.5,6.4-0.1,9.6c-0.5,3.4-1.6,5.3-2.9,8.5
					C564.2,292,561.8,288.2,562.3,285z"/>
				<path class="st26" d="M559.9,355.8c-1.4,1.1-3.5,0.3-3.6,0.4c-1.6,1.4-3.3,2.7-5,3.8c-0.9,0.7-2.2,1.6-2,2.9
					c0.4,2.3,4.1,1.6,5.5,0.9c1.4-0.7,2.5-1.9,3.8-2.7c1-0.6,1.9-0.9,2-2.1C560.9,358.4,560.2,355.8,559.9,355.8z"/>
				<path class="st27" d="M560.7,358.6c-0.2,1.1-1.1,1.5-2,2c-1.3,0.8-2.5,2-3.9,2.7s-4.5,1.3-5.4-0.4c0.5,2.2,4.1,1.5,5.5,0.8
					s2.5-1.9,3.8-2.7c1-0.6,1.9-0.9,2-2.1C560.8,358.9,560.8,358.8,560.7,358.6z"/>
				<path class="st26" d="M550.3,353.9c-1.2,1-3.2,0.5-3.2,0.5c-1.5,1.3-3,2.4-4.6,3.5c-0.8,0.6-2,1.4-1.8,2.6
					c0.4,2.1,3.8,1.5,5.1,0.8c1.3-0.6,2.3-1.7,3.5-2.5c0.9-0.5,1.7-0.8,1.9-1.9C551.2,356.4,550.5,353.9,550.3,353.9z"/>
				<path class="st27" d="M551.1,356.6c-0.2,1-1,1.3-1.9,1.9c-1.2,0.8-2.3,1.9-3.6,2.5c-1.3,0.7-4.1,1.2-5-0.3c0.5,2,3.8,1.4,5,0.8
					c1.2-0.6,2.3-1.7,3.5-2.5c0.9-0.5,1.7-0.8,1.8-1.9C551.1,356.9,551.1,356.7,551.1,356.6z"/>
				<path class="st18" d="M542.9,290.1c0.6-4.7,2.3-11.6,2.3-11.6c1.6,0.8,3.4,1.2,5.2,1.3c2.7,0,5.3-0.3,7.9-0.8
					c0.9,1.5,1.8,2.9,2.8,4.3c1.4,1.9,4,6,3.4,13.3c-0.4,4.7-3.1,24.8-3.1,24.8c1,3.4,1.6,6.9,1.6,10.4c-0.2,4.2-0.8,8.4-1.7,12.5
					l-1.6,11.4c0,0-2.1,1.5-3.6,0.4l0.2-11.2c-0.2-2.7-0.5-6.8-0.6-9.3c-0.3-4.2-1-10.9-1.2-12.5s-0.8-4.6-1-7.8s-1.5-19.8-1.5-19.8
					l-0.2,3.1c0,0-0.2,5-0.9,11.2c-0.7,6.2-1,9-1,9c0.7,1.2,1.2,2.6,1.4,4c0.1,1.3,1.7,12,0.7,17.4l-1.9,13.7
					c-1,0.7-2.2,0.8-3.2,0.4l-1.1-13.8c-0.7-5.3-2.3-16.4-2.5-17.9c-0.5-2.9-0.8-5.9-0.9-8.9C542.2,307.9,542.3,294.8,542.9,290.1z"
					/>
				<path class="st9" d="M558.5,277.3l4.1,8.2c0,0,6.2,9.1-0.2,32.5l1.2,7.2c0,0-12.2,7.8-20.3,0c0,0-2.8-21.6-1.3-31.6
					c0.8-5.7,2.1-11.4,3.8-16.9c0,0,2,2.2,12.3,0.8"/>
				<path class="st22" d="M565.8,266c0,0-2.8,2.8-6.2,2.5L558,263c0,0-1-2.9,1.4-4.1C561.8,257.6,564.4,260.4,565.8,266z"/>
				<path class="st22" d="M548.9,255.9c0,0-3.2-1-6.7,6.2l1.3,0.8C545.2,260.4,547,258.1,548.9,255.9z"/>
			</g>
			<g id="Girl_4">
				<ellipse class="st5" cx="181.5" cy="486.9" rx="22.7" ry="13.1"/>
				<path id="_Контур_33" class="st18" d="M194.6,386.2c2,0.6,3.1,2.8,4.9,7.5c1.4,4.3,2.2,8.7,2.1,13.2
					c-0.6,4.4-2.4,7.9-6.8,11.4l-2.1-3.9c0,0,4.3-3.8,4.8-8.2c0.2-2.5-2.7-10.8-2.7-11.1S194.6,386.2,194.6,386.2z"/>
				<path class="st26" d="M177.3,488.1c-1.3,0.4-2.8,0.2-4-0.5c-1.1,0-7.4-2.5-8.2-0.4c-0.7,1.9,1.9,3.6,3.2,3.9
					c3,0.7,5.2,2.2,6.4,2.4c0.9,0.3,1.9,0.2,2.7-0.4C178.2,492.3,178.1,489.2,177.3,488.1z"/>
				<path class="st27" d="M174.6,493c-1.2-0.2-3.4-1.7-6.4-2.5c-1.1-0.3-3.1-1.5-3.3-3c-0.3,1.7,2,3.2,3.3,3.5
					c3,0.7,5.2,2.2,6.4,2.4c0.9,0.3,1.9,0.2,2.7-0.4c0.2-0.2,0.3-0.4,0.4-0.7C176.8,493.1,175.7,493.3,174.6,493z"/>
				<path class="st26" d="M193.4,479.7c-1.2,0.4-2.5,0.2-3.5-0.5c-1,0-7.5-2.4-8.3-0.4c-0.7,1.8,1.8,3.4,3.1,3.7
					c2.9,0.7,5,2.1,6.1,2.4c0.9,0.3,1.9,0.2,2.6-0.4C194.3,483.8,194.2,480.8,193.4,479.7z"/>
				<path class="st27" d="M190.8,484.4c-1.1-0.2-3.3-1.7-6.1-2.4c-1.1-0.3-3-1.5-3.2-2.9c-0.2,1.6,2,3.1,3.2,3.4
					c2.9,0.7,5,2.1,6.1,2.4c0.9,0.3,1.9,0.2,2.6-0.4c0.2-0.2,0.3-0.4,0.4-0.7C193,484.5,191.8,484.7,190.8,484.4z"/>
				<path id="_Контур_34" class="st18" d="M195.5,463.6c0-2.4-0.4-4.9-1.2-7.1c0,0,0.8-9.8,1.4-16.2c0.9-9.5,2.4-10.4,2-16.2
					c-0.4-5.3-3.4-8.8-4.2-12.4l-15.5,1.2c0,0-1.3,4.4-3.1,13.1c-1.7,8.7-1.9,19.1-1.7,32.9c0,3.5-0.6,6.6-0.4,15.5
					c0.1,5.9,0.5,13.2,0.5,13.2c2.3,1.9,3.8,0.5,3.8,0.5s4-17.6,4.6-21.6c0.4-2.2,0.2-4.5-0.5-6.7c0,0,1.2-5.5,2-9.9
					c1-5.3,3.6-16.8,3.6-16.8s-0.4,17.6,0.3,21.1c0.8,3.5,0.9,6.5,1.6,11.2c0.8,5.7,1.1,14,1.1,14c2.4,1.5,3.4,0.4,3.4,0.4
					S195.5,468.6,195.5,463.6z"/>
				<path class="st9" d="M193.5,411.6c1.6,1.7,4.3,6.7,4.3,14.4c0,8.6-1.2,6.9-1.9,16.3l-0.6,9.5c0,0-12.9,6.2-22.2,0.5
					c-0.8-1.8,0.3-21.7,1.9-28.8c1.6-7.1,2.7-10.5,2.7-10.5S189.7,416.1,193.5,411.6z"/>
				<path id="_Контур_35" class="st18" d="M193.7,386.1c-3.3-0.2-3.6,0.4-3.9-0.8c-0.1-0.4-0.3-3.3-0.3-3.3
					c0.3-0.4,0.6-0.8,0.8-1.2c2.2-1.4,3.7-3.7,4-6.3c0.5-4.6-2.9-8.8-7.5-9.3c-4.4-0.5-7.6,2.6-8.4,6.8c-0.5,2.1-0.9,6.3,0.4,9.7
					c0.7,1.9,1.4,3.3,3.1,3.2c0.6-0.1,1.2-0.2,1.7-0.3c0.1,0.8,0.1,1.6,0.1,2.4c0,0.9,0.1,1.3-1.6,2.3c-1.7,1,2.5,3.1,5.2,2.9
					c2.7-0.2,5.8-1.8,6.6-3.6C194.9,386.7,195.2,386.2,193.7,386.1z"/>
				<path class="st22" d="M196.1,400.8c0,0,3.7-0.8,5.4-2.5c0,0-2.2-7-3.6-8.7s-2.8,9.5-2.8,9.5L196.1,400.8z"/>
				<path id="_Контур_36" class="st19" d="M190.4,386.1c0.6,0.8,0.7,1.7-1.7,2.3c-1.7,0.5-3.5,0.3-5.2-0.4
					c-1.9,0.8-3.6,1.7-5.3,2.8c-2,6.6-0.4,7.5-1.2,12.2c0.3,2.4,0.7,8.5,0.8,9.9c4.5,3.1,13.6,2.1,15.6-1.3c0-1.1,0.1-2.2,0.3-3.3
					c2.1-7.9,3.8-10,3.2-16c-0.3-3.4-0.6-5.1-2.4-6.1C193.2,386,191.8,386,190.4,386.1z"/>
				<path id="_Контур_37" class="st18" d="M149.2,411.9c1,0.2,2,0.5,3,0.9c0.9,0.5,1.9,0.8,2.9,1c1.1,0.2,2.8-0.4,5.8-1.8
					c3.3-1.7,6.2-3.9,8.7-6.5c2.8-3.4,5.4-7,7.6-10.9c1.3-2.4,2.9-2.9,4.3-2.5c1.7,0.6,1.9,2.2,0,5.4c-2.4,4.1-5.4,8-8.7,11.4
					c-2.6,2.6-5.7,4.8-9.1,6.4c-2.4,1.2-5,2.1-7.6,2.6c-0.9,0.2-1.6,0.6-3.3,1.2c-1.7,0.6-3.5,0.8-5.4,0.6c-1.5-0.3-2-0.6-2.1-1
					s0.2-0.6,0.9-0.6c1.1,0.2,2.2,0.1,3.3-0.1c0,0-1.5,0-2.4-0.2c-0.8-0.1-1.6-0.3-2.4-0.6c-0.7-0.3-1-1.5-0.3-1.4s1.2,0.3,2.6,0.4
					c0.7,0.1,1.4,0.1,2.2,0c-0.9-0.1-1.8-0.4-2.6-0.7c-0.7-0.2-1.4-0.6-1.9-1.1c-0.2-0.3-0.2-1,0.7-0.8c1,0.4,2.1,0.6,3.2,0.7
					c1.1,0,1.9-0.1,1.8-0.3s-0.8-0.1-1.6-0.6s-1.3-1.4-1-1.8S148.3,411.5,149.2,411.9z"/>
				<path class="st22" d="M179.8,401.3c-2.6-0.4-5-1.6-6.8-3.5l4.1-5.7c0,0,2.3-2.9,5.4-1.3c0,0,2.3,0.2,0,5.1
					C181.7,397.8,180.8,399.6,179.8,401.3z"/>
				<path class="st23" d="M177.6,369.5c0.3-2.1,2.3-3.5,4.3-3.2c1.4-1,3.2-1.4,4.9-1.2c3.9,0.4,6.5,3,7.7,6.9c0.6,2,1,4,1.2,6
					c1.2,8.8,4.4,15.7,1.4,18.3s-11.1,4.2-14.5,2.6c-3.4-1.6,2.8-16.7-3.9-25.1C177,371.9,176.9,370.5,177.6,369.5z"/>
			</g>
			<g id="Men_13">
				<ellipse class="st5" cx="118.8" cy="454.9" rx="22.7" ry="13.1"/>
				<path class="st17" d="M108.1,451.6c1.6,1.3,3.8,0.1,3.9,0.2c1.8,1.7,3.7,3.3,5.7,4.8c1,0.8,2.5,1.8,2.2,3.2
					c-0.5,2.6-4.7,1.8-6.2,1c-1.6-0.8-2.9-2.1-4.4-3c-1.1-0.7-2.1-1-2.3-2.3C107,454.6,107.8,451.6,108.1,451.6z"/>
				<path class="st20" d="M107.1,454.9c0.2,1.3,1.2,1.6,2.3,2.3c1.5,0.9,2.8,2.3,4.4,3.1s5.1,1.5,6.1-0.4c-0.6,2.5-4.7,1.7-6.2,0.9
					c-1.6-0.8-2.9-2.1-4.3-3c-1.1-0.7-2.1-1-2.3-2.3C107.1,455.3,107.1,455.1,107.1,454.9z"/>
				<path class="st17" d="M121.5,446.6c1.5,1.3,4.2-0.1,4.4,0c1.6,1.6,3.3,3.2,5.1,4.6c1,0.8,2.5,1.8,2.2,3.2
					c-0.5,2.6-4.7,1.8-6.2,1s-2.9-2.1-4.3-3c-1.1-0.7-2.1-1-2.3-2.3C120.2,449.3,121.2,446.6,121.5,446.6z"/>
				<path class="st20" d="M120.3,449.7c0.2,1.3,1.2,1.6,2.3,2.3c1.5,0.9,2.8,2.3,4.4,3.1c1.6,0.8,5.1,1.5,6.1-0.4
					c-0.6,2.5-4.7,1.7-6.2,0.9s-2.8-2.1-4.3-3c-1.1-0.7-2.1-1-2.3-2.3C120.3,450.1,120.3,449.9,120.3,449.7z"/>
				<path id="_Контур_38" class="st21" d="M108,394.5c0.1,2.3,0.8,12.5,1.1,17.9c0.3,5.4,0.4,12,0.4,12s-0.9,3.9-1.5,8.5
					s0,19.1,0,19.1c1.2,0.8,2.8,0.8,4,0c0,0,2.5-11.6,3.6-16.9s1.3-8.3,1.9-11.5c0.7-3.9,2.3-22.3,2.3-22.3h0.6l1.7,20.7
					c-0.5,1.5-0.9,3.1-1,4.7c-0.5,3.4,0.5,20.3,0.5,20.3c1.3,0.7,3,0.7,4.3-0.2c0,0,4.1-22.5,4.1-25.9c0-2.3-0.4-32.1-0.4-32.1
					L108,394.5z"/>
				<path id="_Контур_39" class="st18" d="M113.6,349.4c0,0,0.3,5.1,0.2,5.5s-2.3,1.9-3,2.5c-0.7,0.5,3.5,4.6,5.6,5.6
					s8.5-1.5,8.6-4.7s-1.1-5.8-2.1-6C121.8,352.2,113.6,349.4,113.6,349.4z"/>
				<path class="st18" d="M127.6,358.8c0.3-2.2-1.2-4.4,0.2-6.2c5,4.9,4.4,18,5.5,26.4c3.7,3.9,11.2,7.8,13.4,8.7
					c0.4,0.2,0.7,0.4,0.6,0.8c-0.3,1.4-0.9,2.7-1.8,3.8c-5-2.1-8.5-3.4-14.8-9.3c-0.6-0.6-1.1-1.3-1.6-2.1
					C127.5,375.6,127,362.7,127.6,358.8z"/>
				<path id="_Контур_40" class="st19" d="M113,355.8c0,0,3.7,5.5,8.9,6c1.6-1.6,1.8-7.3-0.5-9.1c0,0,2.1-1.7,3.5-1.4
					c1.5,0.9,2.7,2.4,3.2,4.1c1.3,3.8,1.9,7.8,1.8,11.8c-0.1,5.4,0,21.9,0,21.9s-0.7,3.5-5.4,6.1c-4.7,2.6-8.1,2.9-11.3,2.1
					c-2.6-0.6-4.8-1.5-5.7-3.4c0.2-3.8,1.9-13.7,1.3-18.5c-0.6-4.8-1.6-8.3-1.9-12.2c-0.3-3.9,0.5-3.8,2.4-5.1
					C110.5,357.3,111.8,356.5,113,355.8z"/>
				<path id="_Контур_41" class="st18" d="M125.1,341.8L125.1,341.8c-0.6-4-3.5-7-7.5-6.7c-4.3,0.2-7.7,3.9-7.4,8.3
					c0.1,2.4,1.4,4.7,3.4,6.1c0.1,0.6,0.4,1.2,0.6,1.7c1.4,1.7,5.8,2.7,7.1,2.5c1.5-0.1,2.8-1.2,3.3-2.6
					C125.9,347.9,125.5,343.7,125.1,341.8z"/>
				<path class="st17" d="M113.6,349.4L113.6,349.4l0.4-3.5c0,0-2.9-7.3,3.8-5.9c4.4,0.9,5.5,1.3,6.8-1.6c1.3-2.9-3.4-5.6-9-4.9
					c-4,0.4-7,3.8-6.9,7.9C108.9,343.5,109.5,347.9,113.6,349.4z"/>
				<path class="st18" d="M105.8,361c1.9-0.5,0.5-0.1,1.9-0.5c5,4.9,4.4,13.4,5.5,21.7c2.8,4.6,13.1,10.8,13.1,10.8
					c0.1,0.9-0.2,1.1-1.3,3c-5.7-2.2-11-5.6-15.3-9.9c-0.2-0.2-0.6-0.3-0.7-0.6C107.2,380.1,105.3,364.9,105.8,361z"/>
				<polygon class="st19" points="151.7,371.3 144.2,396.9 127.7,403.5 133.7,378.5 				"/>
				<path class="st18" d="M123.8,393.2c0.2-0.9,0.9-0.7,1.6-0.4c0.8,0.3,1.6,0.4,2.4,0.2c0.6-0.3,1.2-0.7,1.7-1.2
					c0.3-0.2,0.7-0.3,1.1-0.3c0,0.2-0.4,1.5-0.4,1.5s3.6,0,4,0c0.3-0.1,0.6,0.2,0.7,0.5c0,0.2,0,0.4-0.1,0.5h0.2
					c0.7-0.2,1,1,0.3,1.1l-0.6,0.1c0.5,0.2,0.6,1,0,1.1h-0.2c-0.1,0-0.2,0-0.3,0h-0.2c0.1,0.3-0.1,0.7-0.5,0.8c0,0,0,0-0.1,0
					c-1.8,0.2-4.4,0.9-5.9-0.5c-1.1-0.1-2.2-0.4-3.2-0.9C123.5,395.2,123.5,394.2,123.8,393.2z"/>
				<path class="st18" d="M141.7,391.1h0.2c-0.3-0.2-0.3-0.6-0.1-0.8c0.1-0.2,0.3-0.3,0.5-0.3c0.4,0,4.1-0.8,4.1-0.8l0.4-1.5
					c0-0.1,0.6,0.3,0.7,0.3c0.6,0.4,1.1,1.1,1.1,1.9c0,1.1-0.3,2.1-1.1,2.9c-0.7,0.7-1.5,1-2.5,1.1c-0.4,0-0.9,0-1.3,0.1
					c-0.4,0-0.7-0.3-0.7-0.6c0,0,0,0,0,0H143c-0.1,0-0.2,0-0.3,0h-0.2c-0.6,0-0.7-0.8-0.2-1.1h-0.6
					C140.9,392.3,141,391.1,141.7,391.1z"/>
				<path class="st22" d="M129.7,362.1c1,0,2-0.5,2.7-1.2c-0.1-1.9-2.6-9.1-7.4-9.6c1.3,0.9,2.3,2.2,3,3.7
					C128.7,357.3,129.2,359.7,129.7,362.1z"/>
				<path class="st22" d="M104.9,371.6c0,0,4.8,1.7,8.3-1.1c0.4-0.6-2-8.9-2-8.9s-2-4.2-5.2-2.5S104.9,371.6,104.9,371.6z"/>
			</g>
			<g id="Men_12">
				<path id="_Контур_42" class="st18" d="M400.4,86.4c-1.6,2.8-3.5,5.4-5.7,7.8c-0.6,0.7-5.4-1.1-4.4-1.6s4.1-4.8,5.6-7.7
					c1.3-3.4,2.4-7,3.3-10.5c1-3.5,1.8-8.7,2.5-11.2c0.4-1.8,1.8-3.3,3.6-3.7c1.7-0.4,2.8,0.1,2.5,2.1
					C407.4,65.2,404.6,79.3,400.4,86.4z"/>
				<path class="st26" d="M403.1,141.5c-1.5,1.2-3.6,0.1-3.7,0.2c-1.7,1.6-3.5,3.1-5.4,4.5c-0.9,0.7-2.3,1.7-2.1,3.1
					c0.5,2.5,4.4,1.7,5.9,1s2.7-2,4.1-2.9c1-0.6,2-0.9,2.2-2.2C404.2,144.4,403.4,141.5,403.1,141.5z"/>
				<path class="st27" d="M404.1,144.6c-0.2,1.2-1.2,1.6-2.2,2.2c-1.4,0.9-2.7,2.2-4.2,2.9s-4.8,1.4-5.8-0.4
					c0.5,2.4,4.4,1.6,5.9,0.9s2.7-2,4.1-2.9c1-0.6,2-0.9,2.2-2.2C404.1,145,404.1,144.8,404.1,144.6z"/>
				<path class="st26" d="M388.2,133c-1.5,1.2-4-0.1-4.1,0c-1.5,1.5-3.1,3-4.8,4.4c-0.9,0.7-2.4,1.7-2.1,3.1c0.5,2.5,4.4,1.7,5.9,1
					s2.7-2,4.1-2.9c1-0.6,2-0.9,2.2-2.2C389.5,135.5,388.5,132.9,388.2,133z"/>
				<path class="st27" d="M389.3,135.9c-0.2,1.2-1.2,1.6-2.2,2.2c-1.4,0.9-2.7,2.2-4.2,2.9s-4.8,1.4-5.8-0.4
					c0.5,2.4,4.4,1.6,5.9,0.9s2.7-2,4.1-2.9c1-0.6,2-0.9,2.2-2.2C389.4,136.2,389.4,136.1,389.3,135.9z"/>
				<path id="_Контур_43" class="st9" d="M422.8,94.4c1.6,10.2-2.9,14-8.8,16.1c-4.2,1.6-10.3,3.9-10.3,3.9s0.1,2.2,0.1,7.2
					c0,4.4-0.5,20.5-0.5,20.5c-1.4,0.7-3.1,0.7-4.5-0.1c0,0-2.4-12.3-2.9-17.9c-0.7-7.6-1.8-12.5-1.5-14.1c0.3-1.4,8.6-5.5,11.2-7.7
					l-17.3,5.8c0.3,1.9,0.5,3.8,0.5,5.7c-0.2,6-0.5,18.9-0.5,18.9s-2.4,1.7-4.4,0c0,0-4.4-25.7-3.8-29c0.5-3.2,15.7-9.8,18.4-12.1
					c0.9-0.8,2.2-1.1,3.4-0.9L422.8,94.4z"/>
				<g id="_Группа_5">
					<g id="_Группа_6">
						<path id="_Контур_44" class="st19" d="M381.3,98.7L393,92c0.2-0.1,0.5-0.1,0.7,0l20.4,11.8l-11.9,6.9L381.3,98.7z"/>
						<path class="st23" d="M402.6,108.2l0.9,0.5c0.1,0,0.1,0.1,0,0.2l-0.9,0.5c-0.1,0.1-0.2,0.1-0.3,0l-0.9-0.5
							c-0.1,0-0.1-0.1,0-0.2l0.8-0.5C402.4,108.1,402.5,108.1,402.6,108.2z"/>
						<path class="st23" d="M401.3,107.4l0.9,0.5c0.1,0,0.1,0.1,0,0.2l-0.8,0.5c-0.1,0-0.2,0-0.3,0l-0.9-0.5c-0.1,0-0.1-0.1,0-0.2
							l0.9-0.5C401.1,107.4,401.2,107.4,401.3,107.4z"/>
						<path class="st23" d="M400.1,106.7l0.9,0.5c0.1,0,0.1,0.1,0,0.2l-0.9,0.5c-0.1,0-0.2,0-0.3,0l-0.9-0.5c-0.1,0-0.1-0.1,0-0.2
							l0.8-0.5C399.9,106.7,400,106.7,400.1,106.7z"/>
						<path class="st23" d="M398.8,106l0.9,0.5c0.1,0,0.1,0.1,0,0.2l-0.9,0.5c-0.1,0.1-0.2,0.1-0.3,0l-0.9-0.5c-0.1,0-0.1-0.1,0-0.2
							l0.8-0.5C398.6,106,398.7,106,398.8,106z"/>
						<path class="st23" d="M397.6,105.3l0.9,0.5c0.1,0,0.1,0.1,0,0.2l-0.9,0.5c-0.1,0-0.2,0-0.3,0l-0.9-0.5c-0.1,0-0.1-0.1,0-0.2
							l0.9-0.5C397.4,105.2,397.5,105.2,397.6,105.3z"/>
						<path class="st23" d="M396.3,104.5l0.9,0.5c0.1,0,0.1,0.1,0,0.2l-0.8,0.5c-0.1,0-0.2,0-0.3,0l-0.9-0.5c-0.1,0-0.1-0.1,0-0.2
							l0.9-0.5C396.1,104.5,396.2,104.5,396.3,104.5z"/>
						<path class="st23" d="M395.1,103.8l0.9,0.5c0.1,0,0.1,0.1,0,0.2l-0.9,0.5c-0.1,0-0.2,0-0.3,0l-0.9-0.5c-0.1,0-0.1-0.1,0-0.2
							l0.8-0.5C394.9,103.8,395,103.8,395.1,103.8z"/>
						<path class="st23" d="M393.8,103.1l0.9,0.5c0.1,0,0.1,0.1,0,0.2l-0.9,0.5c-0.1,0-0.2,0-0.3,0l-0.9-0.5c-0.1,0-0.1-0.1,0-0.2
							l0.8-0.5C393.6,103.1,393.7,103.1,393.8,103.1z"/>
						<path class="st23" d="M392.6,102.4l0.9,0.5c0.1,0,0.1,0.1,0,0.2l-0.8,0.5c-0.1,0-0.2,0-0.3,0l-0.9-0.5c-0.1,0-0.1-0.1,0-0.2
							l0.9-0.5C392.4,102.3,392.5,102.3,392.6,102.4z"/>
						<path class="st23" d="M391.3,101.7l0.9,0.5c0.1,0,0.1,0.1,0,0.2l-0.8,0.5c-0.1,0.1-0.2,0.1-0.3,0l-0.9-0.5
							c-0.1,0-0.1-0.1,0-0.2l0.9-0.5C391.1,101.6,391.2,101.6,391.3,101.7z"/>
						<path class="st23" d="M390.1,100.9l0.9,0.5c0.1,0,0.1,0.1,0,0.2l-0.9,0.5c-0.1,0-0.2,0-0.3,0l-0.9-0.5c-0.1,0-0.1-0.1,0-0.2
							l0.8-0.5C389.9,100.9,390,100.9,390.1,100.9z"/>
						<path class="st23" d="M388.8,100.2l0.9,0.5c0.1,0,0.1,0.1,0,0.2l-0.9,0.5c-0.1,0-0.2,0-0.3,0l-0.9-0.5c-0.1,0-0.1-0.1,0-0.2
							l0.8-0.5C388.6,100.2,388.7,100.2,388.8,100.2z"/>
						<path class="st23" d="M387.6,99.5l0.9,0.5c0.1,0,0.1,0.1,0,0.2l-0.8,0.5c-0.1,0.1-0.2,0.1-0.3,0l-0.9-0.5
							c-0.1,0-0.1-0.1,0-0.2l0.9-0.5C387.4,99.4,387.5,99.4,387.6,99.5z"/>
						<path class="st23" d="M385.7,98.4l1.5,0.9c0.1,0,0.1,0.1,0,0.2l-0.8,0.5c-0.1,0-0.2,0-0.3,0l-1.5-0.9c-0.1,0-0.1-0.1,0-0.2
							l0.8-0.5C385.5,98.4,385.6,98.4,385.7,98.4z"/>
						<path class="st23" d="M401.9,106.4l0.9,0.5c0.1,0,0.1,0.1,0,0.2l-0.8,0.5c-0.1,0-0.2,0-0.3,0l-0.9-0.5c-0.1,0-0.1-0.1,0-0.2
							l0.9-0.5C401.8,106.4,401.9,106.4,401.9,106.4z"/>
						<path class="st23" d="M400.7,105.7l0.9,0.5c0.1,0,0.1,0.1,0,0.2l-0.9,0.5c-0.1,0-0.2,0-0.3,0l-0.9-0.5c-0.1,0-0.1-0.1,0-0.2
							l0.8-0.5C400.5,105.6,400.6,105.6,400.7,105.7z"/>
						<path class="st23" d="M399.4,105l0.9,0.5c0.1,0,0.1,0.1,0,0.2l-0.8,0.5c-0.1,0-0.2,0-0.3,0l-0.9-0.5c-0.1,0-0.1-0.1,0-0.2
							l0.8-0.5C399.2,104.9,399.3,104.9,399.4,105z"/>
						<path class="st23" d="M398.2,104.2l0.9,0.5c0.1,0,0.1,0.1,0,0.2l-0.9,0.5c-0.1,0-0.2,0-0.3,0l-0.9-0.5c-0.1,0-0.1-0.1,0-0.2
							l0.8-0.5C398,104.2,398.1,104.2,398.2,104.2z"/>
						<path class="st23" d="M396.9,103.5l0.9,0.5c0.1,0,0.1,0.1,0,0.2l-0.8,0.5c-0.1,0-0.2,0-0.3,0l-0.9-0.5c-0.1,0-0.1-0.1,0-0.2
							l0.9-0.5C396.7,103.5,396.8,103.5,396.9,103.5z"/>
						<path class="st23" d="M395.7,102.8l0.9,0.5c0.1,0,0.1,0.1,0,0.2l-0.9,0.5c-0.1,0-0.2,0-0.3,0l-0.9-0.5c-0.1,0-0.1-0.1,0-0.2
							l0.8-0.5C395.5,102.7,395.6,102.7,395.7,102.8z"/>
						<path class="st23" d="M394.4,102.1l0.9,0.5c0.1,0,0.1,0.1,0,0.2l-0.8,0.5c-0.1,0-0.2,0-0.3,0l-0.9-0.5c-0.1,0-0.1-0.1,0-0.2
							l0.9-0.5C394.2,102,394.3,102,394.4,102.1z"/>
						<path class="st23" d="M393.2,101.3l0.9,0.5c0.1,0,0.1,0.1,0,0.2l-0.9,0.5c-0.1,0.1-0.2,0.1-0.3,0L392,102
							c-0.1,0-0.1-0.1,0-0.2l0.8-0.5C393,101.3,393.1,101.3,393.2,101.3z"/>
						<path class="st23" d="M391.9,100.6l0.9,0.5c0.1,0,0.1,0.1,0,0.2l-0.8,0.5c-0.1,0-0.2,0-0.3,0l-0.9-0.5c-0.1,0-0.1-0.1,0-0.2
							l0.9-0.5C391.7,100.6,391.8,100.6,391.9,100.6z"/>
						<path class="st23" d="M390.7,99.9l0.9,0.5c0.1,0,0.1,0.1,0,0.2l-0.9,0.5c-0.1,0.1-0.2,0.1-0.3,0l-0.9-0.5
							c-0.1,0-0.1-0.1,0-0.2l0.8-0.5C390.5,99.8,390.6,99.8,390.7,99.9z"/>
						<path class="st23" d="M389.4,99.2l0.9,0.5c0.1,0,0.1,0.1,0,0.2l-0.8,0.5c-0.1,0-0.2,0-0.3,0l-0.9-0.5c-0.1,0-0.1-0.1,0-0.2
							l0.9-0.5C389.2,99.1,389.3,99.1,389.4,99.2z"/>
						<path class="st23" d="M388.1,98.4l0.9,0.5c0.1,0,0.1,0.1,0,0.2l-0.9,0.5c-0.1,0-0.2,0-0.3,0l-0.9-0.5c-0.1,0-0.1-0.1,0-0.2
							l0.8-0.5C387.9,98.4,388,98.4,388.1,98.4z"/>
						<path class="st23" d="M403.2,107.1l1.5,0.9c0.1,0,0.1,0.1,0,0.2l-0.8,0.5c-0.1,0-0.2,0-0.3,0l-1.5-0.9c-0.1,0-0.1-0.1,0-0.2
							l0.8-0.5C403,107.1,403.1,107.1,403.2,107.1z"/>
						<path class="st23" d="M385.8,98.4l0.9,0.5c0.1,0.1,0.2,0.1,0.3,0l0.9-0.5c0.1,0,0.1-0.1,0-0.2h-0.1c0,0-0.1-0.1,0-0.1
							c0,0,0,0,0,0l1-0.6c0,0,0.1-0.1,0-0.1c0,0,0,0,0,0l-0.6-0.4c-0.1,0-0.2,0-0.3,0l-0.9,0.5l-0.2,0.1l-0.1,0.1l-0.1,0.1l-0.8,0.4
							C385.7,98.2,385.7,98.2,385.8,98.4C385.7,98.3,385.7,98.4,385.8,98.4z"/>
						<path class="st23" d="M407.4,105.4l0.9,0.5c0.1,0,0.1,0.1,0,0.2l-0.9,0.5c-0.1,0-0.2,0-0.3,0l-0.9-0.5c-0.1,0-0.1-0.1,0-0.2
							l0.8-0.5C407.2,105.3,407.3,105.3,407.4,105.4z"/>
						<path class="st23" d="M406.2,104.6l0.9,0.5c0.1,0,0.1,0.1,0,0.2l-0.8,0.5c-0.1,0-0.2,0-0.3,0l-0.9-0.5c-0.1,0-0.1-0.1,0-0.2
							l0.8-0.5C406,104.6,406.1,104.6,406.2,104.6z"/>
						<path class="st23" d="M404.9,103.9l0.9,0.5c0.1,0,0.1,0.1,0,0.2l-0.8,0.5c-0.1,0-0.2,0-0.3,0l-0.9-0.5c-0.1,0-0.1-0.1,0-0.2
							l0.8-0.5C404.7,103.9,404.9,103.9,404.9,103.9z"/>
						<path class="st23" d="M394.3,97.8l0.9,0.5c0.1,0,0.1,0.1,0,0.2l-0.8,0.5c-0.1,0-0.2,0-0.3,0l-0.9-0.5c-0.1,0-0.1-0.1,0-0.2
							l0.9-0.5C394.1,97.7,394.2,97.7,394.3,97.8z"/>
						<path class="st23" d="M393.1,97.1l0.9,0.5c0.1,0,0.1,0.1,0,0.2l-0.8,0.5c-0.1,0-0.2,0-0.3,0l-0.9-0.5c-0.1,0-0.1-0.1,0-0.2
							l0.9-0.5C392.9,97,393,97,393.1,97.1z"/>
						<path class="st23" d="M391.8,96.3l0.9,0.5c0.1,0,0.1,0.1,0,0.2l-0.8,0.5c-0.1,0-0.2,0-0.3,0l-0.9-0.5c-0.1,0-0.1-0.1,0-0.2
							l0.9-0.5C391.6,96.3,391.7,96.3,391.8,96.3z"/>
						<path class="st23" d="M390.6,95.6l0.9,0.5c0.1,0,0.1,0.1,0,0.2l-0.8,0.5c-0.1,0-0.2,0-0.3,0l-0.9-0.5c-0.1,0-0.1-0.1,0-0.2
							l0.9-0.5C390.4,95.6,390.5,95.6,390.6,95.6z"/>
						<path class="st23" d="M403.4,103l1.2,0.7c0.1,0,0.1,0.1,0,0.2l-0.8,0.5c-0.1,0-0.2,0-0.3,0l-1.2-0.7c-0.1-0.1-0.1-0.1,0-0.2
							l0.9-0.5C403.2,103,403.3,103,403.4,103z"/>
						<path class="st23" d="M395.6,98.5l1.2,0.7c0.1,0,0.1,0.1,0,0.2l-0.8,0.5c-0.1,0-0.2,0-0.3,0l-1.2-0.7c-0.1,0-0.1-0.1,0-0.2
							l0.8-0.5C395.4,98.5,395.5,98.5,395.6,98.5z"/>
						<path class="st23" d="M397.1,99.4l5.9,3.4c0.1,0,0.1,0.1,0,0.2l-0.8,0.5c-0.1,0-0.2,0-0.3,0L396,100c-0.1,0-0.1-0.1,0-0.2
							l0.9-0.5C396.9,99.4,397,99.4,397.1,99.4z"/>
						<path class="st23" d="M402.8,105.5l0.9,0.5c0.1,0,0.1,0.1,0,0.2l-0.9,0.5c-0.1,0-0.2,0-0.3,0l-0.9-0.5c-0.1,0-0.1-0.1,0-0.2
							l0.8-0.5C402.6,105.5,402.7,105.5,402.8,105.5z"/>
						<path class="st23" d="M401.6,104.8l0.9,0.5c0.1,0,0.1,0.1,0,0.2l-0.8,0.5c-0.1,0-0.2,0-0.3,0l-0.9-0.5c-0.1,0-0.1-0.1,0-0.2
							l0.9-0.5C401.4,104.7,401.5,104.7,401.6,104.8z"/>
						<path class="st23" d="M400.3,104l0.9,0.5c0.1,0,0.1,0.1,0,0.2l-0.8,0.5c-0.1,0-0.2,0-0.3,0l-0.9-0.5c-0.1,0-0.1-0.1,0-0.2
							l0.9-0.5C400.1,104,400.2,104,400.3,104z"/>
						<path class="st23" d="M399.1,103.3l0.9,0.5c0.1,0,0.1,0.1,0,0.2l-0.8,0.5c-0.1,0.1-0.2,0.1-0.3,0L398,104
							c-0.1,0-0.1-0.1,0-0.2l0.9-0.5C398.9,103.3,399,103.3,399.1,103.3z"/>
						<path class="st23" d="M397.8,102.6l0.9,0.5c0.1,0,0.1,0.1,0,0.2l-0.8,0.5c-0.1,0-0.2,0-0.3,0l-0.9-0.5c-0.1,0-0.1-0.1,0-0.2
							l0.8-0.5C397.6,102.6,397.7,102.6,397.8,102.6z"/>
						<path class="st23" d="M396.6,101.9l0.9,0.5c0.1,0,0.1,0.1,0,0.2l-0.9,0.5c-0.1,0-0.2,0-0.3,0l-0.9-0.5c-0.1,0-0.1-0.1,0-0.2
							l0.8-0.5C396.4,101.8,396.5,101.8,396.6,101.9z"/>
						<path class="st23" d="M395.3,101.2l0.9,0.5c0.1,0,0.1,0.1,0,0.2l-0.9,0.5c-0.1,0-0.2,0-0.3,0l-0.9-0.5c-0.1,0-0.1-0.1,0-0.2
							l0.8-0.5C395.1,101.1,395.2,101.1,395.3,101.2z"/>
						<path class="st23" d="M394.1,100.4l0.9,0.5c0.1,0,0.1,0.1,0,0.2l-0.9,0.5c-0.1,0.1-0.2,0.1-0.3,0l-0.9-0.5
							c-0.1,0-0.1-0.1,0-0.2l0.8-0.5C393.9,100.4,394,100.4,394.1,100.4z"/>
						<path class="st23" d="M392.8,99.7l0.9,0.5c0.1,0,0.1,0.1,0,0.2l-0.9,0.5c-0.1,0-0.2,0-0.3,0l-0.9-0.5c-0.1,0-0.1-0.1,0-0.2
							l0.9-0.5C392.6,99.7,392.7,99.7,392.8,99.7z"/>
						<path class="st23" d="M391.6,99l0.9,0.5c0.1,0,0.1,0.1,0,0.2l-0.8,0.5c-0.1,0-0.2,0-0.3,0l-0.9-0.5c-0.1,0-0.1-0.1,0-0.2
							l0.9-0.5C391.4,98.9,391.5,98.9,391.6,99z"/>
						<path class="st23" d="M390.3,98.3l0.9,0.5c0.1,0,0.1,0.1,0,0.2l-0.8,0.5c-0.1,0-0.2,0-0.3,0l-0.9-0.5c-0.1,0-0.1-0.1,0-0.2
							l0.9-0.5C390.1,98.2,390.2,98.2,390.3,98.3z"/>
						<path class="st23" d="M389.1,97.5l0.9,0.5c0.1,0,0.1,0.1,0,0.2l-0.8,0.5c-0.1,0-0.2,0-0.3,0l-0.9-0.5c-0.1,0-0.1-0.1,0-0.2
							l0.8-0.5C388.9,97.5,389,97.5,389.1,97.5z"/>
						<path class="st23" d="M404.1,106.2l1.8,1.1c0.1,0,0.1,0.1,0,0.2l-0.8,0.5c-0.1,0-0.2,0-0.3,0l-1.8-1.1c-0.1,0-0.1-0.1,0-0.2
							l0.8-0.5C403.9,106.2,404,106.2,404.1,106.2z"/>
						<path class="st23" d="M404.7,105.2l0.9,0.5c0.1,0,0.1,0.1,0,0.2l-0.8,0.5c-0.1,0-0.2,0-0.3,0l-0.9-0.5c-0.1,0-0.1-0.1,0-0.2
							l0.9-0.5C404.5,105.1,404.6,105.1,404.7,105.2z"/>
						<path class="st23" d="M403.4,104.4l0.9,0.5c0.1,0,0.1,0.1,0,0.2l-0.8,0.5c-0.1,0-0.2,0-0.3,0l-0.9-0.5c-0.1,0-0.1-0.1,0-0.2
							l0.8-0.5C403.2,104.4,403.3,104.4,403.4,104.4z"/>
						<path class="st23" d="M402.1,103.7l0.9,0.5c0.1,0,0.1,0.1,0,0.2l-0.9,0.5c-0.1,0.1-0.2,0.1-0.3,0l-0.9-0.5
							c-0.1,0-0.1-0.1,0-0.2l0.8-0.5C401.9,103.7,402,103.7,402.1,103.7z"/>
						<path class="st23" d="M400.9,103l0.9,0.5c0.1,0,0.1,0.1,0,0.2l-0.9,0.5c-0.1,0-0.2,0-0.3,0l-0.9-0.5c-0.1,0-0.1-0.1,0-0.2
							l0.8-0.5C400.7,103,400.8,103,400.9,103z"/>
						<path class="st23" d="M399.6,102.3l0.9,0.5c0.1,0,0.1,0.1,0,0.2l-0.9,0.5c-0.1,0-0.2,0-0.3,0l-0.9-0.5c-0.1,0-0.1-0.1,0-0.2
							l0.8-0.5C399.5,102.2,399.6,102.2,399.6,102.3z"/>
						<path class="st23" d="M398.4,101.5l0.9,0.5c0.1,0,0.1,0.1,0,0.2l-0.9,0.5c-0.1,0-0.2,0-0.3,0l-0.9-0.5c-0.1,0-0.1-0.1,0-0.2
							l0.9-0.5C398.2,101.5,398.3,101.5,398.4,101.5z"/>
						<path class="st23" d="M397.1,100.8l0.9,0.5c0.1,0,0.1,0.1,0,0.2l-0.8,0.5c-0.1,0-0.2,0-0.3,0l-0.9-0.5c-0.1,0-0.1-0.1,0-0.2
							l0.9-0.5C396.9,100.8,397,100.8,397.1,100.8z"/>
						<path class="st23" d="M395.9,100.1l0.9,0.5c0.1,0,0.1,0.1,0,0.2l-0.8,0.5c-0.1,0-0.2,0-0.3,0l-0.9-0.5c-0.1,0-0.1-0.1,0-0.2
							l0.9-0.5C395.7,100.1,395.8,100.1,395.9,100.1z"/>
						<path class="st23" d="M394.6,99.4l0.9,0.5c0.1,0,0.1,0.1,0,0.2l-0.8,0.5c-0.1,0-0.2,0-0.3,0l-0.9-0.5c-0.1,0-0.1-0.1,0-0.2
							l0.9-0.5C394.5,99.3,394.6,99.3,394.6,99.4z"/>
						<path class="st23" d="M393.4,98.7l0.9,0.5c0.1,0,0.1,0.1,0,0.2l-0.8,0.5c-0.1,0-0.2,0-0.3,0l-0.9-0.5c-0.1,0-0.1-0.1,0-0.2
							l0.8-0.5C393.2,98.6,393.3,98.6,393.4,98.7z"/>
						<path class="st23" d="M392.1,97.9l0.9,0.5c0.1,0,0.1,0.1,0,0.2l-0.8,0.5c-0.1,0-0.2,0-0.3,0l-0.9-0.5c-0.1,0-0.1-0.1,0-0.2
							l0.8-0.5C391.9,97.9,392,97.9,392.1,97.9z"/>
						<path class="st23" d="M389.3,96.3l2.4,1.4c0.1,0,0.1,0.1,0,0.2l-0.9,0.5c-0.1,0.1-0.2,0.1-0.3,0l-2.5-1.4
							c-0.1,0-0.1-0.1,0-0.2l0.8-0.5C389.1,96.3,389.2,96.3,389.3,96.3z"/>
						<path class="st23" d="M405.9,105.9l1.2,0.7c0.1,0,0.1,0.1,0,0.2l-0.8,0.5c-0.1,0-0.2,0-0.3,0l-1.2-0.7c-0.1,0-0.1-0.1,0-0.2
							l0.9-0.5C405.7,105.8,405.8,105.8,405.9,105.9z"/>
						<path class="st23" d="M384.4,99.1l17.8,10.2c0.1,0,0.1,0.1,0,0.2l-0.4,0.2c-0.1,0-0.2,0-0.3,0l-17.8-10.2
							c-0.1,0-0.1-0.1,0-0.2l0.4-0.2C384.2,99.1,384.3,99.1,384.4,99.1z"/>
						<polygon id="_Контур_45" class="st24" points="405.2,99.6 405.1,99.7 402,101.4 396.6,98.3 396.5,98.2 399.7,96.4 
													"/>
						<polygon id="_Контур_46" class="st25" points="405.1,99.7 402,101.4 396.6,98.3 399.7,96.5 						"/>
						<path id="_Контур_47" class="st25" d="M414,103.7v0.3c0,0.4-0.2,0.8-0.5,1l-10.8,6.2c-0.2,0.1-0.4,0.2-0.6,0.2
							c-0.2,0-0.4-0.1-0.6-0.2l-19.6-11.3c-0.4-0.2-0.6-0.6-0.6-1v-0.3l20.7,12L414,103.7z"/>
						<path id="_Контур_48" class="st19" d="M401.7,110.8c-0.4,0.1-0.8,0.1-1.1-0.1l-19.5-11.3c-0.3-0.2-0.6-0.5-0.6-0.9
							l-2.1-12.7c0-0.1,0-0.1,0-0.2c0-0.4,0.1-0.7,0.4-0.9L399,96.3c0.3,0.1,0.4,0.4,0.5,0.7L401.7,110.8z"/>
						<path id="_Контур_49" class="st25" d="M402,110.6l-0.1,0.1c-0.1,0-0.1,0.1-0.2,0.1L399.4,97c-0.1-0.3-0.2-0.5-0.5-0.7
							l-20.3-11.7c0.1-0.1,0.2-0.1,0.3-0.2l20.3,11.7c0.2,0.1,0.4,0.4,0.5,0.7L402,110.6z"/>
					</g>
				</g>
				<path id="_Контур_50" class="st18" d="M416.8,56.2c0,0-0.2,4.8-0.1,5.3s2.2,1.8,2.8,2.3c0.6,0.5-3.4,4.4-5.3,5.3
					s-8-1.4-8.1-4.4s1-5.5,2-5.7S416.8,56.2,416.8,56.2z"/>
				<path id="_Контур_51" class="st19" d="M417.3,62.3c0,0-3.5,5.2-8.4,5.7c-1.5-1.5-1.7-7,0.5-8.7c0,0-2-1.6-3.3-1.3
					c-1.4,0.9-2.5,2.3-3,3.9c-1.3,3.6-1.8,7.4-1.7,11.2c0.1,5.1,0,18.1,0,18.1c0.6,3.1,2.5,5.8,5.2,7.4c3.5,2,7.7,2.6,11.7,1.6
					c2.5-0.6,3.4-2,4.3-3.8c-0.2-3.6-1.6-11-1-15.6s1.6-7.9,1.8-11.6s-0.5-3.6-2.3-4.9C419.7,63.7,418.5,62.9,417.3,62.3z"/>
				<path id="_Контур_52" class="st18" d="M411.7,104c0.9-0.6,1.8-1.1,2.8-1.6c0.9-0.3,1.7-0.8,2.4-1.4c0.9-0.8,2.3-4,3.3-7.2
					c1-3.5,1.4-7.2,1.2-10.8c-0.4-4.4-2-10.5-2.4-13s0.4-3.5,1.6-4.4c1.4-1.1,3.3-0.6,4.3,2.9c1.3,4.9,2.1,9.9,2.3,14.9
					c0,3.7-0.5,7.5-1.7,11c-1,3-2.5,5.9-4.2,8.7c-0.5,0.8-0.6,1.5-1.4,3.2c-0.7,1.7-1.8,3.1-3.2,4.3c-1.2,0.9-1.8,1-2.1,0.8
					s-0.3-0.6,0.2-1.1c0.9-0.7,1.6-1.5,2.2-2.5c0,0-1.1,1.1-1.8,1.7c-0.6,0.5-1.3,1-2.1,1.3c-0.7,0.3-1.7-0.3-1.2-0.8s1-0.7,2.1-1.6
					c0.5-0.5,1-1,1.5-1.6c-0.7,0.6-1.5,1-2.3,1.5c-0.6,0.4-1.3,0.6-2.1,0.6c-0.4,0-0.8-0.5-0.1-1.1c1-0.5,1.9-1.1,2.7-1.9
					c0.8-0.8,1.2-1.4,1-1.5s-0.6,0.5-1.6,0.8s-1.9,0-2-0.5S410.8,104.4,411.7,104z"/>
				<path id="_Контур_53" class="st18" d="M405.8,48.9L405.8,48.9c0.6-3.8,3.3-6.6,7.2-6.4c4.1,0.2,7.3,3.7,7.1,7.8
					c-0.1,2.3-1.3,4.5-3.3,5.8c-0.1,0.6-0.3,1.1-0.6,1.7c-1.4,1.6-5.5,2.6-6.7,2.4c-1.5-0.1-2.7-1.1-3.1-2.5
					C405.1,54.7,405.5,50.8,405.8,48.9z"/>
				<path class="st23" d="M416.8,56.2L416.8,56.2l-0.4-3.3c0,0,2.7-6.9-3.6-5.6c-4.2,0.9-5.2,1.3-6.5-1.5s3.2-5.3,8.5-4.6
					c3.8,0.4,6.7,3.6,6.6,7.5C421.2,50.6,420.7,54.8,416.8,56.2z"/>
				<path class="st22" d="M427.6,75c0,0-3.5,3.4-7.5,2.4c-0.6-0.4-2-8.4-2-8.4s0-4.4,3.4-4.3S427.6,75,427.6,75z"/>
				<path class="st22" d="M401.5,68.3c-1,0-1.9-0.5-2.5-1.2c0.1-1.8,2.4-8.6,7.1-9.1c-1.3,0.9-2.3,2.1-2.9,3.5
					C402.4,63.8,401.9,66,401.5,68.3z"/>
			</g>
			<path class="st1" d="M521.2,388.3c-1.6-1.4-3.3-2.7-5.1-3.7c-13.8-8-36.4-8-50.2,0c-2.1,1.2-4.1,2.7-5.8,4.4
				c-7.6,7.8-5.7,17.9,5.8,24.5c13.8,8,36.4,8,50.2,0C527.9,406.7,529.6,396.2,521.2,388.3z M511.7,411c-11.4,6.6-30,6.6-41.4,0
				c-8-4.6-10.4-11.3-7.2-17.1c1.7-2.9,4.2-5.2,7.2-6.8c11.4-6.6,30-6.6,41.4,0c3,1.6,5.4,3.9,7.1,6.8l0,0
				C522.1,399.8,519.7,406.4,511.7,411z"/>
			<path class="st28" d="M518.8,393.9L518.8,393.9c-1.7-2.9-4.2-5.2-7.1-6.8c-11.4-6.6-30-6.6-41.4,0c-3,1.6-5.4,3.9-7.2,6.8
				L460,389l-0.6-0.9l4-9.5l13.9-7.7l25.9,0.5l17.6,10.4c0,0,0.3,3.3,0.4,6.6C521.2,392.4,520.8,396.3,518.8,393.9z"/>
			<polygon class="st1" points="455.5,399 455.5,388.1 460.9,397.3 			"/>
			<polygon class="st1" points="526.5,399 526.5,388.2 521.7,393.6 			"/>
			<ellipse class="st29" cx="491.3" cy="393.6" rx="29.5" ry="17"/>
			<path class="st1" d="M458.2,400.8c0,0,4.5,17.9,38.5,17c23.5,0,26.6-20.2,26-23.1c-4.9,6.7-12.5,11-20.8,11.6
				c-14.3,1.2-24.9,1.1-30.6-1.6s-13.1-9.9-13.1-9.9L458.2,400.8z"/>
			<path class="st3" d="M465.9,403.2c-13.8-8-13.8-21,0-29s36.4-8,50.2,0c13.8,8,13.8,21,0,29C502.2,411.2,479.7,411.2,465.9,403.2z
				 M511.7,376.8c-11.4-6.6-30-6.6-41.4,0s-11.4,17.3,0,23.9s30,6.6,41.4,0C523,394.1,523.1,383.4,511.7,376.8z"/>
			<ellipse transform="matrix(0.866 -0.5 0.5 0.866 -163.7579 266.6398)" class="st15" cx="415.7" cy="438.9" rx="3.9" ry="6.8"/>
			<polygon class="st1" points="469.5,407.8 454.6,416.4 450,413.7 464.9,405.1 			"/>
			<polygon class="st28" points="469.5,413.1 454.6,421.7 454.6,416.4 469.5,407.8 			"/>
			<path class="st9" d="M457.6,420.2c-0.2-3.4-2-6.4-4.8-8.3c-1-0.7-2.2-0.8-3.3-0.4l0,0L412.3,433l6.8,11.6l36.7-21.2
				C456.9,423,457.6,421.9,457.6,420.2z"/>
			<ellipse transform="matrix(0.866 -0.5 0.5 0.866 -163.7579 266.6398)" class="st9" cx="415.7" cy="438.9" rx="3.9" ry="6.8"/>
			<g id="Men_1">
				<ellipse class="st5" cx="520" cy="486.8" rx="22.7" ry="13.1"/>
				<path id="_Контур_54" class="st18" d="M536,392.7c0.2,2.1,2.8,11.2,2.2,14.3c-0.5,3.1-9.1,8.3-9.1,8.3l-1.2-5.3l4.8-4.7
					l-1.3-8.8L536,392.7z"/>
				<path id="_Контур_55" class="st22" d="M529.3,383.8c1.7-0.8,3.8-0.2,4.8,1.5c1.3,2.1,2.6,9.3,2.7,10.5c0,0-1.8,2.5-4.4,2
					L529.3,383.8z"/>
				<path class="st17" d="M519.5,485.2c-1.9,0.5-3.9,0.3-5.6-0.7c-1.3,0-8.6-3.1-9.6-0.5c-0.9,2.3,2.3,4.4,4,4.8
					c3.7,0.9,6.4,2.7,7.9,3c1.1,0.2,2.5,0.4,3.4-0.5C520.6,490.4,520.5,486.6,519.5,485.2z"/>
				<path class="st20" d="M516.2,491.3c-1.5-0.3-4.2-2.1-7.9-3c-1.4-0.3-3.8-1.9-4.1-3.7c-0.3,2.1,2.5,4,4.1,4.4
					c3.7,0.9,6.4,2.7,7.9,3c1.1,0.2,2.5,0.4,3.4-0.5c0.2-0.3,0.4-0.6,0.5-0.9C518.9,491.4,517.5,491.7,516.2,491.3z"/>
				<path class="st17" d="M531.3,479.9c-1.9,0.5-3.9,0.3-5.6-0.7c-1.3,0-8.6-3.1-9.6-0.5c-0.9,2.3,2.3,4.4,4,4.8
					c3.7,0.9,6.4,2.7,7.9,3c1.1,0.2,2.5,0.4,3.4-0.5C532.4,485.1,532.3,481.3,531.3,479.9z"/>
				<path class="st20" d="M528,486c-1.5-0.3-4.2-2.1-7.9-3c-1.4-0.3-3.8-1.9-4.1-3.7c-0.3,2.1,2.5,4,4.1,4.4c3.7,0.9,6.4,2.7,7.9,3
					c1.1,0.2,2.5,0.4,3.4-0.5c0.2-0.3,0.4-0.6,0.5-0.9C530.7,486.1,529.3,486.4,528,486z"/>
				<path id="_Контур_56" class="st21" d="M531.4,460.1c-0.3-2.7-0.9-5.4-1.7-8c0,0,0.5-6.9,0.8-13.4
					c0.3-7.4,2.9-13.9,0.8-19.8l-22.8,5.1c0,0,1.4,29.5,1.7,33.1c0.2,2.8,0.5,5.5,1,8.3c1,5.7,2.7,19.4,2.7,19.4
					c1.7,0.8,3.7,1,5.6,0.6c0,0-0.2-17.2-0.3-21.4c-0.2-5-0.3-4.6-0.3-4.6l0.8-12.5l0.5-6.2c0,0,0.6,4.6,1,8.7
					c0.4,3.6,1.2,6.8,2.2,13.4c0.8,5.8,2.2,17.3,2.2,17.3c2.4,1.4,5.7,0.2,5.7,0.2S532.1,465.1,531.4,460.1z"/>
				<path id="_Контур_57" class="st18" d="M528.1,383.9c-1.7,0.1-3,0.5-3.2,0c-0.2-0.9-0.3-1.8-0.4-2.7c0.2-0.5,0.4-1,0.4-1
					c2.2-1.3,2.9-3.7,3.2-6.5c0.5-4.7-2-8.8-6.8-9.3c-4.4-0.5-7.7,2.6-8.5,6.9c-0.5,2.1-1.4,6.1-0.1,9.5c0.7,1.9,1.6,3.5,2.5,3.8
					c0.9,0,1.7-0.1,2.6-0.2l0,0c0,0,0.2,1.3,0.4,2.1c0.2,0.8,0.1,1.3-1.6,2.3c-1.7,1,2.5,3.1,5.3,2.9c2.7-0.2,5.8-1.9,6.7-3.6
					C529.4,386.1,529.3,383.8,528.1,383.9z"/>
				<path id="_Контур_58" class="st19" d="M525.6,384.1c0.5,1.2-0.8,2.7-4,3.7s-3.6-0.3-3.6-0.3c-2.2,1-4.3,2.1-6.3,3.3
					c-2,1.4-2.8,5.3-3.1,12c-0.3,7.7-0.3,19.2-0.1,21.2c0,0,3.7,3.6,8.4,3.3s12.6-4.5,14.5-7.7c0-6.8-0.8-7.9,0.2-11.8
					c2.5-9,3.8-12.6,2.6-18.6c-1-4.9-2.4-5.5-4.4-5.5C528.4,383.8,527,383.9,525.6,384.1z"/>
				<path id="_Контур_59" class="st18" d="M501.2,409.2c3.9,1,4.8-1.5,5.3-3.5c1.2-4.9,1.9-9.2,2.8-12
					c1.1-3.3,2.2-3.8,3.8-4.4c1.9-0.8,3.5,0.8,2.8,5c-0.8,4.8-1.9,9.5-3.5,14.1c-0.5,1.5-1.5,4.2-3.2,5.5c-2,1.6-5,1.5-9.5,0.4
					c-1.9-0.5-4-1.6-7.7-3.3c-1-0.5-1.7-0.8-3.6-1.6c-1.9-0.9-3.5-2.1-4.8-3.8c-1-1.4-1.1-2.1-0.9-2.4s0.7-0.3,1.2,0.3
					c0.8,1,1.7,1.9,2.8,2.6c0,0-1.2-1.3-1.9-2.1c-0.6-0.7-1.1-1.5-1.5-2.4c-0.4-0.8,0.4-2,0.9-1.4s0.8,1.2,1.8,2.4
					c0.5,0.6,1.1,1.2,1.8,1.7c-0.6-0.8-1.2-1.7-1.6-2.6c-0.4-0.7-0.6-1.6-0.6-2.4c0-0.4,0.6-1,1.2-0.1c0.6,1.1,1.3,2.2,2.1,3.1
					c0.9,0.9,1.6,1.4,1.6,1.2s-0.5-0.8-0.8-1.8s0-2.2,0.6-2.3s0.5-0.1,0.9,0.9c0.6,1,1.2,2.1,1.8,3.2c0.3,1,0.8,2,1.6,2.7
					C495.5,407.2,497.6,408.3,501.2,409.2z"/>
				<path id="_Контур_60" class="st22" d="M514.5,388.7c-2.6-0.4-4.4,0.8-5.5,4.7s-1.9,7.1-1.9,7.1c1,1.5,2.6,2.5,4.3,2.9
					c3.1,0.7,4.2-0.7,4.2-0.7s0.8-4.1,1.4-6.9C517.4,393,517.7,389.2,514.5,388.7z"/>
				<path class="st17" d="M512.9,370.7c0,0-4-6.2,4.7-7.4c6.3-0.9,10.4,3.2,10.9,7.6c0.5,4.2-2.2,8.6-4,10.4
					c-1.8,0.5-3.8,0.2-5.5-0.7c-0.1-1.1-0.1-2.3-0.1-3.5C518.9,377.1,521.9,370.6,512.9,370.7z"/>
			</g>
		</g>
	</g>
</g>
</svg>
