<?xml version="1.0" encoding="utf-8"?>
<!-- Generator: Adobe Illustrator 26.3.1, SVG Export Plug-In . SVG Version: 6.00 Build 0)  -->
<svg version="1.1" xmlns="http://www.w3.org/2000/svg" xmlns:xlink="http://www.w3.org/1999/xlink" x="0px" y="0px"
	 viewBox="0 0 735.4 500" style="enable-background:new 0 0 735.4 500;" xml:space="preserve">
<style type="text/css">
	.st0{fill:#F4F4F4;}
	.st1{fill:#FFFFFF;}
	.st2{fill-rule:evenodd;clip-rule:evenodd;fill:#915B3C;}
	.st3{fill-rule:evenodd;clip-rule:evenodd;fill:#191847;}
	.st4{fill-rule:evenodd;clip-rule:evenodd;fill:#C56000;}
	.st5{fill-rule:evenodd;clip-rule:evenodd;fill:#784931;}
	.st6{fill-rule:evenodd;clip-rule:evenodd;fill:#E4E4E4;}
	.st7{fill-rule:evenodd;clip-rule:evenodd;fill:#FF8F00;}
	.st8{fill-rule:evenodd;clip-rule:evenodd;fill:#27246B;}
	.st9{fill-rule:evenodd;clip-rule:evenodd;fill:#342A83;}
	.st10{fill-rule:evenodd;clip-rule:evenodd;fill:#E2CCB3;}
	.st11{fill-rule:evenodd;clip-rule:evenodd;fill:#AFB9C5;}
	.st12{fill-rule:evenodd;clip-rule:evenodd;fill:#C5CFD6;}
	.st13{fill-rule:evenodd;clip-rule:evenodd;fill-opacity:0.1;}
	.st14{fill-rule:evenodd;clip-rule:evenodd;fill:#D4A181;}
	.st15{fill-rule:evenodd;clip-rule:evenodd;fill:#BA8B72;}
	.st16{fill-rule:evenodd;clip-rule:evenodd;fill:#DB2721;}
	.st17{fill-rule:evenodd;clip-rule:evenodd;fill:#FF4133;}
	.st18{fill-rule:evenodd;clip-rule:evenodd;fill:#69A1AC;}
	.st19{fill-rule:evenodd;clip-rule:evenodd;fill:#89C5CC;}
	.st20{fill-rule:evenodd;clip-rule:evenodd;fill-opacity:0.4;}
	.st21{fill:#BCBCBC;}
	.st22{fill:#E0E0E0;}
	.st23{fill:#E2574C;}
	.st24{fill:#EFC75E;}
	.st25{fill:#3DB39E;}
	.st26{fill:#EDEDED;}
	.st27{fill:#43A047;}
	.st28{fill:#7A7A7A;}
	.st29{fill:#DDDDDD;}
</style>
<g id="Ebene_3">
	<path class="st0" d="M742.2,554.7H-41.4c-6.6,0-12-5.4-12-12V-16.9c0-6.6,5.4-12,12-12h783.7c6.6,0,12,5.4,12,12v559.6
		C754.2,549.3,748.8,554.7,742.2,554.7z"/>
</g>
<g id="Ebene_2">
	<path class="st1" d="M707.2,195.9H333.3c-6.6,0-12-5.4-12-12v-9.7c0-6.6,5.4-12,12-12h373.9c6.6,0,12,5.4,12,12v9.7
		C719.2,190.5,713.8,195.9,707.2,195.9z"/>
	<path class="st1" d="M716,259H495.6c-6.6,0-12-5.4-12-12v-9.2c0-6.6,5.4-12,12-12H716c6.6,0,12,5.4,12,12v9.2
		C728,253.6,722.6,259,716,259z"/>
	<path class="st1" d="M709.6,492.1H276.5c-6.6,0-12-5.4-12-12v-11.2c0-6.6,5.4-12,12-12h433.1c6.6,0,12,5.4,12,12v11.2
		C721.6,486.7,716.2,492.1,709.6,492.1z"/>
	<path class="st1" d="M643.4,411h-326c-6.6,0-12-5.4-12-12v-11.2c0-6.6,5.4-12,12-12h326c6.6,0,12,5.4,12,12V399
		C655.4,405.6,650,411,643.4,411z"/>
</g>
<g id="Ebene_4">
	<g id="humaaan-11" transform="translate(34.000000, 10.000000)">
		
			<g id="Head_x2F_Front_x2F_Wavy" transform="translate(128.159246, 70.924000) rotate(-15.000000) translate(-128.159246, -70.924000) translate(57.306980, 16.688000)">
			<g id="Head_00000110437408638172371990000011523263672800212119_" transform="translate(56.316359, 32.329762)">
				<path class="st2" d="M495.9,201.6c3.3-1.4,6.3-3.9,8-7.6c4.9-10.8-8.5-16.3-13.7-12.5c-5.2,3.8-12,17.3-9.4,20.2
					c1,1.2,4.1,1.9,7.8,1.7l-9.1,13l9.9,6.2L495.9,201.6z"/>
			</g>
			<path id="hair_00000031179715358743588340000011469595640120447387_" class="st3" d="M544.3,215.6c0.5-0.6,1.1-1.2,1.6-1.8
				c0.7-0.7,1.5-1.2,2.3-1.6c1.5-0.8,3.1-1.5,4.6-1.8c2.9-0.6,5.8-0.2,8,1.7c1.1,0.9,2,2.2,2.5,3.7c0.5,1.4,0.7,3.1,1.8,3.9
				c1.2,0.9,3,0.3,4.5,0.1c1.6-0.2,3.2-0.1,4.6,0.5c2.4,1,4.1,3.2,4.4,6.3c0.4,3.3-0.2,7.4-2.9,9.8c-0.5,0.4-1,0.8-1.6,0.9
				c-0.5,0.2-1.2,0.2-1.7,0.7c-0.5,0.5-0.5,1.6-0.6,2.3c-0.2,0.9-0.4,1.9-1,2.7c-0.9,1.3-2.3,2.2-3.6,2.7c-1.3,0.4-2.6,0.4-3.8-0.1
				c-0.8-0.3-1.6-0.6-2.3-1.2c-0.3-0.3-0.6-0.6-0.9-0.9c-0.3-0.3-0.5-0.3-0.9-0.3c-1.9,0.2-3.5-0.3-5-1.4c-1.2-0.9-2.5-2.3-3-4
				c-0.6-1.9,0.3-3.5,1.5-5.1c-0.4,0-1.2-0.4-0.4-0.8c0.3-0.2,0.8,0,1.1,0c0.4,0,0.8-0.1,1.2-0.2c1.5-0.7,2-3.7,1.1-4.9
				c-1.4-1.7-3.2,0.9-4.8,0.9c-0.9,0-1.3-1-1.5-2c-0.3-1.2-0.2-2.6,0-3.9c0.1-1.1,0.3-2.2,0.4-3.2c0.1-0.5,0.1-2,0.6-2.3
				c-1-1-2.7-1.3-4.1-1.2c-0.6,0.1-1.1,0.2-1.6,0.6c-0.1,0.1-0.4,0.4-0.6,0.3C543.9,216,544.2,215.7,544.3,215.6"/>
		</g>
		<g id="Bottom_x2F_Standing_x2F_Skirt" transform="translate(0.000000, 210.685999)">
			<path id="Skirt-Shadow" class="st4" d="M650.9,30.5c-11.5,3.7-21.4,5.6-29.8,5.6s-16.1-2.9-23.3-8.6c11.3-3.8,20.5-5.8,27.8-5.8
				S641.3,24.7,650.9,30.5z"/>
			<path id="Leg_00000010291338557918288370000000358976924644997559_" class="st5" d="M611.1,41.5c0.1-0.2,0.2-0.4,0.3-0.6
				c1.5-4.7,26.2-55.7,28.6-65.1h-27.8c-1.9,7.1-10.3,51.6-11.5,60.5c-3.7,14-11.4,59.4-12.4,62.5c-1,3.3,4.8,6.7,6.3,2.7
				c2.5-6.5,8.3-24.4,10.9-35.3C608.1,56,610.1,46.7,611.1,41.5z"/>
			<path id="Leg_00000123437025007378376670000016295565820862591642_" class="st2" d="M633.8,47.8c11.3,3.3,52.5,9.3,55.3,10.2
				c2.9,1,5.5-6,1.9-7.5c-5.7-2.4-21.5-8-31.1-10.2c-7.7-1.8-14.7-3.3-19.4-4.2c0.4-15.4,2.2-52.3,1-60.2H617
				c1.1,7.6,10.8,63.4,12.6,69C630.2,46.8,631.9,47.7,633.8,47.8z"/>
			
				<g id="Accessories_x2F_Shoe_x2F_Flat-Sneaker_00000006672648976154170210000003173381445131955885_" transform="translate(25.550941, 163.734601) rotate(80.000000) translate(-25.550941, -163.734601) translate(-6.257373, 142.876690)">
				<path id="shoe_00000035524813871458190330000009836931610983344532_" class="st6" d="M33.9-654.2c-0.1-1.5,0-2.6,0.3-3.3
					c0.3-0.8,0.9-1.9,1.9-3.4c1.1,0.4,11,3.7,29.7,10c-0.1,2.4-1,3.5-2.7,3.1c-1.7-0.4-3.2-0.7-4.3-0.9l-15.9,0.6
					c-0.3,0-0.6-0.2-0.6-0.5c0,0,0,0,0,0l-0.2-2.1c-1.3-1.1-2.4-1.9-3.4-2.2c-0.8-0.3-2-0.4-3.6-0.3l0,0
					C34.6-653.2,34-653.6,33.9-654.2C34-654.2,34-654.2,33.9-654.2z"/>
			</g>
			
				<g id="Accessories_x2F_Shoe_x2F_Flat-Sneaker_00000052796732072127251160000014493021051839051437_" transform="translate(216.922274, 207.536214)">
				<path id="shoe_00000031189266231481328200000013215034397039153793_" class="st6" d="M379.6-106.6c0.5,1.7,0.8,2.9,0.8,3.7
					c0,1-0.1,2.5-0.4,4.4c-1,0-10,0-27.1,0c-0.7-2.7-0.3-4.2,1.2-4.4c1.5-0.2,2.8-0.4,3.8-0.6l12.6-6.5c0.2-0.1,0.5,0,0.6,0.3
					c0,0,0,0,0,0l0.8,2.3c1.4,0.8,2.5,1.1,3.4,1.1c0.7,0,1.7-0.3,3-1v0C378.8-107.5,379.3-107.2,379.6-106.6
					C379.6-106.6,379.6-106.6,379.6-106.6z"/>
			</g>
			<path id="Skirt" class="st7" d="M641.5-24.2c-10.8-3.6-21.1-3.6-30.7,0c-3.4,17.8-11.5,24.9-13,52.2c16.3,9.4,36.5-6.7,53.3,2.5
				C655.9,17.6,649.1-13.3,641.5-24.2z"/>
		</g>
		
			<g id="Body_x2F_Pointing-Forward" transform="translate(155.249818, 199.734499) rotate(-10.000000) translate(-155.249818, -199.734499) translate(21.880847, 102.214000)">
			<path id="Skin_00000134934029814401168240000017212172562970829709_" class="st2" d="M595.7,128.3l-12.2-16.2
				c-1.4-4.6-3-8.4-4.8-11.4c-0.6-0.7-1.9-1.4-1.5,1.7c0.4,3.1,0.6,6.4-0.3,7s-2.1-1.2-3.3-0.2c-0.8,0.7,1.4,3.2,6.8,7.5l7.2,16.6
				L595.7,128.3z M568.4,127.1l-5.4-7.1c0.5-4.7,0.1-7.3-1.3-7.8c-0.8-1-0.9,5.2-2.7,3.9s-5.1-7.3-6.2-6.7c-1.6,0.8-1.8,5-1.2,7.4
				c1.2,4.5,2.7,6.5,7.1,10c2.3,1.8,4.4,4.6,6.6,8.3L568.4,127.1z"/>
			<path id="Sleeve" class="st8" d="M604,129.1c-5.4-2.2-12.3-6.5-18.1-15.3l-5.7,6.8c3.3,8.3,9.1,16.4,15.7,18.8
				C601.1,141.3,606.3,135,604,129.1z"/>
			<path id="Clothes" class="st9" d="M592.3,139c-6.4-0.6-15.4-6.4-27.1-17.5c-6.1,6.9-9.7,12.1-10.6,15.7
				c9.3,11.8,18.2,18.9,26.4,22.4c-2.2,5.6-3.4,11.3-3.1,17.1c0.7,11.9,28,11.9,35.5,17c11.6-17.3,4.4-29.1,8.6-41.5
				c4.6-13.6,2.3-38.1,1-38.6l-12.5-4.9C606.3,118.8,599,128.8,592.3,139z"/>
		</g>
	</g>
</g>
<g id="Ebene_5">
	<g id="humaaan-4_00000006684768959383136030000016379727476760560286_" transform="translate(28.000000, 9.000000)">
		
			<g id="Head_x2F_Front_x2F_Curly_00000101813366166501848730000010321203645081185698_" transform="translate(88.812991, 0.000000)">
			<g id="Head_00000142146935781233913410000001333046995676777377_" transform="translate(58.494090, 33.579940)">
				<path class="st10" d="M208.9,42.2c2.3-2.7,3.8-6.1,3.6-9.9c-0.7-10.8-15.5-8.5-18.4-3s-2.5,19.4,1.2,20.3
					c1.5,0.4,4.6-0.6,7.9-2.5l-2,14.6H213L208.9,42.2z"/>
			</g>
			<path id="hair_00000036234861409084170040000012575780967067121046_" class="st3" d="M247.3,55.3c0.2-0.9,0.9-1.6,1.8-1.9
				c0.2-0.1,0.4-0.1,0.7-0.1c0.1,0,0.1,0,0.1,0c0,0,0-0.1,0-0.2c0-0.2,0.1-0.3,0.1-0.5c0.2-0.5,0.5-1,0.9-1.3
				c0.7-0.7,1.7-1.2,2.7-1.3c0.5,0,1.1,0,1.6,0.2c0.3,0.1,0.5,0.2,0.8,0.3c0.1,0,0.3,0.2,0.4,0.2c0.1,0,0.3-0.2,0.3-0.3
				c0.8-0.7,1.9-0.9,2.9-0.9c1.2,0,2.3,0.1,3.3,0.8c0.2,0.2,0.4,0.3,0.6,0.5c0.1,0.1,0.2,0.2,0.3,0.3c0.1,0.1,0.1,0.1,0.2,0.2
				c0.1,0.1,0.1,0.1,0.2,0.1c0.5-0.3,1-0.4,1.6-0.4c0.3,0,0.7,0.1,1,0.3c0.1,0,0.3,0.2,0.5,0.2c0.1,0,0.3-0.2,0.5-0.2
				c0.6-0.2,1.3-0.3,1.9-0.2c0.7,0.1,1.3,0.4,1.9,0.8c0.3,0.2,0.5,0.4,0.7,0.6c0.1,0.1,0.2,0.2,0.2,0.3c0.1,0.1,0.2,0.1,0.2,0.2
				c0,0,0.7-0.3,0.8-0.4c0.4-0.1,0.8-0.1,1.1,0c0.7,0.2,1.3,0.7,1.8,1.3c0.2,0.3,0.5,0.6,0.7,0.9c0.1,0.2,0.2,0.3,0.2,0.5
				c0,0.1,0.1,0.2,0.1,0.2c0.1,0.1,0.1,0.1,0.2,0.1c0.6,0.2,1.1,0.5,1.5,1c0.4,0.5,0.7,1,0.8,1.6c0,0,0,0.2,0,0.2c0,0,0.1,0,0.2,0
				c0.1,0,0.3,0,0.4,0.1c0.3,0.1,0.5,0.2,0.8,0.3c1,0.5,1.6,1.4,2,2.4c0.4,1.1,0.3,2.3-0.1,3.4c-0.1,0.2-0.1,0.3-0.2,0.5
				c-0.1,0.1-0.1,0.1,0,0.2c0,0.1,0.1,0.2,0.2,0.3c0.2,0.4,0.3,0.7,0.4,1.1c0.1,0.6,0.2,1.3,0.1,1.9c-0.1,0.3-0.1,0.6-0.3,0.9
				c-0.1,0.1-0.2,0.3-0.3,0.4c-0.1,0.1-0.1,0.1-0.2,0.2c0,0-0.1,0.1-0.1,0.1c-0.1,0.1-0.1,0,0,0.1c0,0.2,0.2,0.4,0.2,0.5
				c0.1,0.2,0.1,0.4,0.2,0.5c0.1,0.4,0.2,0.8,0.3,1.1c0.1,0.7,0.1,1.5-0.2,2.2c-0.1,0.3-0.4,0.5-0.6,0.7c-0.1,0.1-0.3,0.2-0.4,0.2
				c-0.1,0-0.2,0.1-0.2,0.1c0,0.1,0,0.2,0,0.3c0.1,0.8,0.2,1.5-0.1,2.3c-0.2,0.7-0.6,1.3-1.2,1.7c-1.1,0.8-2.6,0.7-3.8,0.1
				c-0.3-0.2-0.6-0.4-0.9-0.6c-0.7,0.9-2,0.9-3,0.6c-1.2-0.3-2.1-1.2-2.7-2.3c-0.8,0.9-2.3,0.6-2.9-0.4c-0.1-0.2-0.2-0.5-0.2-0.8
				c0-0.1,0-0.3,0-0.4c0-0.2-0.1-0.4-0.2-0.5c-0.1-0.3-0.2-0.7-0.2-1.1c0-0.2,0-0.4,0-0.6c0-0.2,0-0.3-0.1-0.5c0.3,0.1,0.7,0,1-0.1
				c0.3-0.1,0.5-0.3,0.7-0.5c0.5-0.5,0.7-1.1,0.9-1.8c0.4-1.4,0.3-3.1-1.1-3.9c-0.7-0.4-2.6-0.4-3.4-0.2c-0.8,0.2-1.7,2-1.8,2.2
				c0,0.1,0,0.2-0.1,0.3c-0.2,0.2-0.6-0.1-0.7-0.2c-0.3-0.2-0.5-0.5-0.6-0.8c-0.4-0.7-0.7-1.4-0.9-2.1c-0.2-0.6-0.3-1.2-0.5-1.7
				c-0.2-0.6-0.5-1.1-1-1.4c-0.6-0.3-1.2-0.5-1.8-0.7c-0.6-0.2-1.2-0.5-1.7-0.9c-0.1-0.1-0.2-0.2-0.3-0.3c-0.1-0.1-0.1-0.3-0.2-0.3
				c-0.2-0.1-0.4,0.1-0.5,0.2c-0.7,0.4-1.2,1-1.6,1.7c-0.4,0.6-0.8,1.3-1.1,2c-0.2,0.5-0.4,1.2-0.7,1.7c-0.2,0.2-1.4,0.3-1.8,0.1
				s-0.9-0.6-1-0.9c-0.1-0.3-0.2-0.6-0.1-0.9c0-0.2,0.1-0.4,0.1-0.5c0-0.2,0.1-0.3,0.1-0.4c0.1-0.3,0.4-0.4,0.7-0.5
				c-0.3-0.3-0.5-0.6-0.7-1c-0.2-0.4-0.3-0.8-0.4-1.3c0-0.3,0-0.7,0.2-1c0.2-0.3,0.5-0.5,0.8-0.7c-0.4-0.4-0.8-0.8-1.1-1.3
				C247.4,57.6,247,56.5,247.3,55.3z"/>
		</g>
		
			<g id="Bottom_x2F_Standing_x2F_Skinny-Jeans-Walk_00000028300328742290620590000011680825788459748274_" transform="translate(0.000000, 202.587623)">
			<polygon id="Leg_00000101073431795434135570000009798561556052106666_" class="st4" points="364.3,-65.3 340.4,-0.8 323.7,46.7 
				314.1,46.7 337.1,-65.3 			"/>
			<path id="Leg_00000019649908388258431630000005396045742791451536_" class="st7" d="M370.2-65.3c0.3,22.1,0.1,51.9,0.7,53.3
				c0.4,0.9,12.9,11.4,37.6,31.4l-4.9,8.5C374.3,8.7,358.9-2.2,357.4-4.8c-2.2-3.9-13.5-39.3-19.4-60.5H370.2z"/>
			
				<g id="Accessories_x2F_Shoe_x2F_Flat-Pointy_00000095311911885743834860000012968157249561855651_" transform="translate(61.202150, 204.729315) rotate(50.000000) translate(-61.202150, -204.729315) translate(28.163821, 183.064837)">
				<path id="Shoe_00000091716266381756216030000007934434223907652747_" class="st3" d="M124.3-366.4l-10.3,2.2l1.9,10.4
					c4.4,4.3,8.4,10.3,12,17.9l2-0.3l-3.5-18.8l-2.2-6.3l1-0.2L124.3-366.4z"/>
			</g>
			
				<g id="Accessories_x2F_Shoe_x2F_Flat-Pointy_00000149382015315796979080000016046377173086897288_" transform="translate(225.310568, 215.561553)">
				<path id="Shoe_00000024002576676097136840000006918057353200163229_" class="st3" d="M99.3-159.7l-0.5-10.6H88.3
					c-4.9,3.5-11.4,6.4-19.4,8.6v2h18.9l6.5-1v1H99.3z"/>
			</g>
		</g>
		<g id="Body_x2F_Long-Sleeve_00000124159294476915031430000015392657374433152644_" transform="translate(23.827876, 88.835214)">
			<path id="Skin_00000135665183702583168650000014484787945995240077_" class="st10" d="M297.8,28.4l-19.6-2.7
				c-3.9-2.2-7.5-3.7-10.8-4.5c-0.9,0-2.4,0.3-0.2,2.2c2.2,1.9,4.4,3.9,4,4.9c-0.4,1-2.4,0.6-2.8,2.2c-0.2,1,3.1,1.2,9.9,0.5
				l15.9,6.4L297.8,28.4z M359.4,33l-10.9,0c11.9,27.4,18.1,41.7,18.7,43c1.1,2.9-1.3,7.3-2.3,9.7c3.4,1.5,3-4.2,7.3-2.2
				c3.9,1.9,6.9,5.2,11.4,2.4c0.6-0.3,1.2-1.7-0.3-2.7c-3.7-2.6-8.9-7-9.6-8.5C372.6,72.8,367.8,58.9,359.4,33z"/>
			<path id="Clothes-Back_00000173154647312214875710000015354320745009101703_" class="st11" d="M329.6-2.2l-8.5,0.6
				C319,17.8,307.5,30,282,25.8l-3.4,24.9c23.9,3.2,44.9-6.6,49.2-33C328.8,10.9,329.7,3.8,329.6-2.2z"/>
			<path id="Clothes_00000145748283149523712120000001351721202261755304_" class="st12" d="M334.3-4.7l-12.9,3
				c0,22.6-14.5,68.7-19.8,87.4l45.2-11.9c-0.1-2.3,0.1-3.1-0.2-4.1h26.1c-5.9-32.1-18.4-56.9-37.4-74.5L334.3-4.7L334.3-4.7z"/>
			<path id="Shade_00000044136474109570663730000000865371324530953346_" class="st13" d="M339.5,19.7c0.9,14.1,1.9,48.5-0.1,55.9
				l7.2-1.9C345.7,62.4,342.3,29.9,339.5,19.7L339.5,19.7z"/>
		</g>
	</g>
</g>
<g id="Ebene_1">
	<g id="humaaan-12" transform="translate(34.000000, 10.000000)">
		
			<g id="Head_x2F_Front_x2F_Pony" transform="translate(180.496667, 70.916479) rotate(15.000000) translate(-180.496667, -70.916479) translate(109.550000, 16.686230)">
			<g id="Head" transform="translate(56.316359, 32.329762)">
				<path class="st14" d="M308.4,37.4c0.9-5.9,0.2-12.2-3.2-17.5c-9.7-15.4-27.6,0.3-27.1,10.7s12.2,30.7,18,29.1
					c2.3-0.6,5.8-4.7,8.5-10.2l9,23.2l16-9.8L308.4,37.4z"/>
			</g>
			<path id="hair" class="st3" d="M358.6,72c4.3,3.1,8.8,4.6,11.5,2.9c5.2-3.2,4.6-13.3,0-21.7c-0.2-0.3-0.3-0.6-0.5-0.9
				c7.8,0.9,16.6,6.6,23.9,2.2c9.9-6.1,1.6-30.9-12.2-22.5c-9.4,5.8-13.2,10.1-15.9,14.9c-2.1-2-4.5-3.4-6.7-3.9
				c-0.6-0.2-1.4-0.3-2.3-0.3c-0.6,0-1.1,0.1-1.7,0.2c-2.9,0.5-6.8,1.9-10.8,4.1c-0.7,0.4-1.5,0.8-2.1,1.3
				c-2.3-4.1-7.1-5.6-10.7-3.4c-3.7,2.3-4.8,7.4-2.6,11.6c2.2,4,6.7,5.6,10.4,3.6c2.4-0.5,5.2-1.6,8.2-3.1c0.4,1.3,0.9,2.8,1.8,4.3
				c0.7,1.3,1.6,2.7,2.6,3.9c0.2-1.2,0.7-2.3,1.5-2.8c2.4-1.4,5.2-0.3,6.4,2C361,67.4,360.7,70.5,358.6,72z"/>
		</g>
		<g id="Bottom_x2F_Standing_x2F_Jogging" transform="translate(0.000000, 211.706546)">
			<polygon id="Leg" class="st15" points="486.6,56.1 429,162.7 385.9,252.8 376.6,252.8 448.9,56.1 			"/>
			<g id="Accessories_x2F_Shoe_x2F_Flat-Sneaker" transform="translate(260.723886, 207.536214)">
				<path id="shoe" class="st6" d="M130.8,41.1c0.9,2.6,1.3,4.5,1.3,5.8c0,1.5-0.2,3.8-0.7,6.8c-1.6,0-16.2,0-43.7,0
					c-1.1-4.2-0.5-6.4,2-6.7s4.5-0.6,6.1-0.9l20.3-10c0.4-0.2,0.8,0,1,0.4c0,0,0,0,0,0l1.3,3.5c2.3,1.2,4.1,1.8,5.5,1.8
					c1.1,0,2.7-0.5,4.8-1.5v0c0.8-0.4,1.7,0,2.1,0.8C130.8,41.1,130.8,41.1,130.8,41.1z"/>
			</g>
			<path id="Pant" class="st16" d="M397.9,238.4l-17.9-6c7.9-26,17.5-54.6,28.9-85.8c11.4-31.2,23.6-61.4,36.7-90.4h50.6
				c-14.5,36.7-30,70.1-46.2,100.1S416.3,213.7,397.9,238.4z"/>
			<path id="Leg_00000027586082608622496820000008990595196222515348_" class="st14" d="M490.4,56.1c5.4,37.5,15.9,85.3,16.9,86.8
				c0.7,1,24.4,9.8,71.2,26.4l-2,9.1c-55.8-8.9-85.2-15.8-88.2-20.8c-4.5-7.4-27-65.7-35.7-101.5H490.4z"/>
			<path id="Pant_00000119120057506691138410000002685638692175148222_" class="st17" d="M562,161.5l-3.5,14.6
				c-41.7,4.1-67.3,1.1-76.7-8.8c-9.4-9.9-20.1-47-32.2-111.2h48.3c7.6,52.6,11.9,80,12.8,82.2C511.5,140.5,528.6,148.3,562,161.5z"
				/>
			
				<g id="Accessories_x2F_Shoe_x2F_Flat-Sneaker_00000094578404184645383050000009081026366399060890_" transform="translate(25.550941, 160.605914) rotate(80.000000) translate(-25.550941, -160.605914) translate(-6.257373, 139.748003)">
				<path id="shoe_00000070802417036890048990000012486950654505189791_" class="st6" d="M132.3-520.5c-0.1-2.5,0.1-4.3,0.5-5.3
					c0.5-1.3,1.5-3.1,2.9-5.5c1.7,0.6,16.9,5.8,45.6,15.7c-0.2,3.9-1.6,5.6-4.2,5c-2.7-0.6-4.9-1.1-6.7-1.4l-24.5,1.2
					c-0.5,0-0.9-0.3-0.9-0.7c0,0,0,0,0,0l-0.2-3.4c-2-1.8-3.7-3-5.2-3.5c-1.2-0.4-3-0.6-5.5-0.4l0,0c-0.9,0.1-1.8-0.6-1.9-1.5
					C132.3-520.4,132.3-520.5,132.3-520.5z"/>
			</g>
		</g>
		
			<g id="Body_x2F_Trench-Coat" transform="translate(156.500000, 199.713318) rotate(10.000000) translate(-156.500000, -199.713318) translate(22.953333, 102.203160)">
			<path id="Skin" class="st14" d="M401.9,112.5l-16.6,27.8c-5.6,4.3-10.1,8.7-13.3,13.1c-0.6,1.4-1.1,3.9,2.9,2
				c4-1.9,8.3-3.8,9.4-2.4c1.1,1.3-0.7,4.2,1.1,5.9c1.3,1.1,3.7-3.8,7.2-14.8l19.3-19.4L401.9,112.5z M503.8,64.3L492,71.8
				c26.1,27.1,40.1,41.4,41.8,42.9c3.8,3.3,4.1,11.9,4.6,16.3c5.8-0.6,0.7-8.7,8.1-9.3c6.7-0.5,13.3,1.9,17.1-6
				c0.5-1,0.2-3.4-2.5-3.7c-6.9-0.7-17.5-2.9-19.6-4.5C538.4,105.2,526,90.9,503.8,64.3z"/>
			<path id="Back-Arm" class="st18" d="M397.2,116.6c-3.1,0.9-6.1,2.7-9.1,5.3c-1.5,1.3-1.7,3.7-0.5,5.4c0.7,1,1.8,1.5,2.8,1.5
				c-0.5,0.8-1,1.6-1.5,2.4l10.4,11c19.8-23.1,39.4-42.3,42.1-68.9c0.9-8.9-9.1-34.2-12-43.6l-9-0.6
				C418.3,58.3,411.9,87.8,397.2,116.6z"/>
			<path id="Shirt" class="st3" d="M486.7,106.2c-21.8,11.6-39.8,18.5-53.8,20.7c-1.7,0.3-4.4-7.5-4.3-10
				c0.3-37.7-0.4-64.9-8.4-87.9c2.6,0.4,6.4-0.8,11.5-3.8C454.3,43.4,470.3,68.1,486.7,106.2z"/>
			<path id="Coat-Front" class="st19" d="M492.3,108.5c0.5-1.1,0.5-2.5-0.2-3.7l-1.2-2.2c-0.8-1.5-2.4-2.2-3.9-1.9
				c-0.7-1.1-1.3-2.2-1.9-3.4c-5-9.5-5.9-20.4-9.3-30.1c15.5,6.6,32.6,21.7,51.2,45.4l12.1-9.8c-1.3-2-2.5-3.9-3.8-5.8
				c1.2-1.6,1.5-6.9-0.1-7.2c-1.6-0.3-3.3-0.3-4.9,0c-27.1-37.3-58.3-60.3-93.6-68.8l-3.9,1.5l-4.3,1.7
				c14.8,34.9,8.2,126,42.9,188.3c23.4-2.9,48.3-31.4,82.9-29.6C544,156.4,510.8,133.4,492.3,108.5L492.3,108.5z"/>
			<polygon id="Shade-Lapel" class="st13" points="434.1,23 442.3,34.4 438,46.9 447.5,51.8 441.8,89.6 451.2,50.5 441.8,45.4 
				445.6,34.4 			"/>
			<path id="Buttons" class="st20" d="M450.9,99.9c1.6-0.6,2.4-2.6,1.8-4.4c-0.6-1.8-2.4-2.7-4-2.1c-1.6,0.6-2.4,2.6-1.8,4.4
				C447.5,99.6,449.3,100.5,450.9,99.9z M453.7,119.9c1.6-0.6,2.4-2.6,1.8-4.4c-0.6-1.8-2.4-2.7-4-2.1c-1.6,0.6-2.4,2.6-1.8,4.4
				C450.3,119.6,452.1,120.5,453.7,119.9z M459.4,138.8c1.6-0.6,2.4-2.6,1.8-4.4c-0.6-1.8-2.4-2.7-4-2.1s-2.4,2.6-1.8,4.4
				C456,138.4,457.8,139.4,459.4,138.8z"/>
		</g>
	</g>
</g>
<g id="Ebene_8">
</g>
<g id="Ebene_6">
	<g>
		<path class="st21" d="M255.3,392.3H45.1c-2.6,0-4.7-2.1-4.7-4.7V107.7c0-2.6,2.1-4.7,4.7-4.7h210.2c2.6,0,4.7,2.1,4.7,4.7v279.9
			C260,390.1,257.9,392.3,255.3,392.3z"/>
		<path class="st1" d="M252.6,389.3H42.3c-2.6,0-4.7-2.1-4.7-4.7V104.6c0-2.6,2.1-4.7,4.7-4.7h210.2c2.6,0,4.7,2.1,4.7,4.7v279.9
			C257.3,387.1,255.2,389.3,252.6,389.3z"/>
		<path class="st22" d="M250.2,109.6H70.6c-1.6,0-3-1.3-3-3v-0.8c0-1.6,1.3-3,3-3h179.6c1.6,0,3,1.3,3,3v0.8
			C253.2,108.3,251.8,109.6,250.2,109.6z"/>
		<path class="st23" d="M42.1,104.3c3-2.3,6.4,1.1,4.1,4.2c0,0,0,0,0,0C43.3,110.8,39.9,107.4,42.1,104.3z"/>
		<path class="st24" d="M50.2,104.3c3-2.3,6.4,1.1,4.1,4.2c0,0,0,0,0,0C51.3,110.8,47.9,107.4,50.2,104.3z"/>
		<path class="st25" d="M58.2,104.3c3-2.3,6.4,1.1,4.1,4.2c0,0,0,0,0,0C59.3,110.8,55.9,107.4,58.2,104.3z"/>
		<path class="st26" d="M257.3,112.8v273c0,1.9-1.5,3.5-3.4,3.5H41c-1.9,0-3.4-1.5-3.4-3.5v-273"/>
	</g>
</g>
<g id="Ebene_7">
	<path class="st1" d="M228.2,357.1H90.3c-1.5,0-2.8-1.3-2.8-2.8v-31c0-1.5,1.3-2.8,2.8-2.8h137.9c1.5,0,2.8,1.3,2.8,2.8v31
		C231,355.8,229.7,357.1,228.2,357.1z"/>
	<path class="st1" d="M226.9,313.6H61c-2.3,0-4.3-1.9-4.3-4.3V132.9c0-2.3,1.9-4.3,4.3-4.3h165.9c2.3,0,4.3,1.9,4.3,4.3v176.5
		C231.2,311.7,229.2,313.6,226.9,313.6z"/>
	<path class="st27" d="M111.7,326.1c-7.4,0-13.3,5.8-13.3,12.9c0,7.1,6,12.9,13.3,12.9S125,346.1,125,339
		C125,331.9,119,326.1,111.7,326.1z M109,345.5l-6.7-6.5l1.9-1.8l4.8,4.6l10.1-9.8l1.9,1.8L109,345.5z"/>
	<g>
		<path class="st28" d="M131.1,334.3c-0.1-0.4-0.3-0.5-0.8-0.5h-0.4V331h2.1c1.2,0,1.7,0.3,2.1,1.5l3.4,9.9c0.4,1,0.7,2.6,0.7,2.6h0
			c0,0,0.3-1.6,0.7-2.6l3.4-9.9c0.4-1.1,0.8-1.5,2.1-1.5h2.1v2.8h-0.5c-0.4,0-0.6,0.1-0.8,0.5l-5.3,14.4h-3.4L131.1,334.3z"/>
		<path class="st28" d="M152.6,335.7c3.6,0,5.6,2.7,5.6,6c0,0.4-0.1,1.2-0.1,1.2h-8.8c0.2,2.2,1.9,3.4,3.8,3.4c2,0,3.6-1.4,3.6-1.4
			l1.3,2.2c0,0-1.9,1.9-5.1,1.9c-4.2,0-6.8-3-6.8-6.7C146.2,338.4,148.8,335.7,152.6,335.7z M155,340.7c-0.1-1.5-1.1-2.6-2.4-2.6
			c-1.6,0-2.8,1-3.1,2.6H155z"/>
		<path class="st28" d="M161.4,339.2c0-0.4-0.2-0.5-0.6-0.5h-1V336h2.9c1.1,0,1.7,0.5,1.7,1.5v0.8c0,0.5,0,0.8,0,0.8h0
			c0.6-1.8,2.1-3.3,4-3.3c0.3,0,0.6,0,0.6,0v3.1c0,0-0.3,0-0.8,0c-1.3,0-2.9,0.8-3.5,2.7c-0.2,0.6-0.3,1.3-0.3,2.1v5h-3.1V339.2z"/>
		<path class="st28" d="M171.8,339.2c0-0.4-0.2-0.5-0.5-0.5h-1V336h3c1.2,0,1.7,0.5,1.7,1.7v7.8c0,0.4,0.2,0.5,0.5,0.5h1v2.7h-3
			c-1.2,0-1.7-0.5-1.7-1.7V339.2z M171.9,331h2.7v2.9h-2.7V331z"/>
		<path class="st28" d="M179.1,338.5h-1.6V336h1.6v-0.4c0-4.2,3.4-4.7,5.2-4.7c0.6,0,1.1,0.1,1.1,0.1v2.7c0,0-0.3,0-0.7,0
			c-0.9,0-2.4,0.3-2.4,2.1v0.2h6.8c1.2,0,1.7,0.5,1.7,1.7v7.8c0,0.4,0.2,0.5,0.5,0.5h1v2.7h-3c-1.2,0-1.7-0.5-1.7-1.7v-8
			c0-0.3-0.2-0.5-0.5-0.5h-4.7v10.2h-3.2V338.5z M187.8,331h2.7v2.9h-2.7V331z"/>
		<path class="st28" d="M200.2,335.7c3.6,0,5.6,2.7,5.6,6c0,0.4-0.1,1.2-0.1,1.2H197c0.2,2.2,1.9,3.4,3.8,3.4c2,0,3.6-1.4,3.6-1.4
			l1.3,2.2c0,0-1.9,1.9-5.1,1.9c-4.2,0-6.8-3-6.8-6.7C193.7,338.4,196.4,335.7,200.2,335.7z M202.6,340.7c-0.1-1.5-1.1-2.6-2.4-2.6
			c-1.6,0-2.8,1-3.1,2.6H202.6z"/>
		<path class="st28" d="M213.4,335.7c2.8,0,3.7,1.5,3.7,1.5h0c0,0,0-0.3,0-0.8v-2.2c0-0.4-0.2-0.5-0.5-0.5h-1V331h3
			c1.2,0,1.7,0.5,1.7,1.7v12.8c0,0.4,0.2,0.5,0.5,0.5h1v2.7h-2.9c-1.1,0-1.6-0.5-1.6-1.3c0-0.3,0-0.5,0-0.5h-0.1c0,0-1,2.1-4,2.1
			c-3.4,0-5.7-2.7-5.7-6.7C207.6,338.3,210.1,335.7,213.4,335.7z M217.2,342.3c0-2-1-3.9-3.1-3.9c-1.7,0-3.2,1.4-3.2,3.9
			c0,2.4,1.3,4,3.1,4C215.7,346.3,217.2,345.1,217.2,342.3z"/>
	</g>
	<path class="st29" d="M193.6,149.2H69.3c-1.2,0-2.2-1-2.2-2.2v-7c0-1.2,1-2.2,2.2-2.2h124.3c1.2,0,2.2,1,2.2,2.2v7
		C195.9,148.2,194.9,149.2,193.6,149.2z"/>
	<path class="st29" d="M193.6,165.9H69.3c-1.2,0-2.2-1-2.2-2.2v-7c0-1.2,1-2.2,2.2-2.2h124.3c1.2,0,2.2,1,2.2,2.2v7
		C195.9,164.9,194.9,165.9,193.6,165.9z"/>
	<path class="st29" d="M193.6,241.8H69.3c-1.2,0-2.2-1-2.2-2.2v-7c0-1.2,1-2.2,2.2-2.2h124.3c1.2,0,2.2,1,2.2,2.2v7
		C195.9,240.8,194.9,241.8,193.6,241.8z"/>
	<path class="st29" d="M193.6,262.5H69.3c-1.2,0-2.2-1-2.2-2.2v-7c0-1.2,1-2.2,2.2-2.2h124.3c1.2,0,2.2,1,2.2,2.2v7
		C195.9,261.5,194.9,262.5,193.6,262.5z"/>
	<path class="st29" d="M171.6,184.8H69.3c-1.2,0-2.2-1-2.2-2.2v-7c0-1.2,1-2.2,2.2-2.2h102.3c1.2,0,2.2,1,2.2,2.2v7
		C173.8,183.8,172.8,184.8,171.6,184.8z"/>
	<path class="st29" d="M190.8,279.4H151c-1.2,0-2.2-1-2.2-2.2v-7c0-1.2,1-2.2,2.2-2.2h39.8c1.2,0,2.2,1,2.2,2.2v7
		C193,278.3,192,279.4,190.8,279.4z"/>
	<path class="st29" d="M171.6,203.6H69.3c-1.2,0-2.2-1-2.2-2.2v-7c0-1.2,1-2.2,2.2-2.2h102.3c1.2,0,2.2,1,2.2,2.2v7
		C173.8,202.6,172.8,203.6,171.6,203.6z"/>
	<path class="st29" d="M171.6,221.1H69.3c-1.2,0-2.2-1-2.2-2.2v-7c0-1.2,1-2.2,2.2-2.2h102.3c1.2,0,2.2,1,2.2,2.2v7
		C173.8,220.1,172.8,221.1,171.6,221.1z"/>
</g>
</svg>
